<?xml version="1.0" standalone="no"?>
<!DOCTYPE svg PUBLIC "-//W3C//DTD SVG 1.1//EN" "http://www.w3.org/Graphics/SVG/1.1/DTD/svg11.dtd" >
<svg xmlns="http://www.w3.org/2000/svg">
<metadata></metadata>
<defs>
<font id="mr_sunshine_2regular" horiz-adv-x="948" >
<font-face units-per-em="2048" ascent="1638" descent="-410" />
<missing-glyph horiz-adv-x="417" />
<glyph horiz-adv-x="0" />
<glyph unicode="&#xd;" horiz-adv-x="417" />
<glyph unicode=" "  horiz-adv-x="417" />
<glyph unicode="&#x09;" horiz-adv-x="417" />
<glyph unicode="&#xa0;" horiz-adv-x="417" />
<glyph unicode="!" horiz-adv-x="530" d="M59 139q4 4 35 9.5t68 7.5t69.5 1t42.5 -7q2 -10 1 -30t-3 -41.5t-6 -42t-6 -28.5q-10 -6 -38.5 -7t-61.5 -1t-60.5 2t-36.5 6q0 18 -2 60t-2 71zM68 215q2 43 6 131t7 196.5t6 227.5t4 225.5t0 188.5t-5 119q-2 25 17.5 50t48 44.5t61.5 30t59.5 4t41 -35t8.5 -83.5 q-8 -51 -15.5 -142.5t-14.5 -201t-13.5 -225t-8.5 -218t-2 -179.5t6 -107q6 -29 -26.5 -43.5t-72.5 -17.5t-74.5 6.5t-32.5 29.5z" />
<glyph unicode="&#x22;" horiz-adv-x="714" d="M113 1047q8 55 11 91t3 64.5t-2 56t-4 66.5q0 29 25.5 48.5t57.5 21.5t56.5 -15.5t22.5 -62.5q-4 -45 -6.5 -85t-3.5 -80t1 -82t11 -91q2 -27 -27 -30t-62.5 9.5t-60 36t-22.5 52.5zM358 1047q8 55 11.5 91t3.5 64.5t-2 56t-4 66.5q0 29 25.5 48.5t57 21.5t56 -15.5 t22.5 -62.5q-4 -45 -6 -85t-3 -80t1 -82t10 -91q2 -27 -26.5 -30t-62 9.5t-60.5 36t-23 52.5z" />
<glyph unicode="#" horiz-adv-x="819" d="M94 1071q8 31 29.5 58.5t46.5 27.5v51q-2 0 -3 -1t-3 -1q-29 -2 -46.5 21.5t-19.5 52.5t14.5 52.5t57.5 23.5v12q-2 27 21.5 44.5t52 19.5t52 -14.5t23.5 -57.5v-8q14 0 28.5 -1t31.5 -1q-2 8 -2 14t-2 12q-4 33 18.5 42t52 3t56 -24.5t33.5 -42.5q10 0 26 4 q37 6 45 -19.5t-1 -58.5t-30.5 -59.5t-48.5 -22.5q-2 -12 -2 -24.5v-26.5q4 0 6.5 1t6.5 1q27 2 45 -21.5t20 -52t-14.5 -52.5t-59.5 -24h-4v-10q2 -27 -21.5 -44t-51 -19t-51 14t-23.5 57v7q-16 2 -30.5 2h-29.5q0 -8 1 -14.5t1 -10.5q6 -33 -16 -42t-52 -3t-56.5 24.5 t-32.5 40.5q-6 -2 -12.5 -2t-10.5 -2q-35 -4 -44 19.5t-1 54.5zM313 1149q16 0 34 -1t34 -1q0 16 1 29.5t1 29.5q-16 0 -34.5 1t-35.5 1v-59z" />
<glyph unicode="$" horiz-adv-x="614" d="M59 791q12 98 59.5 158.5t106.5 86.5q2 16 17.5 33.5t34 24t33 -2t14.5 -40.5q63 -10 103 -71.5t22 -178.5q-4 -31 -27 -45.5t-47.5 -15.5t-42 11.5t-13.5 32.5q12 51 9.5 86t-15.5 52q-4 -49 -6 -101.5t-4 -105.5q43 -6 83 -23.5t60 -64.5q18 -39 17.5 -85t-19 -88 t-54.5 -73t-87 -41q0 -29 -14.5 -39t-31.5 -10t-30.5 10t-11.5 27q0 8 2 14q-61 12 -93 45t-43 74t-8 82t11 67q8 16 32.5 19.5t49 -1.5t41 -16.5t8.5 -25.5q-10 -12 -17.5 -33t-7.5 -42.5t7.5 -43t23.5 -33.5q2 43 3 94.5t1 106.5q-33 4 -65.5 9t-57 20.5t-37 45t-6.5 81.5 zM176 782q-4 -29 10.5 -40t40.5 -17v184q-16 -20 -29.5 -51t-21.5 -76zM301 424q41 16 60.5 64.5t-5.5 95.5q-14 29 -55 39q-4 -117 0 -199z" />
<glyph unicode="%" horiz-adv-x="1277" d="M63 1128q0 51 20.5 97.5t55.5 80t83 53t102 19.5q53 0 100 -19.5t82 -53t55.5 -80t20.5 -97.5t-20.5 -97t-55.5 -79.5t-82 -53t-100 -19.5t-101.5 19.5t-83.5 53t-55.5 79.5t-20.5 97zM221 1128q0 -41 30 -68.5t73 -27.5q41 0 70.5 27.5t29.5 68.5t-29.5 69t-70.5 28 q-43 0 -73 -28t-30 -69zM256 127q20 43 59 138t86.5 218t98.5 257t95 255t75 213t41 129q6 25 32.5 44.5t61.5 29.5t69.5 9t57 -16t27 -48t-22.5 -86q-27 -49 -71 -150.5t-97 -225.5t-107.5 -260t-100.5 -255t-76.5 -209t-34.5 -123q-6 -37 -44 -45t-78 6.5t-65.5 46 t-5.5 72.5zM594 295q0 51 20.5 97t55.5 80t83 53.5t101 19.5t100 -19.5t83 -53.5t56.5 -80t20.5 -97t-20.5 -97t-56.5 -80t-83 -53.5t-100 -19.5t-101 19.5t-83 53.5t-55.5 80t-20.5 97zM754 295q0 -41 29.5 -68.5t70.5 -27.5t70.5 27.5t29.5 68.5t-29.5 68.5t-70.5 27.5 t-70.5 -27.5t-29.5 -68.5z" />
<glyph unicode="&#x26;" horiz-adv-x="1040" d="M2 327q-8 87 11.5 172t64.5 157.5t110 117.5q-53 35 -82.5 96.5t-33.5 134t17.5 148.5t70.5 136.5t125.5 99t183.5 38.5q106 0 178 -38.5t111 -99t49 -136.5t-3 -148.5t-50 -135t-90 -99.5q20 -16 38.5 -35.5t34.5 -42.5q31 -37 9.5 -63.5t-62.5 -41t-82 -14.5t-47 17 q-25 27 -56.5 42t-72.5 17q-66 2 -117 -37t-82.5 -98t-41 -130t9 -131t66.5 -100t132 -40q92 2 145.5 55t73.5 129q-57 -12 -98 -30.5t-49 -59.5q-41 96 -24.5 150.5t65.5 82t117.5 40t133 24.5t111 33.5t52.5 70.5q18 -61 18 -105t-15.5 -76t-43 -52.5t-62.5 -32.5 q-10 -70 -41 -133.5t-85 -110.5t-134 -74.5t-186 -23.5q-119 4 -198 50t-121 118t-50 159zM251 1034q-5 -53 12.5 -99t60.5 -76t114 -30q68 0 113 31t67.5 75t23.5 95t-18.5 96t-58.5 76t-98 33q-63 2 -109.5 -27.5t-74 -75t-32.5 -98.5z" />
<glyph unicode="'" horiz-adv-x="366" d="M66.5 1082.5q-5.5 15.5 3.5 25.5q33 39 47 89t20 122q2 37 25.5 49t50.5 7t49.5 -23.5t22.5 -42.5q2 -25 -7.5 -58.5t-28 -70.5t-45 -71t-57.5 -58q-16 -12 -33.5 -8t-29.5 14t-17.5 25.5z" />
<glyph unicode="(" horiz-adv-x="573" d="M93 548.5q5 145.5 23.5 286t44 257t56 196.5t59.5 105q20 2 61.5 3t80.5 -6.5t63.5 -22.5t12.5 -42q-59 -68 -114.5 -205t-91.5 -313t-43 -375t29 -387q4 -18 -12 -37.5t-38.5 -29t-46 -2t-34.5 41.5q-33 111 -44 248t-6 282.5z" />
<glyph unicode=")" horiz-adv-x="548" d="M70 1339q-10 29 15.5 42.5t64 16.5t78.5 0t63 -7q27 -27 51.5 -109t40.5 -199.5t25.5 -260t3.5 -287t-26.5 -281.5t-61.5 -244q-12 -33 -37 -38t-46.5 5.5t-37 31t-8.5 38.5q35 123 48 254t11 259t-17.5 248t-41 222.5t-58.5 182t-67 126.5z" />
<glyph unicode="*" horiz-adv-x="825" d="M100 1035.5q-8 25.5 1.5 57t32 58.5t48.5 23q10 -2 21.5 -2.5t23.5 -2.5q-12 23 -23 40.5t-22 27.5q-23 29 -4 49.5t51.5 27.5t66.5 0t44 -32q4 -10 9 -21.5t11 -25.5q14 23 24.5 41t18.5 35q14 33 41 25.5t48.5 -33t30.5 -58.5t-9 -53q-4 -6 -10 -13.5t-12 -15.5 q16 0 28.5 1t22.5 1q27 2 45 -21.5t20 -52t-14 -52t-59 -23.5q-10 0 -25.5 1t-36.5 1q10 -18 19.5 -32.5t13.5 -24.5q14 -23 3 -50.5t-35.5 -43t-53.5 -11.5t-49 41l-29 57q-12 -18 -22.5 -32.5t-14.5 -24.5q-14 -25 -44 -26t-54.5 12.5t-34.5 41t14 62.5q4 6 10.5 15.5 t14.5 19.5q-20 -2 -36.5 -3t-29.5 -5q-37 -4 -45 21.5z" />
<glyph unicode="+" horiz-adv-x="673" d="M37 278.5q-2 38.5 19.5 69.5t74.5 29q23 -2 43.5 -4t42.5 -2q-2 31 -5 64.5t-9 72.5q-4 31 30.5 35t76.5 -10.5t76 -44t28 -62.5q-4 -16 -5 -31.5t-3 -29.5q61 2 139 12q31 2 35 -32t-10.5 -75t-44 -74.5t-62.5 -27.5q-18 4 -34.5 5t-31.5 3q0 -20 1 -41.5t3 -50.5 q2 -35 -29.5 -58.5t-70.5 -25.5t-69.5 19.5t-26.5 74.5q2 25 3 46.5t3 43.5q-20 -2 -40.5 -3t-49.5 -3q-35 -2 -58.5 30t-25.5 70.5z" />
<glyph unicode="," horiz-adv-x="577" d="M41 -217q-4 6 4 29.5t16.5 66.5t14.5 106.5t0 149.5q4 6 31.5 14.5t63.5 13.5t69.5 3t50.5 -19q2 -10 1 -30.5t-3 -43t-6 -43t-7 -30.5q-20 -78 -57 -125t-73.5 -70.5t-66.5 -27.5t-38 6z" />
<glyph unicode="-" horiz-adv-x="829" d="M96 287q-2 39 18.5 69.5t73.5 26.5t100.5 -7t94.5 -4t96.5 2t108.5 11q31 2 35 -32t-10.5 -75.5t-43 -75.5t-61.5 -28q-66 12 -109 16.5t-76.5 4.5t-66.5 -3.5t-78 -5.5q-35 -2 -57.5 30t-24.5 71z" />
<glyph unicode="." horiz-adv-x="518" d="M61 143q4 6 35 10.5t67 7.5t69.5 2t43.5 -7q2 -10 1 -31t-3 -43.5t-6 -43t-8 -30.5q-10 -6 -38.5 -7t-61.5 -1t-60.5 2t-36.5 6q0 18 -1 62.5t-1 72.5z" />
<glyph unicode="/" horiz-adv-x="970" d="M106 127q20 43 59.5 138t86.5 218t98 257t95 255t75 213t41 129q8 25 35 44.5t60.5 29.5t68.5 9t57.5 -16t26.5 -48t-23 -86q-25 -49 -69.5 -150.5t-97 -225.5t-107.5 -260t-101 -255t-77 -209t-35 -123q-6 -37 -44 -45t-78 6.5t-65.5 46t-5.5 72.5z" />
<glyph unicode="0" horiz-adv-x="899" d="M6 501q-12 130 0 263t48 257t95.5 217t141.5 145t184 42q106 -10 177 -80.5t110 -178t48 -239.5t-7.5 -267.5t-57 -260.5t-103 -218t-142.5 -143t-176 -34q-94 14 -161 85t-106 176.5t-51 235.5zM218 697.5q-9 -117.5 2 -221t44 -177.5t88 -82q59 -10 109.5 52.5 t84.5 162.5t49 220t7 225.5t-44 177t-103 78.5q-68 6 -118 -57.5t-80 -162t-39 -216z" />
<glyph unicode="1" horiz-adv-x="765" d="M0 773q2 28 37 56q41 33 99.5 100.5t116.5 143.5t110 147.5t83 114.5q16 33 57.5 60.5t82.5 33t68.5 -20.5t17.5 -99q-6 -51 -14.5 -154.5t-16.5 -230.5t-14 -264.5t-8.5 -257t-1.5 -209t8 -119.5q8 -35 -26 -54.5t-76 -19.5t-76.5 19.5t-28.5 62.5q4 45 9 149.5t8 234.5 t5 271.5t2 261.5q-35 -53 -68.5 -106t-62 -101.5t-52 -85t-38.5 -57.5q-10 -16 -37.5 -16t-59.5 11t-62.5 30.5t-47 45t-14.5 53.5z" />
<glyph unicode="2" horiz-adv-x="923" d="M0 49q2 39 8 84t14.5 86t16.5 53q115 61 210 146.5t165.5 176.5t115.5 183t59.5 170t-4 134.5t-73.5 78.5q-55 20 -100 -5.5t-76 -80.5t-44 -130t-3 -150q8 -43 -29 -66.5t-86 -22.5t-94 29.5t-53 91.5q-8 152 40 276t131 203.5t191.5 111.5t222.5 -1q106 -41 159.5 -128 t59 -198.5t-36.5 -239.5t-126 -250t-209 -231.5t-285 -183.5q68 -8 146.5 -3t153.5 16.5t139.5 26t105.5 24.5q33 14 44 -12.5t6 -70.5t-22.5 -92t-39.5 -75q-6 2 -58.5 3t-127.5 1t-161 -1t-162.5 -1t-130 -1t-63.5 -1q-6 10 -4 49z" />
<glyph unicode="3" horiz-adv-x="901" d="M1 58q-3 32 19.5 65t61.5 56.5t74 17.5q123 -27 211 -8.5t140 62.5t68.5 102.5t-3 112.5t-76 95t-146.5 49q-23 2 -43 38t-29.5 78t-2 78t41.5 36q102 2 171 26.5t105 60.5t39 78t-23.5 77.5t-84 61t-143.5 27.5h-50t-70 -1t-67.5 -2t-46.5 -3q-23 -2 -44 18.5 t-38.5 51.5t-26.5 67.5t-6 67.5t18.5 49.5t49.5 14.5q16 -2 56.5 -1t86.5 1t88 1t64 -1q117 0 200 -38t132 -99.5t64.5 -138.5t-2 -154.5t-68.5 -148.5t-135 -120q86 -31 138 -105.5t61.5 -165.5t-26.5 -185.5t-123 -164t-230.5 -100t-348.5 3.5q-53 8 -56 40z" />
<glyph unicode="4" horiz-adv-x="935" d="M2 495.5q6 26.5 41 55.5q27 23 64.5 78t79.5 130t87 158.5t86 163.5t75 145.5t57 102.5q14 33 56 62.5t83 36t70.5 -18.5t19.5 -100q-6 -45 -13.5 -129t-13.5 -188.5t-11 -222.5t-9 -230q45 0 92 6q31 2 49.5 -31t19.5 -73t-19.5 -70.5t-65.5 -22.5q-18 4 -39 6t-43 4 q-2 -104 0 -180t8 -104q8 -35 -26 -54.5t-76 -19.5t-76.5 19.5t-30.5 62.5q4 37 7 113.5t7 177.5q-92 4 -179 3t-148 -5h-11h-10q-16 -2 -37 8q-27 8 -51.5 26.5t-36.5 41t-6 49zM293 569q47 -8 95 -13t99 -9q2 90 3.5 182t1.5 178q-51 -84 -102.5 -173t-96.5 -165z" />
<glyph unicode="5" horiz-adv-x="923" d="M0 72.5q4 21.5 22.5 45t43 42t53 29t53.5 6.5q156 -25 261.5 12t157.5 103.5t50 145.5t-60.5 135t-175 74.5t-294.5 -34.5q-20 -6 -35 51t-21 146.5t-7 194.5t4 196.5t13.5 152t20.5 60.5q47 -6 139 -12.5t194.5 -8.5t199 3t153.5 24q18 6 19.5 -26t-12 -74t-38 -80.5 t-59.5 -51.5q-106 -16 -209.5 -7t-220.5 26q-2 -18 -5 -80t-5 -129.5t-3 -121.5t1 -54q154 33 267.5 9t186 -84t105 -147.5t23.5 -179.5t-60 -180t-145.5 -151.5t-232.5 -92t-321 -2.5q-39 6 -53 22.5t-10 38z" />
<glyph unicode="6" horiz-adv-x="917" d="M1 503q-5 126 14.5 254t60.5 248.5t101.5 214t139 149.5t172.5 56q37 -2 42.5 -44t-5 -94t-29 -98t-28.5 -59q-63 -6 -111.5 -70.5t-81.5 -162.5q98 86 207 93t192 -56.5t121 -192.5t-3 -319q-23 -104 -73 -189.5t-117.5 -141.5t-151.5 -78.5t-175 -4.5q-90 18 -149 90 t-90 175.5t-36 229.5zM205 404.5q2 -70.5 30 -130t87 -84.5q57 -25 110 1t95 80.5t69 128t29 144t-24 129t-87 85.5q-68 25 -126 0t-99 -80t-63.5 -129t-20.5 -144.5z" />
<glyph unicode="7" horiz-adv-x="962" d="M0 1294q-2 37 8 69t34 50.5t62 11.5q57 -8 147.5 -16t189 -12t195.5 -3t171 13q31 4 48 -36t18 -88t-19 -87t-66 -33q-2 2 -10 2q-33 -92 -77 -232t-89 -292q63 0 101 10q18 6 29.5 -24.5t12.5 -67.5t-10.5 -67.5t-37.5 -26.5q-29 4 -65 6t-77 4q-43 -152 -71.5 -268.5 t-30.5 -155.5q0 -35 -37 -45t-79 -1t-70.5 37t-14.5 69q16 43 45 141t64 223q-27 -2 -48.5 -4t-37.5 -4q-23 -4 -45.5 33t-30.5 79t5 74.5t65 22.5q29 -6 65.5 -11.5t75.5 -9.5q41 147 75.5 286.5t57.5 234.5q-66 0 -134.5 -1t-131 -4.5t-115.5 -6.5t-86 -7q-25 -4 -44 16.5 t-29.5 52t-12.5 68.5z" />
<glyph unicode="8" horiz-adv-x="917" d="M2 327q-8 87 11.5 172t64.5 157.5t110 117.5q-53 35 -82.5 96.5t-33.5 134t17.5 148.5t70.5 136.5t125.5 99t183.5 38.5q106 0 178 -38.5t111 -99t49 -136.5t-3 -148.5t-50 -135t-90 -99.5q61 -47 101 -123t52 -163t-5 -175t-70.5 -157.5t-144.5 -112.5t-226 -39 q-119 4 -198 50t-121 118t-50 159zM185.5 384q-9.5 -71 9 -131t66.5 -100t132 -40q78 0 128 40t76 98t27 126.5t-20.5 129t-66.5 100.5t-111 42t-117 -37t-82.5 -98t-41 -130zM251 1034q-5 -53 12.5 -99t60 -76t114.5 -30q68 0 113 31t67.5 75t23.5 95t-18.5 96t-58.5 76 t-98 33q-63 2 -109.5 -27.5t-74 -75t-32.5 -98.5z" />
<glyph unicode="9" horiz-adv-x="897" d="M5 769q-13 99 9 228q18 104 63.5 189.5t112 144t148.5 85t174 14.5q98 -12 160.5 -79t91.5 -167.5t28 -226.5t-29 -255t-79 -252.5t-124 -222t-163 -160t-194 -67.5q-37 0 -46.5 34t-5 75t18.5 79.5t25 51.5q61 2 118.5 30.5t104.5 72.5t82 97.5t49 102.5 q-63 -59 -134 -84t-137.5 -17.5t-125 47t-96.5 110.5t-51 170zM172 821.5q4 -69.5 37.5 -124t103.5 -68.5q74 -12 131.5 19.5t96.5 90t56 131t10 140t-41 121t-99 71.5q-63 18 -118.5 -12.5t-95.5 -90t-62.5 -134t-18.5 -144z" />
<glyph unicode=":" horiz-adv-x="512" d="M66 143q4 6 34.5 10.5t66.5 7.5t69.5 2t44.5 -7q2 -10 1 -31t-3.5 -43.5t-6.5 -43t-8 -30.5q-10 -6 -38.5 -7t-61.5 -1t-60.5 2t-35.5 6q0 18 -1 62t-1 73zM66 444q4 6 34.5 10.5t66.5 6.5t69.5 2t44.5 -6q2 -10 1 -32t-3.5 -44.5t-6.5 -43t-8 -28.5q-10 -6 -38.5 -8 t-61.5 -1t-60.5 3t-35.5 6q0 18 -1 62.5t-1 72.5z" />
<glyph unicode=";" horiz-adv-x="512" d="M18 -262q-4 6 4.5 29.5t16.5 66.5t14 106.5t0 149.5q4 6 32 14.5t63.5 13.5t69.5 3t50 -19q2 -10 1 -30.5t-3 -43t-6 -43t-6 -30.5q-20 -78 -57 -125t-74 -70.5t-66.5 -27.5t-38.5 6zM53 391q4 6 35 10.5t66.5 7.5t69.5 2t44 -8q2 -10 1 -31.5t-3 -44t-6 -43t-6 -28.5 q-10 -6 -40 -7t-62.5 -1t-60.5 2t-36 6q0 18 -1 62t-1 73z" />
<glyph unicode="=" horiz-adv-x="835" d="M90 113q-2 39 19.5 69.5t74.5 26.5q55 -4 104.5 -7t97.5 -4t99.5 2t112.5 11q31 2 35 -32t-10.5 -76t-44 -75.5t-62.5 -27.5q-68 12 -112 16t-79.5 4t-69.5 -3t-81 -5q-35 -2 -58.5 30t-25.5 71zM90 407.5q-2 38.5 19.5 69.5t74.5 27q55 -4 104.5 -7t97.5 -4t99.5 1 t112.5 12q31 2 35 -32t-10.5 -76t-44 -75.5t-62.5 -27.5q-68 12 -112 16t-79.5 4t-69.5 -3t-81 -5q-35 -2 -58.5 30t-25.5 70.5z" />
<glyph unicode="?" horiz-adv-x="952" d="M25 827q-8 152 43 276t138 203.5t197.5 111.5t225.5 -1q98 -31 153.5 -110.5t70.5 -183t-5.5 -219.5t-73.5 -218t-136 -180t-189 -105q0 -12 -1.5 -34.5t-1.5 -47t-1 -48t-3 -38.5q-8 -18 -40.5 -28t-69.5 -11t-68 6t-33 23t-1 59.5t2 92.5t5.5 94t8.5 66 q92 -6 164.5 32.5t124 104t79 144.5t27.5 151.5t-27.5 126t-85.5 67.5q-57 14 -105 -13.5t-82 -80.5t-49.5 -125t-4.5 -147q8 -43 -28 -66.5t-85 -21.5t-95 30.5t-54 89.5zM219 143q4 6 35 10.5t67.5 7.5t69.5 2t43 -7q2 -10 1 -31t-3 -43.5t-6 -43t-6 -30.5q-10 -6 -40 -7 t-61.5 -1t-60.5 2t-35 6q0 18 -2 62t-2 73z" />
<glyph unicode="@" horiz-adv-x="1699" d="M102.5 364.5q-14.5 137.5 15 274.5t104.5 252t197 193.5t294 101.5q186 25 326.5 -21.5t235.5 -138.5t146.5 -219t59.5 -265.5t-28 -276.5t-113.5 -251.5t-196.5 -193.5t-281 -101q-170 -23 -305 24.5t-231.5 139.5t-152.5 218t-70.5 263.5zM314.5 359.5 q9.5 -101.5 48 -193.5t106.5 -160.5t163 -104.5t216 -22q154 18 252 110.5t142 220.5t35 268t-69.5 255t-174 181.5t-275.5 46.5q-123 -16 -211 -74t-142.5 -141.5t-77 -184t-13 -202zM494 283q0 109 47 174t112.5 95t137 23.5t122.5 -40.5v22q-2 39 -37.5 54.5t-85 16.5 t-103.5 -9.5t-93 -18.5q-25 -6 -41 26.5t-18.5 78t14 88.5t57.5 57q33 10 82 16t102.5 3t107.5 -19t98 -50t71 -87t29 -131q2 -176 -8.5 -299t6.5 -215q6 -29 -26 -46.5t-72 -19.5t-74.5 13.5t-36.5 52.5q-49 -47 -118 -59.5t-130.5 14t-103 91t-39.5 169.5zM655 276 q-2 -59 27 -96t70 -48t83 4.5t64 60.5q4 43 6 86t4 84q-16 51 -57 69.5t-84 6t-77 -54.5t-36 -112z" />
<glyph unicode="A" d="M-13 534q3 34 33 31q39 -8 91 -12q2 74 2 143.5v129t-1 106.5t-3 72q-2 23 16 47t47 43.5t61.5 30t58.5 3.5q26 -8 42 -34q10 -17 11 -47q0 -15 -3 -33q-4 -35 -9 -86t-11.5 -113.5t-11.5 -132.5t-9 -139q31 -1 61 -1q61 0 121 3q90 4 168 10q2 78 5 152.5t4.5 136 t1.5 106.5t-3 66q-6 63 -43 97q-38 35 -94 49q-52 14 -112 13h-8q-66 -1 -127.5 -10.5t-112.5 -20.5t-76 -18q-25 -6 -42 27t-19 78v11q0 39 13 77q15 43 56 57q33 12 101.5 23.5t152.5 13.5h22q73 0 151 -11q89 -13 161 -52q72 -38 117 -108q43 -67 43 -170v-9 q-2 -59 -5 -148.5t-7 -194t-6.5 -212t-3.5 -201.5v-60q0 -57 1 -105q2 -72 8 -103t-27.5 -48.5t-75.5 -19.5h-8q-37 1 -68 17q-30 16 -30 49q0 5 1 10q6 47 12 133t10 191q-57 3 -116 3q-29 0 -59 -1q-89 -2 -175 -11q-4 -111 -4 -197.5t8 -121.5q8 -33 -25.5 -51.5 t-75.5 -18.5q-42 -1 -77 19q-31 18 -31 53v8q4 41 8 118t8 169q-33 2 -61.5 39t-43.5 79q-13 35 -13 64q0 6 1 12z" />
<glyph unicode="B" horiz-adv-x="962" d="M-2 -6q-6 12 -6 27t7 33q13 34 46 62q31 26 63 25h5h4q4 59 7 149.5t5 193t4 210t3 204.5v92.5v84.5q-1 80 -3 125q-16 0 -20 -2h-4q-33 0 -64 32q-33 34 -46 74q-7 21 -7 38t6 32q10 26 49 26q8 0 16 -1q12 -1 38 -1h29q50 1 107.5 1t110.5 1h32q29 0 44 -1 q123 0 211 -35t141 -90q54 -55 72 -125q10 -36 9 -72q-1 -33 -9 -69q-18 -72 -68.5 -137.5t-138.5 -110.5q86 -53 133 -133q46 -80 56 -168q2 -21 3 -42q0 -66 -23 -132q-30 -86 -96 -156q-68 -70 -170 -113q-98 -41 -227 -41h-12q-15 -1 -35 -1h-22q-34 1 -69.5 1t-66 1 t-49.5 -1q-10 -1 -19 -1q-36 -1 -46 20zM311 137q106 6 180 44t113 93.5t42 119.5v10q0 58 -32 109q-34 56 -106 99t-184 56q-8 -158 -12 -302q-2 -76 -3 -135q0 -54 2 -94zM334 872q170 10 255 62q85 50 91 110v10q0 54 -64 98q-70 48 -206 52h-50q-6 -55 -13 -141 t-13 -191z" />
<glyph unicode="C" horiz-adv-x="919" d="M0 580q0 238 59.5 409.5t148.5 272.5q90 100 192 128q38 11 73 11q60 0 113 -30q84 -48 135 -174q41 -102 41 -257q0 -36 -2 -76q-8 -61 -53 -90t-95 -30h-3q-47 0 -81 23q-29 20 -29 50q0 7 1 14q5 48 5 88q1 49 -7 87q-14 68 -46 94q-19 16 -40 16q-14 0 -29 -6 q-39 -16 -76 -78.5t-65.5 -171t-34.5 -266.5q-1 -29 -1 -57q0 -107 18 -183q24 -94 64 -143t89 -52h7q45 -1 86 35q44 38 75 118.5t37 199.5q8 39 45 64.5t77 30.5q9 1 19 1q30 0 55 -13q33 -17 35 -60q-6 -168 -69.5 -291t-153.5 -191.5t-194 -78.5q-14 -1 -27 -1 q-88 1 -164 53q-88 60 -146.5 196t-58.5 358z" />
<glyph unicode="D" horiz-adv-x="1007" d="M-8 -6q-1 6 -1 13q0 19 9 41q12 30 41 57.5t76 35.5q4 59 7 148.5t6 192t5 211t2 206.5t-1 177t-3 126q-8 -2 -18 -2q-23 -2 -46.5 13.5t-41 39t-26.5 51t-7 51t18.5 37t53.5 9.5q16 -2 66 -2t107.5 1t109.5 2h31q28 0 44 -1q129 0 225 -61.5t157.5 -162t87.5 -228.5 q18 -86 18 -176q0 -43 -4 -86q-12 -134 -62.5 -262t-142 -228.5t-221.5 -162t-304 -61.5q-59 0 -92 -3q-20 -2 -42 -2q-15 0 -30 1q-18 1 -22 25zM311 166q113 29 192 88t129 137t74 168q23 86 22 173v7q-1 90 -23.5 173t-64.5 147.5t-100.5 104.5t-129.5 42h-50 q-10 -80 -19 -218t-17 -290q-7 -152 -11 -296q-3 -96 -3 -169q0 -36 1 -67z" />
<glyph unicode="E" horiz-adv-x="962" d="M-14 1358q2 24 18 38q12 10 37 10q7 0 16 -1q74 -10 173.5 -15.5t203.5 -6.5h37q84 -1 163 3q97 4 169 17q31 2 33 -34v-7q0 -33 -16 -74q-18 -46 -49 -80q-27 -29 -55 -29l-9 1q-86 14 -178.5 21t-190.5 9q-8 -82 -17.5 -220t-17.5 -292q18 -1 35 -1q47 1 90 5 q59 6 131 15q33 2 37 -32q1 -7 1 -14q-1 -28 -13 -62q-16 -41 -44 -75q-25 -28 -53 -29q-5 0 -10 1q-66 10 -105.5 15t-74.5 7q-4 -117 -6 -216q-1 -33 -1 -62q0 -58 3 -100q19 0 39 -1q87 0 172 8q105 9 203 25q23 4 44 -10t38.5 -38.5t29.5 -52.5t15.5 -52.5t-4 -40 t-27.5 -13.5q-61 7 -157 11q-74 3 -154 3h-46q-104 -1 -203.5 -5t-166.5 -13q-7 -1 -14 -1q-38 0 -50 20q-14 24 -6 56t34 63.5t56 42.5q4 66 7 162t8 206q-6 0 -12.5 -1t-12.5 -1h-7q-29 0 -51 30q-24 34 -26 72v7q0 35 20 63q18 26 58 26q8 0 16 -1q4 0 8.5 -1t8.5 -1 q4 154 4 287t-4 204h-7q-23 -2 -46 13.5t-40.5 39t-26.5 51.5q-7 22 -7 42v8z" />
<glyph unicode="F" horiz-adv-x="745" d="M-8 1354q2 24 18 38q13 10 38 10q7 0 15 -1q74 -10 176.5 -15.5t208.5 -7.5q28 -1 55 -1q76 1 150 5q100 6 172 17q19 1 27 -15q5 -12 6 -28q0 -6 -1 -14q-3 -26 -15.5 -57.5t-29.5 -57t-38.5 -42t-44.5 -11.5q-82 14 -175 22t-192 10q-6 -45 -11 -109.5t-10 -141 t-9 -161.5t-8 -171q68 0 130 4t134 14q31 2 35 -32q1 -7 1 -14q0 -29 -12 -61q-16 -40 -44 -74q-24 -29 -52 -29q-5 0 -10 1q-66 10 -108 15.5t-81 7.5q-2 -74 -3 -141.5t-1 -122t2 -93.5t7 -57q8 -33 -26 -51.5t-76 -18.5q-42 -1 -76 19q-31 17 -31 53v8q6 47 10 153.5 t8 241.5q-8 -2 -16.5 -2h-18.5h-7q-29 0 -51 29q-24 33 -26 73v7q0 35 20 63q18 25 57 26q8 0 17 -1q20 -4 29 -4q2 86 3 170t1 158.5t-1 136t-3 100.5q-6 -2 -22 -2q-23 -2 -46.5 13.5t-41 39t-26.5 51.5q-7 22 -7 42v8z" />
<glyph unicode="G" horiz-adv-x="956" d="M0 588q0 240 62.5 411.5t154.5 271t199 125.5q36 10 71 10q66 0 124 -33q89 -50 143 -178q43 -105 43 -263q0 -36 -2 -74q-8 -61 -48 -90t-83 -30h-3q-41 0 -71 22q-25 19 -25 49q0 8 2 16q5 42 5 78q0 58 -12 101q-19 69 -57 96q-25 19 -55 19q-15 0 -31 -5 q-48 -14 -92 -74.5t-77 -169t-39 -266.5q-1 -34 -1 -64q0 -96 14 -166q18 -93 50.5 -143.5t74.5 -60.5q11 -3 22 -3q30 0 59 21q39 27 69.5 93.5t43.5 167.5q-12 -2 -26.5 -4.5t-31.5 -6.5q-5 -1 -10 -1q-29 0 -53 29q-29 34 -44 76q-11 32 -11 59q0 9 1 17q5 33 35 31 q61 -8 105.5 -15t88.5 -9q18 -1 36 -1q28 0 59 2q51 3 125 15q25 4 33 -23q5 -16 5 -35q0 -14 -3 -29q-6 -36 -26.5 -66.5t-51.5 -32.5q-23 -154 -88.5 -262.5t-151.5 -164.5q-84 -54 -177 -54h-3q-94 1 -172 66.5t-129 200t-51 347.5z" />
<glyph unicode="H" horiz-adv-x="952" d="M-6 532q2 34 33 31q23 -4 44 -6t46 -6q2 115 3 230.5t1 215t-2 173t-4 104.5q-2 23 16.5 47.5t46.5 43.5q30 19 62 29q20 6 37 7q12 0 23 -3q28 -7 42 -34q10 -19 10 -51q0 -14 -2 -29q-6 -41 -13 -121t-13.5 -181t-11.5 -216t-9 -225q34 -1 69 -1q52 0 104 2q87 3 165 9 q2 115 3 230.5t1 215t-2 173t-4 104.5q-2 23 16.5 47.5t47 43.5t61.5 29q20 6 37 7q13 0 23 -3q26 -7 42 -34q10 -17 9 -45q0 -16 -3 -35q-6 -49 -14 -152.5t-15 -231.5t-13.5 -267t-8.5 -261q-1 -81 -1 -148v-64q1 -90 7 -119q8 -33 -25.5 -51.5t-75.5 -18.5q-42 -1 -77 19 q-29 16 -29 48q0 6 1 13q4 39 7 124t7 196q-34 1 -67 1q-51 0 -102 -2q-85 -3 -169 -10q-3 -78 -3 -142q0 -32 1 -62q2 -86 8 -115q8 -33 -25.5 -51.5t-75.5 -18.5q-42 -1 -77 19q-30 17 -30 49q0 6 1 12q4 35 7 111t8 176q-33 4 -61 41q-26 37 -42 78q-14 36 -14 67v8z" />
<glyph unicode="I" horiz-adv-x="966" d="M-12 1356q2 24 18 38q13 10 38 10q7 0 15 -1q74 -10 173.5 -15.5t203.5 -6.5h37q84 -1 163 3q97 4 169 17q31 2 33 -34v-7q0 -33 -16 -74q-18 -45 -49 -80q-27 -29 -53 -29l-11 1q-41 6 -83 11t-85 9q-6 -57 -12.5 -142t-12.5 -182.5t-11.5 -201t-8 -199.5t-2.5 -180 t2 -139q53 4 106.5 10t106.5 16q23 4 44 -10t38.5 -39t30 -52.5t15.5 -52t-4.5 -40t-27.5 -13.5q-61 7 -157 11q-74 3 -154 3h-46q-104 -1 -203.5 -5.5t-166.5 -12.5q-9 -1 -17 -1q-41 0 -51 25q-6 14 -5 29q-1 18 7 38q14 36 48 66q30 28 63 28h4q86 -6 172 -7 q4 59 7 147.5t6 191t4 211t2 206.5v94v85q-1 81 -3 128q-53 0 -104 -2t-102 -6q-23 -2 -46.5 13.5t-41 39t-26.5 51.5q-7 22 -7 42v8z" />
<glyph unicode="J" horiz-adv-x="804" d="M2 772q4 63 34 72q8 2 16 2q23 0 48 -18q35 -23 69 -67t46 -83q-5 -68 -5 -128q0 -71 7 -130q12 -109 39 -172.5t62 -80.5q11 -6 22 -6q23 0 45 25q33 35 57.5 124t32.5 237q4 90 6 187t2 186.5t-1 164t-3 117.5q-82 4 -164 4t-161 -6h-7q-31 0 -61 30q-33 34 -46 74 q-7 20 -7 39q0 17 6 32q10 27 49 27q8 0 16 -1q74 -10 173.5 -15.5t202.5 -7.5q28 -1 55 -1q75 0 145 5q96 5 168 17q20 2 28 -15q7 -12 7 -29q0 -7 -1 -13q-3 -27 -15.5 -58t-30 -56.5t-39 -42t-43.5 -11.5q-12 4 -24.5 5t-24.5 3q-4 -59 -7.5 -146.5t-7.5 -183.5 t-9 -195.5t-11 -183.5q-14 -164 -72.5 -280.5t-136.5 -172.5q-67 -49 -140 -49q-12 0 -25 1q-87 10 -156.5 98t-109.5 260q-31 132 -31 323q0 57 3 119z" />
<glyph unicode="K" horiz-adv-x="874" d="M0 51q6 43 12 140.5t11.5 222.5t10.5 262t7 259t2 214t-2 127q-2 23 17.5 47.5t48 42.5t61.5 27.5t59.5 2.5t40.5 -34q9 -17 9 -43q0 -16 -3 -37q-6 -37 -12 -102.5t-13 -150.5t-14.5 -182t-13.5 -196q63 96 133 209t132.5 215.5t109.5 181t63 109.5q10 18 39 28 q26 9 57 8h6q34 -1 66.5 -12.5t50.5 -31.5q17 -18 17 -43v-5q-2 -30 -37 -67q-27 -29 -65.5 -82t-86 -119.5t-98.5 -143.5t-101 -153.5t-95 -148.5t-78 -129q51 -49 107.5 -101.5t114.5 -101.5t113.5 -91t102.5 -71q16 -12 11 -30.5t-25.5 -36t-49 -31.5t-59.5 -21.5 t-57.5 -5t-40.5 20.5q-63 78 -155.5 162t-187.5 162q-4 -104 -4.5 -179t5.5 -102q1 -5 1 -10q0 -29 -29 -43q-34 -18 -76 -18q-43 0 -77 20q-29 17 -29 49q0 6 1 12z" />
<glyph unicode="L" horiz-adv-x="899" d="M2 42q8 32 32.5 63.5t55.5 44.5q4 66 8 165t6 214.5t4.5 234.5t2.5 222.5t-1 181t-6 110.5q-2 23 16.5 47.5t47.5 42.5q30 18 62 28q21 7 38 7q10 0 20 -2q26 -6 42 -34q10 -18 11 -48q0 -15 -3 -33q-6 -45 -13.5 -129t-13.5 -190.5t-12 -224t-9 -230.5t-4 -208v-60 q0 -56 1 -97q17 0 34 -1q79 0 157 8q94 10 192 26q23 4 44 -10t38.5 -39t29.5 -53q13 -28 16 -52q1 -7 1 -13q1 -17 -5 -27q-8 -16 -28 -13q-62 7 -152 11q-70 3 -145 3h-43q-98 -1 -192.5 -5.5t-161.5 -12.5q-7 -1 -13 -1q-35 0 -49 20q-10 15 -11 33q0 10 3 21z" />
<glyph unicode="M" horiz-adv-x="935" d="M0 53q4 43 9 140.5t8 222.5t5.5 261t3.5 258v114.5v99.5q-1 92 -6 127v7q0 27 30 57q34 34 77 50q30 12 58 12q12 0 23 -2q38 -7 46 -59q2 -4 20.5 -71.5t43 -161.5t52 -193.5t50.5 -166.5q31 61 59.5 134.5t54 147.5t48.5 140.5t39 115.5q2 23 22.5 46.5t48.5 41.5 q28 17 60 25q16 4 30 4t27 -4q25 -8 39 -35q9 -17 9 -44q0 -15 -3 -34q-6 -49 -14.5 -152.5t-15.5 -231.5t-13 -267t-8 -261q-1 -81 -1 -148v-64q1 -90 7 -119q8 -33 -25.5 -51.5t-75.5 -18.5q-42 -1 -77 19q-30 17 -30 49q0 6 1 12q4 37 8 120t7.5 189.5t5.5 227.5t4 235 q-41 -104 -73 -193t-40 -130q0 -25 -30.5 -42.5t-67.5 -20.5q-6 -1 -13 -1q-30 0 -57 12q-33 14 -41 52q-10 53 -33.5 132t-52.5 167q-6 -121 -11 -244t-6 -229v-98v-84q1 -76 7 -103q8 -33 -25.5 -51.5t-75.5 -18.5q-42 -1 -77 19q-31 18 -31 53v8z" />
<glyph unicode="N" horiz-adv-x="935" d="M0 53q4 43 9 140.5t8 222.5t5.5 261t3.5 258v114.5v99.5q-1 92 -6 127v7q0 27 30 57q34 34 77 50q30 12 58 12q12 0 23 -2q38 -7 46 -59q2 -2 19.5 -48t46 -118.5t65.5 -166t77 -190.5t81 -192.5t75 -170.5q2 123 5.5 254t3.5 245.5t-1 201.5t-5 120q-2 23 16 47.5 t47 43.5q30 19 62 29q20 6 36 7q12 0 22 -3q26 -7 42 -34q10 -18 11 -47q0 -15 -3 -33q-6 -49 -14.5 -152.5t-15.5 -231.5t-12.5 -267t-8.5 -261q-1 -81 -1 -148v-64q1 -90 7 -119q6 -27 -14.5 -43t-50.5 -22q-18 -4 -38 -4q-14 0 -28 2q-35 4 -55 22q-23 12 -29 41 q-8 41 -46 133t-90 210t-114.5 249t-120.5 248q-6 -127 -12 -263q-6 -134 -9 -252q-2 -70 -2 -131q0 -40 1 -74q2 -87 8 -116q8 -33 -25.5 -51.5t-75.5 -18.5q-42 -1 -77 19q-31 18 -31 53v8z" />
<glyph unicode="O" d="M9 1008q-3 19 -3 39q0 31 7 65q11 56 44 105q51 80 139.5 132t185.5 64q26 3 51 4q71 1 141 -25q96 -34 164 -126t96 -248q13 -70 12 -156q0 -105 -19 -233q-35 -229 -115 -379t-180 -218q-84 -58 -172 -58q-16 0 -32 2q-104 12 -183 106t-120 272q-25 109 -25 250 q0 90 10 193q4 35 34 55t67 25q-43 10 -69 45.5t-33 85.5zM123 879q8 1 16 1q27 0 51 -12q30 -14 41 -43q-23 -167 -23 -292q0 -45 4 -87q12 -150 48 -228q38 -79 92 -87q7 -1 13 -1q48 0 95 48q54 55 99.5 170t65.5 285q8 82 8 150q-1 85 -13 150q-22 116 -68 174 q-46 59 -110 65q-10 1 -19 1q-53 0 -105 -30q-62 -35 -114 -103.5t-79 -158.5z" />
<glyph unicode="P" horiz-adv-x="905" d="M0 1356q2 24 18.5 37.5t53.5 9.5q18 -2 67 -2t106.5 1t110.5 2h32q29 0 44 -1q115 0 199 -44t138 -116q55 -72 79 -163q19 -71 18 -145q0 -21 -1 -43q-7 -97 -44 -191.5t-104.5 -171t-166.5 -127t-231 -58.5q-1 -74 -1 -134v-58q1 -80 10 -109q8 -33 -26 -51.5t-76 -18.5 q-42 -1 -76 19q-31 17 -31 53v8q4 39 8 126t8 197.5t6 234.5t3 239v110v99q-1 94 -3 145q-8 -2 -20 -2q-23 -2 -46.5 13.5t-41 39t-26.5 51.5q-7 22 -7 42v8zM326 535q115 6 190.5 57t115.5 125t43 159v14q0 76 -29 144q-32 74 -96.5 123t-162.5 53h-18q-6 -49 -11.5 -124.5 t-11.5 -166t-11 -189.5t-9 -195z" />
<glyph unicode="Q" d="M10 801q4 35 34 55.5t67 24.5q-14 12 -32 57t-30 100q-13 59 -13 110q0 49 21 77q53 70 132 114.5t166 60.5q45 8 90 8l84 -8q87 -14 157 -60t115 -126.5t49 -195.5q1 -38 1 -75q0 -240 -45 -420q-52 -208 -136 -339q23 -29 48 -59.5t54 -63.5q20 -25 -7.5 -46t-70.5 -33 q-27 -7 -55 -7l-31 3q-43 6 -57 36q-4 10 -12 27q-89 -68 -183 -68q-11 0 -23 1q-106 10 -186.5 104t-121.5 274q-25 110 -25 254q0 91 10 195zM123 883q8 1 17 1q27 0 50 -10q31 -14 41 -45q-23 -168 -23 -294q0 -46 4 -87q11 -149 49 -226t93 -84q7 -1 13 -1q49 0 98 49 q-20 33 -47 68t-72 94q-14 17 -14 37q0 13 6 28q14 38 46 61.5t68.5 23.5t61.5 -49q14 -29 26.5 -52.5t24.5 -46.5q41 98 65 240q22 121 22 271q0 25 -1 50q-2 104 -32.5 169t-78.5 94q-40 23 -86 23q-10 0 -20 -1q-59 -6 -116.5 -44t-108.5 -104.5t-84 -160.5q0 -2 -1 -2 t-1 -2z" />
<glyph unicode="R" horiz-adv-x="935" d="M-6 1354q2 24 18.5 37.5t53.5 9.5q18 -2 67 -2t106.5 1t110.5 2h32q29 0 44 -1q139 0 233.5 -63.5t144.5 -163.5t55 -220q1 -13 0 -26q0 -107 -36 -208q-41 -114 -127 -208t-219 -139q86 -78 180.5 -151t176.5 -126q16 -12 11 -29.5t-24.5 -35t-49.5 -32.5 q-29 -15 -59 -23q-23 -6 -45 -5h-11q-26 2 -42 21q-61 76 -138 142.5t-163 131.5q-1 -42 -1 -77.5t1 -64.5q2 -58 9 -81q2 -7 2 -13q0 -26 -28 -40q-34 -18 -76 -18q-42 -2 -76 18q-31 17 -31 53v8q4 41 8 127t8 196.5t6 234.5t3 239v110v99q-1 94 -3 145q-8 -2 -20 -2 q-23 -2 -46.5 13.5t-41 39t-26.5 51.5q-7 22 -7 42v8zM319 535q104 4 176 55t112 124.5t46 158.5q1 15 1 30q0 68 -22 129q-28 74 -90.5 123t-160.5 53h-19q-6 -49 -11 -124.5t-11 -166t-11 -188.5t-10 -194z" />
<glyph unicode="S" horiz-adv-x="940" d="M4 885q23 166 96.5 280.5t170 177t199.5 68.5q10 1 21 1q90 0 162 -48q80 -53 121 -167q25 -69 25 -161q0 -61 -11 -131q-8 -61 -53 -90t-94 -30h-4q-46 1 -81 23q-29 19 -29 50q0 7 1 14q21 79 21 138q0 18 -2 34q-8 70 -36 106t-70 37h-2q-41 0 -83 -33 q-43 -34 -80.5 -104.5t-56.5 -177.5q-3 -13 -2 -25q-1 -35 21 -53q30 -24 82.5 -35t120 -17.5t133 -24t122.5 -54t90 -108.5q32 -76 32 -164q0 -19 -1 -37q-8 -108 -64.5 -198t-157.5 -144q-76 -40 -176 -40q-34 0 -71 5q-90 12 -149.5 47t-96 83.5t-53 105.5t-18.5 113v25 q0 43 5 83q7 51 19 88q10 23 36 33q25 10 57 11h8q28 0 57 -6q33 -7 57.5 -20.5t34.5 -29.5t-2 -35q-27 -29 -39 -77q-8 -32 -8 -64q0 -16 2 -33q6 -49 32.5 -92t76.5 -62q32 -13 63 -13q30 0 58 12q58 24 94 75t44 119q2 14 2 28q0 53 -26 103q-27 49 -85 68.5t-130 27.5 t-146.5 17.5t-132.5 37.5q-56 30 -88 90q-21 40 -21 103q0 32 5 70z" />
<glyph unicode="T" horiz-adv-x="641" d="M6 1366q10 24 49 24q8 0 17 -1q74 -10 173 -15.5t203 -7.5q30 -1 58 0q73 0 142 3q97 5 169 17q31 2 33 -32v-6q0 -31 -16 -69q-18 -42 -48 -76q-26 -28 -54 -28q-6 0 -11 1q-41 8 -83 13t-85 9q-6 -68 -13.5 -172t-13.5 -224t-11 -243t-7 -229q-1 -71 -1 -130v-54 q1 -78 7 -105q8 -33 -25.5 -51.5t-75.5 -18.5q-42 -1 -77 19q-31 18 -31 53v8q4 39 8 126t8.5 197.5t6.5 235.5t3 241q0 58 0.5 110.5t-0.5 99.5q-1 94 -3 147q-30 1 -59 1q-74 0 -148 -7h-8q-31 0 -60 28q-33 32 -46 70q-7 20 -7 36t6 30z" />
<glyph unicode="U" horiz-adv-x="935" d="M0 719q4 250 72 604q10 53 49 67q25 9 52 10q15 0 30 -3q43 -8 77.5 -29.5t34.5 -40.5q-79 -299 -107 -512q-23 -173 -22 -298v-55q6 -140 40 -214t81 -98q25 -13 52 -12q23 0 49 10q54 20 100.5 69t78 121t36.5 151q2 119 4 246t2 236.5t-1 191.5t-5 113q-2 23 16 47.5 t47 43.5q30 19 62 29q20 6 37 7q12 0 22 -3q27 -7 42 -34q10 -18 10 -46q0 -15 -3 -34q-6 -49 -14 -152.5t-15.5 -231.5t-13.5 -267t-8 -261q-1 -81 -1 -148v-64q1 -90 7 -119q8 -33 -25.5 -51.5t-75.5 -18.5q-42 -1 -77 19q-30 17 -30 49q0 6 1 12q2 16 3 40t3 52 q-66 -90 -150 -136q-66 -36 -130 -36q-18 1 -35 3q-82 12 -152.5 91.5t-108.5 240.5q-34 146 -34 364v47z" />
<glyph unicode="V" horiz-adv-x="878" d="M0 688q2 258 74 635q10 53 49 67q26 10 54 10q14 0 28 -2q43 -7 77.5 -29.5t34.5 -41.5q-81 -299 -107 -522q-17 -150 -18 -266q0 -57 4 -105q12 -148 54.5 -222.5t94.5 -74.5t105.5 74t89.5 221q34 146 44 365q2 47 3 97q0 184 -28 413q0 23 32 50t73 41q23 8 44 7 q16 -1 32 -5q34 -10 40 -59q20 -168 20 -325q0 -108 -10 -208q-22 -250 -86.5 -435t-163 -292.5t-218.5 -107.5h-5q-83 0 -158 68q-77 69 -119 229q-40 152 -40 395v23z" />
<glyph unicode="W" horiz-adv-x="1230" d="M1 686q3 258 67 633q8 53 45 71q29 14 60 13q9 0 19 -1q42 -5 78.5 -27.5t48.5 -51.5q-68 -272 -95 -482q-25 -196 -25 -336v-21q2 -146 26.5 -231t61.5 -107q14 -8 28 -9q25 0 52 25q43 39 79 139q-16 80 -28 155.5t-16 153.5q-1 18 0 37q0 61 8 127q12 86 45 187 q13 43 45 54q19 7 40 7q13 0 25 -3q33 -7 59.5 -24.5t30.5 -27.5q29 -63 33 -153q1 -26 1 -51q0 -64 -7 -130q-10 -92 -32.5 -179t-47.5 -145q22 -104 60 -146q25 -28 52 -28q13 -1 27 7q41 22 80 106t63 230q25 144 28 350v41q0 191 -25 434q0 23 33.5 49t76.5 40 q25 8 48 7q16 1 32 -3q37 -10 43 -59q17 -166 17 -319q-1 -110 -9 -212q-20 -248 -77.5 -434t-146.5 -292.5t-197 -106.5h-6q-51 0 -99 31q-52 33 -90 107q-49 -66 -104.5 -102t-118.5 -36h-4q-77 0 -143 67q-68 68 -106 228q-35 148 -35 381v37z" />
<glyph unicode="X" horiz-adv-x="919" d="M8 45q-7 15 -8 29q0 19 14 37t44 70t69 127t84 166t92 188q-47 92 -92 178t-83 157.5t-66.5 124t-43.5 74.5q-11 16 -11 38q0 7 1 14q4 32 19.5 62.5t39 55.5t49.5 31q6 1 12 1q20 0 40 -14q27 -18 47 -71q23 -57 75 -173t118 -257q66 139 118 254.5t72 171.5 q20 53 47 71.5t52.5 12t49 -31t39 -55t18.5 -62.5t-9 -52q-14 -23 -43 -74t-66 -122.5t-82 -157.5t-90 -176q45 -96 90 -186.5t84 -164t68 -126t45 -70.5q14 -18 14 -37q0 -14 -8 -29q-19 -35 -53 -55q-28 -16 -61 -15q-7 1 -15 1q-41 4 -62 49q-10 25 -30.5 66.5t-48 97 t-60.5 122t-69 138.5q-37 -72 -70 -139.5t-60.5 -124t-48 -98.5t-32.5 -66q-19 -47 -61 -51q-7 -1 -15 -1q-33 1 -61 17q-34 20 -52 55z" />
<glyph unicode="Y" horiz-adv-x="886" d="M4 968q10 152 51 355q12 53 53 67q27 10 55 10q16 0 32 -3q45 -8 81.5 -29.5t36.5 -40.5q-66 -207 -82 -365q-7 -73 -7 -135q0 -71 10 -129q18 -106 60 -161.5t92 -59.5h7q47 0 93 46q49 50 80.5 152.5t36.5 260.5q1 18 1 37q0 145 -35 334q-2 23 32 49t77 40q24 7 47 7 q17 0 34 -5q38 -10 44 -59q21 -164 21 -300q0 -67 -6 -128q-15 -182 -61 -307t-117 -195.5t-153 -93.5q-1 -50 -1 -93t1 -80q2 -72 9 -99q1 -6 1 -12q0 -24 -29 -39q-36 -19 -80 -19t-81 19q-33 18 -33 53v8q4 33 7.5 99.5t7.5 156.5q-41 8 -86 29.5t-85 67t-70 118 t-42 182.5q-7 61 -7 133q0 61 5 129z" />
<glyph unicode="Z" horiz-adv-x="935" d="M1 62q-1 10 -1 21q0 31 7 61q9 40 28 55q14 29 47 94t75 151t90 184.5t96 194t93 180t78 144.5q-102 -10 -203.5 -39t-167.5 -64q-25 10 -49 42t-43.5 75t-33 88t-15.5 81t9.5 55.5t39.5 9.5q53 -19 141 -27q79 -8 166 -7h21q98 1 193.5 11t164.5 27q4 1 8 1q21 0 35 -27 q18 -32 24 -76q4 -26 4 -51q0 -18 -2 -37q-5 -44 -26 -62q-27 -59 -71.5 -143t-100 -178.5t-115 -194t-112.5 -188.5t-97 -162.5t-67 -116.5q28 -2 57.5 -2t61.5 2q64 4 134.5 16.5t141 30.5t136.5 43q29 10 43 -6t19 -48q2 -16 2 -34t-2 -38q-5 -40 -17.5 -75t-28.5 -59.5 t-37 -26.5q-49 8 -137 14.5t-184 7.5h-39q-76 0 -149 -3q-91 -4 -144 -17q-37 -8 -53.5 21.5t-19.5 71.5z" />
<glyph unicode="[" horiz-adv-x="643" d="M88 82q4 43 8 140t8.5 221t6.5 259.5t2 256t-1 212t-6 127.5q-2 27 21 54.5t54.5 48t67.5 28t60 -7.5q49 -8 95.5 -11t105.5 15q31 2 34 -32.5t-11.5 -76.5t-42 -75t-58.5 -24q-57 14 -98 14q-6 -61 -11.5 -144t-11.5 -178.5t-10 -197t-7 -196.5t-5 -180t0 -147 q76 -4 143 13q31 12 36 -19.5t-9.5 -73.5t-41 -78t-59.5 -30q-35 6 -66.5 7t-55.5 -1q-25 -6 -52.5 -5t-49 10t-36 26.5t-10.5 44.5z" />
<glyph unicode="\" horiz-adv-x="970" d="M139 1356q4 33 26.5 48t57.5 16t69 -9t60.5 -29.5t34.5 -44.5q8 -37 40 -129t76 -213t94 -255t98 -257t87 -218t60 -138q20 -41 -5.5 -72.5t-65.5 -46t-78 -6.5t-44 45q-4 33 -34.5 123t-76.5 209t-101.5 255t-108 260t-97.5 225.5t-69 150.5q-27 53 -23 86z" />
<glyph unicode="]" horiz-adv-x="643" d="M116 173.5q1 23.5 10 34.5t30 1q72 -18 143 -23q6 61 11 146.5t9.5 180.5t7.5 196.5t5 196.5t2 178.5v144.5q-39 2 -98 -6q-33 -6 -57.5 28.5t-36 77.5t-5.5 79t37 30q59 -23 104.5 -24t96.5 3q27 12 60.5 2t64 -32.5t50 -52t17.5 -56.5q-8 -35 -16 -126t-17.5 -212 t-17.5 -256t-14 -258t-10.5 -220t-2.5 -140q2 -27 -12 -43.5t-37.5 -24.5t-50.5 -7t-51 9q-25 4 -56.5 6t-66.5 -2q-23 -2 -41 15.5t-31.5 43t-20.5 56.5t-6 54.5z" />
<glyph unicode="`" horiz-adv-x="628" d="M203 948q-6 18 2 34.5t23.5 26t34 9.5t28.5 -14q14 -25 41 -38.5t80 -9.5q10 2 14 -16t-6 -31q-18 -8 -51 -12t-67 -1t-62.5 15.5t-36.5 36.5z" />
<glyph unicode="a" horiz-adv-x="704" d="M-18 274q0 109 46 176.5t112 97.5q55 25 114 25q10 -1 22 -1q72 -6 123 -40v23q-2 39 -37.5 54.5t-85 15.5t-103.5 -10.5t-93 -20.5q-25 -6 -42.5 26.5t-19.5 77.5v10q0 40 14 79q16 44 56 59q33 10 82 17q31 4 65 4q19 0 39 -1q54 -4 108 -19.5t98 -49t72 -86t30 -129.5 q1 -44 1 -84.5t-1 -77.5q-2 -74 -4 -138q-2 -53 -3 -98q1 -9 1 -18q0 -53 10 -98q1 -5 1 -9q0 -23 -27 -39q-32 -18 -72 -20h-8q-35 0 -66 14q-35 16 -37 52q-49 -50 -118 -62q-23 -4 -45 -4q-45 0 -85 18q-61 26 -104 89t-43 167zM143 270q0 -59 30 -95t70 -47q16 -4 32 -5 q24 1 50 11q42 16 64 61q4 43 6 86t4 84q-18 51 -59 69q-24 11 -48 11q-18 1 -36 -5q-43 -14 -77 -57t-36 -113z" />
<glyph unicode="b" horiz-adv-x="735" d="M0 78q6 43 11 116.5t8.5 161.5t5.5 183.5t2 181.5t-1 154.5t-6 103.5q-2 23 16.5 47.5t47.5 43.5q30 20 62 30q19 6 36 6q12 0 22 -3q26 -7 42 -34q10 -18 11 -47q0 -15 -3 -33q-6 -49 -13.5 -102.5t-15.5 -147.5q67 71 143 87q20 4 40 4q52 0 98 -33q62 -45 100 -153 q27 -78 27 -192q0 -43 -4 -92q-12 -150 -65 -230q-52 -80 -118 -110q-46 -20 -92 -21q-20 0 -40 4q-66 13 -105 52q-4 -25 -40 -41t-76 -16q-39 0 -69 18q-25 15 -25 48q0 7 1 14zM204 301q4 -76 44 -116q38 -37 81 -37h8q48 4 89 56t47 163q1 17 1 32q0 100 -34 150 q-36 53 -82 53h-7q-50 -4 -95 -68.5t-51 -183.5q0 -12 -0.5 -24.5t-0.5 -24.5z" />
<glyph unicode="c" horiz-adv-x="690" d="M-18 371q0 145 44 249.5t108 165.5q66 60 140 76q26 6 51 6q47 0 87 -19q64 -29 103 -105q36 -69 37 -177q0 -11 -1 -22q0 -35 -37 -52.5t-80 -18.5h-6q-38 0 -70 12q-34 14 -28 38q1 9 1 18q1 48 -19 76q-22 33 -53.5 24t-61 -70.5t-35.5 -190.5q-1 -19 -1 -37 q-1 -100 29 -154q34 -62 80 -65h3q43 -1 83 51q41 54 47 154q6 25 36 40t64 18t60.5 -7t26.5 -37q-6 -102 -53.5 -178t-115 -118t-143.5 -48q-10 -1 -21 -1q-65 0 -123 33q-66 38 -109 121t-43 218z" />
<glyph unicode="d" horiz-adv-x="743" d="M-18 375q8 168 59 278.5t121 163.5q67 51 140 51h6q77 -2 136 -61v121t-4 82v8q0 34 31 62q35 32 77 44q22 7 41 7q19 1 33 -5q25 -9 25 -40q0 -8 -2 -17q-6 -53 -12 -141t-10.5 -189.5t-8.5 -208t-4 -199.5t2 -164t9 -99q6 -29 -26 -47.5t-72 -20.5h-9q-36 0 -66 14 q-34 16 -34 54q-27 -31 -71 -49.5t-93 -20.5h-9q-45 0 -91 18q-50 20 -88 64q-39 44 -62 116q-19 60 -19 142q0 18 1 37zM158 365q-1 -15 -1 -29q0 -58 14 -98q17 -50 47 -74q29 -23 64 -22h3q37 1 68.5 23.5t53 65.5t21.5 103q3 41 3 77q1 109 -27 167q-36 78 -88 78.5 t-100 -74t-58 -217.5z" />
<glyph unicode="e" horiz-adv-x="745" d="M-18 448q12 114 61 209t133 154q72 50 168 51q16 0 33 -2q86 -8 135 -62q48 -54 62 -130q6 -31 6 -63q0 -46 -12 -95q-20 -82 -73 -142t-137 -88q-37 -12 -80 -13q-54 0 -118 20q8 -82 57 -117q39 -28 84 -28q11 0 21 2q56 8 104.5 55t56.5 129q6 25 34 39t56.5 17t52 -8 t23.5 -38v-8q1 -70 -31 -130q-34 -64 -86 -108q-54 -46 -116 -70q-58 -23 -110 -22h-9q-121 2 -193 70q-73 68 -103 166q-22 71 -22 150q0 30 3 62zM172 430q53 -23 96 -24q26 0 48 8q60 22 86 67q22 36 22 73q0 8 -1 18q-7 46 -54 59q-13 3 -25 3q-23 0 -44 -10 q-32 -16 -56.5 -45.5t-43 -69.5t-28.5 -79z" />
<glyph unicode="f" horiz-adv-x="544" d="M-5 414q-1 10 -1 19q0 28 7 51q9 32 34 30q12 -2 24.5 -2h24.5q2 66 3 130.5t1 119.5v99v69q2 143 56.5 241.5t132 151.5t165.5 61q16 2 32 2q69 0 127 -31q71 -38 110 -122q25 -55 25 -129q0 -40 -7 -86q-4 -25 -42 -33q-22 -5 -45 -5q-18 0 -36 3q-43 6 -75.5 25.5 t-26.5 48.5q4 24 4 44q0 24 -6 39q-13 29 -37.5 35.5t-57 -10t-61.5 -51.5t-49.5 -87t-20.5 -120q-2 -33 -3 -78t-3 -97t-3 -107.5t-1 -104.5q29 2 52.5 5t43.5 7t43 -30.5t33 -77.5q6 -22 6 -41t-6 -36q-8 -29 -45 -29q-7 0 -14 1q-29 4 -57.5 6.5t-57.5 4.5v-238.5 t4 -150.5q2 -41 -32 -57q-30 -14 -64 -14h-13q-42 3 -75 22.5t-25 50.5q4 12 7.5 48t5.5 88t4 115.5t4 133.5q-10 -2 -20.5 -3t-18.5 -6q-18 -6 -30.5 25t-15.5 70z" />
<glyph unicode="g" horiz-adv-x="739" d="M-16 375q2 158 50 260t116 151q66 48 138 48h7q76 -3 135 -54q0 10 -1 20t-1 23q0 38 33 53q29 12 64 12h13q42 -3 74 -24q27 -16 27 -38q0 -5 -2 -11q-6 -20 -11 -70.5t-9.5 -116t-7.5 -141t-5 -148.5t-3 -136.5t-1 -104.5q-4 -143 -51 -234t-115.5 -137t-145.5 -51h-20 q-65 0 -120 26q-62 30 -100 92q-28 45 -28 105q0 20 3 42q4 25 35 33q16 4 34 4q14 0 29 -2q33 -7 57.5 -26.5t18.5 -47.5q-6 -37 8 -60.5t39.5 -32t56.5 0t57.5 39t44 83t17.5 131.5v11q-25 -33 -67 -53.5t-91 -22.5h-10q-44 0 -89 16q-50 19 -91 63t-66 117 q-22 67 -22 165v16zM152 365v-20q0 -96 34 -145q39 -55 90 -61q6 -1 13 -1q43 0 82 34q45 39 57 117v49v-4v14q0 12 1 24.5t1 24.5q-4 123 -46 181q-39 54 -84 54h-8q-50 -5 -93 -72.5t-47 -194.5z" />
<glyph unicode="h" horiz-adv-x="765" d="M0 82q4 43 8 118.5t8 169t6.5 194t3.5 189.5v84.5v76.5q-1 72 -6 106q-2 23 16.5 47.5t47.5 42.5q30 18 62 28q21 7 38 7q10 0 20 -2q26 -6 42 -33q10 -18 11 -47q0 -15 -3 -33q-6 -37 -11 -77t-11.5 -91t-11.5 -116.5t-10 -155.5q29 61 63 114.5t74 91.5q41 38 87 57 q35 14 75 14q13 0 26 -1q51 -12 77.5 -58t34.5 -138q4 -46 4 -106q0 -58 -4 -132q-8 -146 -22 -360q-2 -31 -35 -50.5t-72 -21.5h-8q-34 0 -60 16q-24 15 -23 51q0 7 1 15q10 63 18 135q7 71 10 139q2 51 2 96v30q-1 58 -7 93q-6 37 -37 39h-3q-30 0 -66 -34 q-38 -36 -78 -116.5t-66 -211.5q0 -66 2 -112t6 -68q6 -29 -28 -48.5t-76 -22.5h-12q-35 -1 -63 15q-30 17 -30 56v10z" />
<glyph unicode="i" horiz-adv-x="339" d="M0 717v7q0 32 34 56q38 26 83 29q7 1 13 1q36 0 66 -20q28 -19 29 -61q0 -10 -2 -20q-8 -59 -17 -138t-13.5 -165.5t-4.5 -173.5t11 -160q4 -31 -29 -50.5t-73 -21.5h-8q-35 0 -63 16q-25 15 -25 49q0 7 1 15q8 63 12 151q3 59 3 119q0 30 -1 60q-2 92 -6 174t-10 133z M14 895q0 23 28 41t85 18q45 0 71 -18q28 -19 28 -43q0 -22 -24 -39q-26 -18 -81 -18q-53 0 -80 18t-27 41z" />
<glyph unicode="j" horiz-adv-x="307" d="M-408 -61q6 25 36 33q17 4 34 4q15 0 30 -2q34 -7 57.5 -26.5t17.5 -47.5q-2 -10 -2 -19q0 -39 29 -61q22 -18 48 -18q15 0 30 6q44 14 82 74q36 58 36 167v12q4 90 7 193.5t5 199.5q1 65 1 122v56l-3 132q0 38 33 52q29 12 63 12h14q42 -3 74 -24q25 -16 25 -37 q0 -5 -2 -11q-8 -31 -14.5 -115t-11.5 -184.5t-8 -199.5t-3 -161q-4 -143 -51 -234t-114.5 -137.5t-144.5 -50.5h-18q-66 0 -122 26q-64 30 -102 92q-29 46 -29 107q0 19 3 40zM-6 903.5q0 22.5 27.5 41t82.5 18.5q47 0 73 -19q28 -20 28 -44q0 -20 -24 -38q-26 -18 -83 -18 q-51 0 -77.5 18.5t-26.5 41z" />
<glyph unicode="k" horiz-adv-x="753" d="M0 82q4 41 9 117.5t8 170t5.5 194t3.5 191.5v86.5v76.5q-1 72 -6 106q-2 23 16.5 47.5t47.5 42.5q30 19 62 29q20 6 38 6q10 0 20 -2q26 -6 42 -34q10 -18 10 -48q0 -15 -2 -33q-4 -33 -9 -63.5t-9.5 -68.5t-8.5 -90t-8 -126q47 96 115 148q52 39 121 38q23 0 47 -4 q61 -10 94 -56t38 -110q1 -14 1 -27q-1 -52 -15 -110q-18 -74 -60 -143.5t-103.5 -125.5t-141.5 -83q37 -9 82 -17q40 -7 77 -7h10q42 1 78 11t56 33q20 -18 22 -59v-7q0 -38 -16 -75q-16 -40 -50 -68q-25 -20 -61 -21q-13 0 -26 3q-25 4 -63.5 17.5t-79.5 32t-79 39 t-60 36.5q0 -18 1 -32.5t3 -24.5q1 -5 1 -10q0 -28 -29 -44q-34 -18 -76 -18q-41 0 -75 20q-30 18 -30 53v9zM209 309q72 8 125 55.5t82.5 106.5t35.5 115q1 12 2 22q0 40 -20 60q-13 11 -28 11q-12 1 -26 -7q-32 -16 -64.5 -64.5t-61.5 -125t-45 -173.5z" />
<glyph unicode="l" horiz-adv-x="339" d="M0 78q4 43 9 118.5t8 167t5.5 189.5t3.5 187v68v92q-2 71 -6 106q-2 23 16.5 47t47.5 43q30 20 62 30q19 6 35 7q11 1 23 -3q26 -8 42 -34q10 -17 11 -47q0 -15 -3 -33q-6 -51 -14.5 -132t-15.5 -176.5t-12 -195.5t-8 -188q-2 -66 -2 -121v-36q1 -69 7 -97 q4 -20 -10.5 -37t-39 -25t-53 -8t-52.5 8q-26 8 -42 24q-13 13 -13 35q0 5 1 11z" />
<glyph unicode="m" horiz-adv-x="1040" d="M0 784v7q0 33 34 55q38 24 83 28q7 1 14 1q35 0 65 -20q28 -19 29 -61q0 -10 -2 -20q-2 -20 -4 -42.5t-6 -51.5q43 86 107 142q53 46 123 45q14 0 28 -1q51 -12 76.5 -55t36.5 -131q41 92 98 146q45 43 106 43q16 0 33 -3q51 -10 76 -56t31 -139q2 -36 3 -80 q-1 -69 -7 -159q-10 -146 -23 -360q-2 -31 -36 -50q-35 -20 -73 -22h-7q-34 0 -60 16q-22 14 -22 44q0 9 2 20q10 63 17 136q7 72 10 140q2 40 2 78q0 26 -1 48q-2 58 -8 91q-10 60 -33 60q-14 0 -30 -19q-46 -53 -80 -254q-4 -63 -9.5 -133.5t-9.5 -154.5 q-2 -31 -35.5 -50.5t-72.5 -21.5h-8q-34 0 -60 16q-22 14 -22 44q0 9 2 20q10 63 17 136q7 72 10 140q2 40 2 78q0 26 -1 48q-2 58 -8 91q-7 43 -29 43q-4 0 -9 -1q-30 -9 -62.5 -59t-61 -133t-37.5 -177q0 -47 3.5 -91t7.5 -83q4 -31 -29 -50.5t-73 -21.5h-8q-35 0 -63 16 q-25 15 -25 50q0 7 1 14q8 64 12 162q3 66 3 133q0 35 -1 69q-2 104 -6 195.5t-10 144.5z" />
<glyph unicode="n" horiz-adv-x="753" d="M-2 784q-1 5 -1 9q1 19 15 35q18 20 44 32t58 16q8 1 16 0q22 0 41 -6q26 -10 41 -34q11 -17 10 -41q0 -10 -1 -21q-4 -33 -10 -77t-10 -97q29 59 61.5 110.5t72.5 88.5t86 55q34 14 73 13q13 0 26 -1q51 -12 78 -57t35 -138q4 -46 4 -106q0 -59 -4 -133 q-8 -146 -23 -358q-2 -31 -34.5 -50.5t-71.5 -22.5h-11q-33 -1 -57 15q-24 15 -23 51q0 7 1 15q10 63 17 135q7 71 10 139q2 51 2 96v30q-1 58 -7 93q-6 37 -36 40h-5q-29 -1 -65 -35q-39 -38 -79 -119.5t-65 -214.5h-2q2 -47 4 -91t9 -81q4 -31 -29 -50.5t-73 -21.5h-8 q-35 0 -63 16q-25 15 -25 49q0 7 1 15q8 62 11 160q2 73 2 150v52q-1 104 -5 195.5t-10 144.5z" />
<glyph unicode="o" horiz-adv-x="708" d="M-12 464q12 112 57 204t121 148q66 49 154 49q13 0 26 -1q82 -6 135.5 -49t84 -107.5t37.5 -145.5q2 -28 3 -57q0 -53 -9 -106q-13 -82 -45 -157.5t-79 -131.5q-47 -58 -109 -88q-46 -23 -99 -22q-18 0 -36 2q-96 12 -153.5 83t-79.5 169q-14 62 -13 129q0 40 5 81z M163 396q-3 -30 -3 -58q0 -34 4 -64q8 -58 30.5 -97.5t61.5 -45.5q6 -1 12 0q34 0 63 29q34 35 57 89q24 53 34 119q7 44 7 85q0 19 -2 39q-5 58 -29.5 97.5t-71.5 43.5h-10q-41 0 -71 -31q-34 -35 -54.5 -88.5t-27.5 -117.5z" />
<glyph unicode="p" horiz-adv-x="714" d="M-20 -121q6 37 11 107.5t8 158.5t6 184.5t4 186.5q1 45 1 86.5t-1 78.5l-3 122q0 38 33 52q29 13 63 13q7 0 14 -1q42 -3 74.5 -23.5t24.5 -48.5q-4 -10 -5 -24t-5 -30q68 70 143 85q20 5 39 5q53 0 99 -33q63 -44 99 -152q25 -75 25 -186q0 -46 -4 -98 q-12 -154 -67.5 -235.5t-124.5 -108.5q-41 -17 -82 -17q-27 0 -52 7q-67 17 -104 60q0 -78 1 -144.5t3 -111.5q1 -7 1 -14q0 -34 -27 -42q-13 -4 -28 -4q-21 0 -46 8q-41 15 -74 48q-27 26 -27 58q0 6 1 13zM180 303q4 -76 45 -116q38 -37 81 -37h8q48 4 89.5 55t47.5 162 q1 17 1 32q0 101 -34 151q-36 53 -81 53h-8q-50 -5 -95.5 -69.5t-51.5 -183.5q0 -12 -1 -23.5t-1 -23.5z" />
<glyph unicode="q" horiz-adv-x="729" d="M-20 375q2 158 51 261t117 152q64 47 135 47q5 0 10 -1q76 -3 135 -56q12 33 49 55.5t73 29.5q13 2 24 2q21 0 38 -8q19 -10 19 -36q0 -8 -2 -18q-6 -53 -12.5 -141.5t-10.5 -189.5t-7 -207.5t-3 -200t2 -164t8 -99.5t-27.5 -47t-75.5 -19h-5q-39 0 -71 17q-30 15 -30 50 v8q4 41 9.5 109.5t9.5 154.5q-25 -33 -67 -52.5t-91 -22.5h-14q-42 0 -85 15q-50 19 -91 63t-66 117q-22 64 -22 158v23zM147 365v-15q0 -64 15 -107q18 -48 47 -74t63 -30q7 -1 14 -1q27 0 52 14q31 16 54.5 52t31.5 87v49v-4q0 8 1 15t1 18v4v12q0 124 -40 185 q-41 63 -90 63h-3q-51 -2 -96.5 -69.5t-49.5 -198.5z" />
<glyph unicode="r" horiz-adv-x="741" d="M2 80q10 63 13 155.5t3 187.5t-4 181t-10 139q-2 23 16.5 47.5t47 44t61.5 28.5q20 5 37 5q12 0 22 -2q26 -6 40 -32q8 -15 8 -39q0 -18 -5 -41q-4 -16 -5 -32.5t-5 -33.5q53 98 128 148q52 35 111 35q27 0 56 -7q51 -14 81 -62t37 -114q3 -24 2 -48q0 -44 -8 -93 q-12 -76 -47.5 -145.5t-92 -124t-134.5 -78.5q33 -5 68 -9q18 -2 34 -2q18 0 34 2q32 4 59 12.5t43 26.5q21 -19 21 -64q0 -39 -15 -76q-16 -41 -51 -69q-26 -21 -61 -21q-12 0 -25 3q-25 4 -60.5 18.5t-73.5 33t-74 39t-58 36.5q2 -16 4 -31.5t4 -25.5q6 -31 -28 -50.5 t-75 -21.5h-8q-36 0 -66 16q-26 14 -26 47q0 8 2 17zM193 326q28 -6 54 -6q52 0 93 24q61 36 92 94q29 54 29 111v7q-2 60 -39 87q-17 10 -35 10q-13 0 -27 -5q-34 -13 -67 -53t-59.5 -105.5t-40.5 -155.5v-8z" />
<glyph unicode="s" horiz-adv-x="688" d="M0 328q4 39 31.5 50t60.5 7t59.5 -20.5t28.5 -32.5v-20q0 -86 31 -128q35 -48 78 -48h2q42 0 79 39q38 40 38 114v5q0 40 -29 56q-31 16 -76 21.5t-97 7.5t-98 19q-44 18 -74 58q-28 37 -28 112v10q2 78 31 132t75 87.5t102 49t112 18.5q17 1 34 1q38 0 73 -5 q50 -7 83 -19q40 -16 56 -60q14 -37 13 -74v-14q-3 -45 -19.5 -77.5t-41.5 -26.5q-35 8 -90 20q-54 13 -108 18q-21 2 -40 2q-30 0 -55 -5q-41 -8 -47 -41q-6 -27 21.5 -35t72 -11t97.5 -7.5t98 -25t75 -64.5q27 -40 27 -111v-15q-4 -111 -48 -181q-43 -72 -107 -104 q-58 -30 -126 -29h-12q-74 3 -137 41t-104 109.5t-41 176.5z" />
<glyph unicode="t" horiz-adv-x="342" d="M-68 1008q-4 14 -4 27q0 15 4 29q8 26 39 28t39 3t17 1q0 8 -1 25.5t-1 38v39v28.5q-5 31 27 38q10 2 21 2q24 -1 51 -11q40 -16 73.5 -55.5t38.5 -104.5h71q39 0 43 -28q1 -6 1 -12q0 -22 -12 -48q-15 -32 -41 -60t-44 -28h-23q-10 -150 -15 -284t-7 -247 q-1 -56 -1 -106.5t1 -95.5q2 -89 6 -146v-11q1 -46 -29 -68q-34 -24 -76 -23.5t-77 18.5t-31 47q8 49 14.5 147.5t10.5 223.5t6 266t2 277q-4 -4 -9.5 -3.5t-25.5 5.5q-25 4 -42.5 31t-25.5 57z" />
<glyph unicode="u" horiz-adv-x="714" d="M-8 450q2 146 43 343q6 29 42 48q37 19 75 21h7q34 0 58 -16q18 -12 18 -38q0 -12 -4 -26q-55 -209 -64 -344q-3 -43 -3 -79q0 -79 14 -129q20 -72 58 -90q16 -7 31 -7q23 -1 46 15q39 26 69 90.5t32 156.5q0 61 -1 122t-4 112t-8.5 90.5t-9.5 62.5q-4 25 13.5 45.5 t44 32.5t58.5 14q7 1 13 1q24 1 44 -7q26 -10 42 -32q11 -16 10 -39q0 -11 -2 -23q-8 -59 -17 -148t-14 -187.5t-5 -196t10 -170.5q4 -29 -27 -48.5t-69 -22.5h-13q-31 1 -58 13q-32 16 -30 56q-29 -34 -71 -54q-34 -16 -78 -17q-9 0 -19 1q-74 4 -127 55q-54 51 -80 149 q-25 92 -24 225v21z" />
<glyph unicode="v" horiz-adv-x="669" d="M-14 450q2 146 43 343q6 31 40.5 50t73.5 21h8q34 0 59 -16q19 -13 19 -38q0 -12 -4 -26q-43 -164 -59 -284q-12 -92 -12 -161q0 -22 1 -41q5 -81 28.5 -122t58.5 -45q9 -2 17 -2q37 0 63 38q32 46 46 133q12 76 11 179v31q-2 123 -17 270q2 25 30 47.5t60 32.5 q19 6 38 6q13 0 25 -3q30 -7 34 -44q9 -114 8 -211q1 -104 -9 -188q-20 -160 -66 -255t-116 -133q-60 -33 -129 -33q-11 0 -22 1q-72 6 -125 56q-54 50 -80 148q-25 92 -24 225v21z" />
<glyph unicode="w" horiz-adv-x="966" d="M-10 450q2 146 41 343q6 31 46 50t83 21h8q38 0 66 -16q23 -13 23 -41q0 -10 -3 -23q-83 -324 -83 -483q0 -162 69 -170q6 -1 12 -1q49 0 84 63q-31 86 -31 180q0 13 1 27q5 108 44 194q12 27 36 41t50.5 14t49 -13t34.5 -44q8 -33 14 -77q4 -32 4 -68q0 -13 -1 -27 q-2 -51 -14.5 -105.5t-37.5 -105.5q20 -72 68 -78q9 -2 17 -2q38 0 58 38q26 46 34 133q6 52 6 116q0 44 -2 94q-6 123 -21 270q6 39 38 62q33 22 69 26q9 1 17 1q26 0 50 -9q31 -12 35 -41q7 -107 7 -199q-1 -112 -11 -200q-20 -160 -64 -255t-112 -133q-58 -33 -126 -33 q-11 0 -22 1q-76 6 -127 61q-39 -37 -85 -51q-36 -11 -76 -11q-11 0 -23 1q-72 6 -123 56q-52 50 -78 148q-25 92 -24 225v21z" />
<glyph unicode="x" horiz-adv-x="718" d="M-1 743q3 27 19.5 51.5t42 42t53 21.5t53.5 -9t44 -52q18 -41 44 -94.5t58 -112.5q35 63 64 117.5t47 95.5q29 59 73 64q7 1 15 1q36 0 66 -20q36 -24 52 -66q6 -16 7 -30q0 -23 -16 -43q-35 -45 -92.5 -124t-116.5 -171q45 -78 92 -152t92 -127q20 -25 3 -59t-50 -56 q-30 -20 -65 -20h-6q-38 2 -58 47q-18 41 -48 94.5t-65 112.5q-37 -59 -66.5 -112.5t-50.5 -94.5q-22 -47 -60 -49h-7q-33 0 -63 18q-32 20 -48 54q-6 14 -7 27q0 18 13 34q45 53 94.5 127t96.5 152q-57 90 -109.5 166.5t-87.5 119.5q-13 17 -13 39v8z" />
<glyph unicode="y" horiz-adv-x="698" d="M-11 450q3 146 42 343q6 31 43 50t76 20h4q37 0 65 -19q21 -13 21 -42q0 -12 -4 -26q-53 -207 -62 -342q-2 -44 -2 -82q0 -77 12 -126q17 -74 52 -94q15 -8 31 -8q20 0 40 12q37 24 66.5 82t36.5 140q2 70 2 139.5v130v108.5t-2 77v8q0 35 32 49q28 14 60 14q8 0 16 -1 q41 -4 74 -23q26 -16 26 -38q0 -6 -2 -13q-6 -20 -10 -69.5t-8 -116t-7 -141t-5 -147.5t-4 -136.5t-2 -104.5q-4 -143 -51.5 -234t-116 -137.5t-145.5 -51.5q-11 -1 -21 -1q-65 0 -118 27q-62 31 -100 92q-29 46 -29 108q0 19 3 40q4 25 35 31.5t63.5 0.5t57 -25.5 t18.5 -47.5q-2 -10 -2 -19q0 -39 28 -60q22 -17 50 -17q14 0 29 4q45 14 83 74q35 58 35 167v12q2 8 2 15.5v13.5q-29 -41 -73 -66q-39 -21 -91 -21q-9 0 -18 1q-72 4 -125 55t-80 149q-25 89 -25 217v29z" />
<glyph unicode="z" horiz-adv-x="735" d="M1 70q-1 11 -1 23q0 19 3 39q5 32 17 50q6 8 29 38t54.5 71t70.5 90l78 98t76 94t65 78q-82 -6 -162.5 -22.5t-132.5 -38.5q-16 2 -32.5 24.5t-28.5 55.5q-11 32 -19 69q-7 33 -7 61v7q1 31 11 48q8 13 22 13q5 0 11 -2q41 -12 107 -17q55 -4 115 -4h24q74 1 146.5 6 t125.5 15h3q10 0 20 -11q12 -13 19.5 -36.5t10.5 -51.5t1 -52q2 -8 -4 -27q-2 -14 -13 -26q-27 -49 -83 -118t-117.5 -137.5t-117.5 -130t-83 -98.5q25 -1 50 -1q63 0 127 7q92 10 194 41q33 7 43 -25q7 -22 7 -48q0 -13 -2 -28q-5 -44 -22.5 -83t-40.5 -41q-37 6 -105 9 t-144 4h-38q-56 0 -109 -2q-71 -3 -112 -9q-27 -4 -40 17t-16 51z" />
<glyph unicode="{" horiz-adv-x="800" d="M97 748.5q1 17.5 12.5 31t31.5 11.5q53 -2 59.5 15t-0.5 61t-10.5 120t31.5 193q31 102 85 160.5t113.5 79t118 4t98.5 -66.5t54.5 -132t-12.5 -191q-14 -37 -44 -41t-60.5 8.5t-53 33t-22.5 32.5q23 70 17.5 110t-25 51t-48 -5.5t-53 -62.5t-38 -120.5t-1.5 -177.5 q12 -100 -43 -135q23 -23 28 -56.5t-9 -84.5q-29 -98 -28 -174t16.5 -125t41 -70.5t47 -14.5t32.5 46t1 110q2 12 27.5 28.5t58.5 24t61.5 -2t34.5 -48.5q8 -113 -20.5 -190.5t-76.5 -119.5t-108.5 -48t-115.5 23.5t-98 97t-56 172.5q-14 121 2.5 195.5t30.5 117.5t11 61.5 t-54 28.5q-18 2 -27.5 17.5t-8.5 33z" />
<glyph unicode="|" horiz-adv-x="561" d="M92 82q4 43 8 140t7.5 221t6.5 259.5t3 256t-1 211.5t-5 128q-2 23 16 48.5t47 46t61.5 31t60.5 3t42 -35t8 -82.5q-8 -51 -15 -154.5t-15.5 -230.5t-14.5 -264.5t-8 -257t-1 -209t7 -119.5q8 -35 -25.5 -54.5t-75.5 -19.5t-77 19.5t-29 62.5z" />
<glyph unicode="}" horiz-adv-x="800" d="M140.5 193.5q-19.5 80.5 2.5 191.5q12 37 42 43t60.5 -4t54.5 -29.5t24 -32.5q-20 -70 -13.5 -109.5t27 -51t48.5 8t49.5 66t30.5 121t-7 176.5q-6 53 3 85t34 55q-53 39 -29 137q23 100 19.5 176t-22 125t-45 69.5t-48 11.5t-30.5 -49t5 -112q-2 -12 -26.5 -29.5 t-56.5 -25.5t-61.5 0t-37.5 45q-14 113 9.5 191.5t69.5 123.5t105.5 54.5t116.5 -17.5t103.5 -92.5t64.5 -169.5q20 -121 9 -195.5t-23.5 -117.5t-8.5 -60.5t58 -21.5q20 0 29.5 -15.5t7 -32t-12.5 -30.5t-28 -14q-35 -2 -47.5 -10.5t-12.5 -27t7 -48t12.5 -73.5t3.5 -103.5 t-21 -137.5q-27 -102 -77 -164.5t-108.5 -86t-116.5 -10.5t-101 61.5t-62.5 129z" />
<glyph unicode="&#xa1;" horiz-adv-x="530" d="M88 -692q8 51 15.5 142.5t14.5 201t13.5 225t8.5 218t2 179.5t-6 107q-6 29 26.5 43.5t72.5 17.5t74.5 -6.5t32.5 -29.5q-2 -43 -6 -131t-7 -196.5t-6 -227.5t-4 -225.5t0 -188.5t5 -119q2 -25 -17.5 -50t-48 -44.5t-61.5 -30t-59.5 -4t-41 35t-8.5 83.5zM135 501 q1 20 3 41.5t6 42t6 28.5q10 6 38.5 7t61.5 1t60.5 -2t36.5 -6q0 -18 2 -60t2 -71q-4 -4 -35 -9.5t-68 -7.5t-69.5 -1t-42.5 7q-2 10 -1 30z" />
<glyph unicode="&#xa2;" horiz-adv-x="593" d="M94 805q0 109 48 169t106 75v8q2 12 14 22.5t24.5 13.5t19.5 -6.5t1 -35.5v-2q41 -10 69.5 -48t26.5 -110q0 -16 -18 -24.5t-39.5 -9.5t-39 5t-13.5 19q2 29 -12 47q-12 -66 -23.5 -131.5t-19.5 -114.5q23 0 43 25.5t24 76.5q2 12 17.5 19.5t32 9.5t29.5 -3t13 -19 q-2 -41 -17 -73t-39 -53.5t-52.5 -32.5t-57.5 -11q-2 -4 -2 -11q-2 -18 -11 -25t-20.5 -5t-18.5 9t-5 17q4 10 6 27q-37 16 -61.5 58t-24.5 114zM184 809q-4 -59 13 -90q10 49 18 106.5t16 108.5q-16 -10 -29.5 -41t-17.5 -84z" />
<glyph unicode="&#xa4;" horiz-adv-x="933" d="M203 954q12 12 37.5 40t44.5 46q8 0 35.5 -21.5t56.5 -45.5q72 29 147 -4q23 25 49.5 48t36.5 27q10 -10 39 -36.5t47 -44.5q0 -8 -22.5 -36t-46.5 -57q35 -76 6 -153q23 -23 43 -46.5t24 -31.5q-12 -12 -37.5 -40t-44.5 -46q-8 -2 -32.5 17.5t-50.5 43.5q-80 -35 -160 4 q-23 -25 -48.5 -46t-33.5 -25q-10 12 -39 38.5t-47 45.5q0 6 21.5 33.5t47.5 56.5q-35 76 -2 151q-25 25 -46 49.5t-25 32.5zM389 793q1 -27 19 -45q20 -20 46.5 -20.5t45.5 17.5q18 18 17 45t-19 46q-20 20 -47 20t-45 -18t-17 -45z" />
<glyph unicode="&#xa7;" horiz-adv-x="718" d="M162 428q33 14 41 61.5t7 110t-3 129t9 118.5t44 80.5t102 16.5q-2 57 0.5 112.5t18.5 95.5t50.5 58t100.5 2q-29 -14 -34.5 -59t-4.5 -103.5t3 -121t-10.5 -114.5t-45 -85t-100.5 -31q2 -53 -1 -105t-20.5 -91t-54.5 -60.5t-102 -13.5zM338 844q-2 -57 2 -125 q23 29 25 86t0 123q-25 -27 -27 -84z" />
<glyph unicode="&#xa8;" horiz-adv-x="614" d="M172 948q0 23 17 37t44 14q25 0 43.5 -14t18.5 -37t-18.5 -37t-43.5 -14q-27 0 -44 14.5t-17 36.5zM317 948q0 23 18.5 37t43.5 14q27 0 44 -14t17 -37t-17 -37t-44 -14q-25 0 -43.5 14.5t-18.5 36.5z" />
<glyph unicode="&#xa9;" horiz-adv-x="2373" d="M303 627q8 57 32.5 111.5t63.5 98.5t91.5 72.5t115.5 36.5q-8 4 -30.5 15.5t-45 36t-39 63.5t-10.5 96q10 92 64.5 136t118.5 44q20 0 49.5 -7t56.5 -29.5t43 -62.5t14 -108q33 2 93.5 15.5t126 29t123 31t83.5 21.5q76 20 143.5 28.5t133.5 8.5q119 0 209 -38t145 -116 l82 -80q59 -59 88 -151.5t19 -225.5q-6 -80 -30 -139t-60.5 -106.5t-84 -83t-102.5 -66.5q-6 -29 -17.5 -58.5t-23.5 -58.5l14 -12q33 -31 58.5 -82t41 -109.5t17.5 -118t-16 -108.5q-25 31 -47 58q-18 23 -36 44t-24 31q-33 43 -63.5 77t-59.5 67q-29 -25 -56.5 -35 t-53.5 -14q-33 -6 -72 1t-72.5 30.5t-56 65.5t-20.5 107q-31 25 -91.5 42.5t-131 24.5t-139 3t-113.5 -23q-45 -98 -121 -161.5t-160 -85.5q-31 -8 -70 -3t-72.5 25.5t-56 59t-20.5 100.5q0 33 15.5 61.5t37 53t45 42t39.5 27.5q-57 14 -98 51q-35 33 -59.5 95.5 t-10.5 171.5zM330 604q-10 -102 30.5 -156.5t99 -65.5t118 17.5t84.5 89.5q-4 -61 -15 -106q6 4 13.5 5t13.5 3q12 4 25.5 6t25.5 6q2 14 3 27.5t1 28.5q0 -8 8 -17.5t23 -9.5q27 0 47 24.5t33.5 68.5t20.5 103.5t7 131.5q16 4 39 8t56 12q-4 -20 -11.5 -52t-14.5 -64.5 t-13 -60.5t-9 -40q-12 -53 -3.5 -81.5t27.5 -33t44 13t45 58.5q6 -23 18.5 -40t34.5 -25q33 -10 63 3t55.5 38.5t46 55.5t32.5 52q-2 -43 8 -82t31.5 -68.5t57.5 -47t87 -15.5q33 2 58.5 13.5t44 26.5t29 31.5t14.5 29.5q0 -33 -6 -64q37 20 75 49q4 37 9.5 80t8.5 81 t3 65.5t-4 35.5q-20 14 -38 7t-33 -23t-28.5 -33.5t-25.5 -21.5q25 -18 27.5 -57.5t-11.5 -77t-44 -67.5t-71 -32q-43 0 -65.5 25.5t-25.5 62.5t11.5 81t45 82t78 61.5t108.5 23.5q35 0 55.5 25.5t17.5 56.5t-35 54.5t-99 21.5q-53 -4 -96.5 -24.5t-77 -53.5t-56 -73 t-35.5 -79q-18 -35 -42.5 -73.5t-51 -69.5t-50.5 -49.5t-38 -13.5q-10 2 -14 15t-4 34q33 12 63.5 40.5t55 64.5t42 74t23.5 68q10 49 -4 79t-42 37t-63.5 -11.5t-70.5 -67.5q-8 -12 -20.5 -36.5t-25 -57.5t-22.5 -68.5t-12 -70.5q-10 -43 -23.5 -67.5t-24.5 -31t-17.5 7 t1.5 46.5q2 12 11.5 46t19.5 73t19.5 74.5t13.5 52.5q23 10 36 28.5t17 34.5q4 25 -5 42t-23.5 21.5t-31 -7t-26.5 -42.5q-37 -10 -80 -11t-67 7q-49 18 -50.5 -5t11.5 -111q6 -43 6 -91.5t-5 -88.5t-15.5 -65.5t-22.5 -25.5q-16 0 -18.5 35t1 79t7.5 86t0 58 q-23 10 -40.5 2t-31.5 -23.5t-27.5 -30.5t-27.5 -19q20 -20 21 -58.5t-13 -76t-42 -66.5t-67 -31q-43 -2 -66.5 23.5t-28.5 63.5t8.5 82t45 81t79.5 61.5t114 22.5q35 0 59.5 26.5t24.5 58.5t-30 55.5t-101 15.5q-68 -6 -122 -37t-92 -77t-59.5 -100.5t-27.5 -105.5z M357 129q-1 -23 12.5 -38t48.5 -15q78 4 148.5 56t115.5 140q-23 -4 -44.5 -10t-41.5 -12q-41 -68 -88 -96.5t-70 -18.5q-16 8 -12 22.5t19.5 31t37 32t43.5 27.5q92 53 250 68.5t336 -13.5q57 -8 112.5 -21.5t112.5 -37.5q23 35 54.5 61.5t64.5 44.5q-139 55 -326 68 q-88 4 -170.5 -1t-162.5 -18q-121 -16 -227.5 -63t-170.5 -119q-16 -18 -28.5 -41.5t-13.5 -46.5zM504 1157q-6 -104 74.5 -159.5t232.5 -32.5q115 16 236.5 39.5t283.5 56.5q143 29 241.5 10.5t157 -67t81 -117t18.5 -141t-32 -141t-71 -113.5l-2 -3l-2 -2q-16 -16 -34 -28 q-47 -37 -98.5 -61.5t-80.5 -41.5q-45 -23 -92 -57.5t-74 -85.5q-14 -33 -13 -61.5t24 -51.5q29 -35 70.5 -27.5t86.5 42.5q-14 10 -26 19t-25 18q-23 -18 -41 -25.5t-30 2.5q-20 12 0 51q20 41 62 81t95 69q12 8 39 20t60 29q29 16 56.5 30.5t45.5 28.5q78 53 130 132 t60 202q12 162 -33.5 264.5t-137 152.5t-220.5 52t-284 -37q-29 -8 -77 -19t-102.5 -24.5t-107.5 -25t-92 -19.5q-49 -10 -83 -9t-54.5 9t-29.5 20.5t-9 26.5q0 18 12 29.5t27.5 15.5t32 -1t24.5 -17q-6 66 -52 96.5t-99.5 26.5t-97.5 -43t-50 -113zM566 503.5 q-1 -16.5 5 -28.5q18 14 31.5 38t20.5 50v2q-14 0 -26.5 -9t-21 -22.5t-9.5 -30zM705 1014v4q2 0 2 4q2 0 2 1t2 1h6l-4 -2q-2 0 -2 -2q-2 0 -2 -4v-2q0 -2 2 -2q0 -2 2 -2q4 0 4 2q2 2 2 3t2 3q0 6 2 10q0 6 2 10q0 6 2 11q0 6 2 8q0 4 4 4l4 2h2h-2h2q-2 -2 -2 -4v-6 q0 -2 1 -3t1 -3t1 -3.5t1 -3.5v-6v-4l4 4q0 4 1.5 5t1.5 3q2 2 2 4.5t2 4.5t2 4t2 4q4 4 6 4l4 2h4l-2 -2q0 -2 -1 -2t-1 -2l-4 -8q0 -6 -2 -11v-10q-2 -4 -2 -10q0 -2 -1 -4t-1 -4l-4 -4q0 -2 -2 -2h-2l2 4q2 0 2 4q0 2 1 4t1 4v10q0 6 2 8v11q-2 -2 -2 -4v-5l-4 -8l-7 -6 q-2 0 -2 -1t-2 -1h-2l2 4l-2 4q0 2 -1 3t-1 3t-1 3t-1 4v2q-2 -2 -2 -5v-4q0 -4 -1 -5t-1 -5q0 -2 -1 -4t-1 -4q-2 -2 -2 -4t-2 -4l-4 -4q-2 -2 -6 -2t-4 2zM709 322q4 4 6 4v2h2q0 2 1 3t1 5v8q2 6 2 11v10q0 2 -1 4t-1 4v2h8q4 -4 4 -6v-9l-6 -12v-4q-2 -2 -2 -4v-4 q0 -2 -2 -4q2 0 4 2l4 4q0 4 2 6l2 2h-2l-2 2v2q0 2 1 2t1 2l4 2l2 -2v-4h4l4 4q2 0 2.5 1t2.5 1q0 2 2 4q0 2 2 2l2 -2v-2v-4q-2 0 -2 -2q-2 0 -2 -4q0 -2 -2 -4v-4q-2 -2 -2 -4v-2l4 4q0 2 1 3t1 3q4 4 4 8l2 2q0 2 6 6q2 2 10 7h2v-2q0 -2 -2 -5v-8q-2 -2 -2 -3t-2 -3 q0 -4 -4 -4h-4h-2q0 -2 1 -2t1 -2h2h4l4 4l4 4l2 4q0 2 1 4t1 4l6 7q2 2 11 6h2l2 -2l-2 -2v-2q0 -6 -2 -9q0 -4 -1 -5t-1 -3q-2 -2 -3 -2t-3 -2h-5l2 -2q0 -2 3 -2l4 2l2 2l4 4l4 4q0 4 2 4v4h2q0 -2 -2 -4l-2 -2q0 -2 -1 -3t-1 -3l-4 -4l-4 -4h-7h-4q0 2 -1 2t-1 2t-2 4 l-2 -2q0 -4 -4 -4q0 -4 -4 -4q0 -2 -4 -2q-2 0 -4 2l-4 4v4q-2 -2 -2 -4q-2 -4 -6 -8h-5v6v2v6h-2q-2 0 -4 -2h-6l-2 -4q0 -2 -1 -3t-1 -3l-4 -4q-2 0 -4 -2v-2l-2 -2q0 -2 -2 -4q0 -2 -1 -2.5t-1 -2.5q-2 0 -4 -2q-2 2 -2 7zM711 317l2 2l2 5q0 2 2 2q0 -2 -2 -2t-4 -2v-5z M725 350v2q0 2 1 2t1 2v6l2 3v2l-2 2v2q2 -2 2 -4v-5v-6q-2 -2 -2 -4t-2 -2zM762 342h4l4 4l2 4v8l-2 -2q-2 0 -2 -2l-4 -4q0 -2 -1 -2t-1 -2v-4zM764 1018v6q0 2 1 3t1 5l6 6q4 2 5 3t5 3h2v-2v-2v-2q0 -4 -1 -6t-1 -4l-4 -8q-2 -2 -3 -2t-3 -2h-4l2 -2v-2h4l4 4l4 4l4 4 q0 6 2 8q0 2 7 8q2 2 10 7q2 0 2 6v6v2q-2 2 -4 2l4 2h4q2 -2 2 -4q0 -6 -2 -10v-7q-2 -2 -2 -6l-4 -8q0 -2 -1 -3t-1 -3q0 -4 -2 -6v-2v-2l2 4q4 0 4 6q4 4 4 6v2q0 2 1 3t1 3v6q0 2 2 3h2q2 0 2 -3q2 -2 0 -4v-2q0 -2 -1 -2t-1 -2q0 -4 -2 -6v-4q-2 -2 -2 -4v-2 q-2 -2 0 -2l2 2l4 8q2 2 2 3t2 3v8q2 2 2 4t2 3h2l2 -3v-4l-2 -2v-4q-2 -2 -2 -4t-2 -4v-2q2 4 2 5t2 5q2 2 2 3t3 3q2 2 2 3t2 4l4 4h4l2 -2v-5q-2 -2 -2 -6q0 -2 -1 -2t-1 -2q0 -4 -2 -6q0 -2 -2 -4v-4v-2l2 4q2 2 2 3t2 3v2h2q0 6 2 8t3 4t3 5q2 2 4 3t6 5q2 0 2 -2v-2 v-2q0 -2 -2 -2q0 -2 2 -3v-4l-2 -4q0 -2 -1 -3t-1 -3t-2 -4v-4v-2l2 4q4 4 4 6q2 4 3 5t3 5v2v-2l-6 -12l-4 -8q-4 -4 -4 0q-4 0 0 6l-2 -2l-4 -4l-2 -2h-2h-2q0 2 -1 3t-1 3v2q0 -2 -4 -6q0 -2 -1 -2t-1 -2h-4v2q-4 0 0 4v2v4q2 0 2 4q0 2 2 4v4h-2q-2 0 -2 -1t-2 -1 q0 -2 -5 -6q0 -2 -2 -4q0 -2 -1 -3t-1 -3t-2 -4v-4l-2 2v6v4v2q0 -2 -1 -3t-1 -3q-2 -4 -6 -8h-4v6q0 2 2 4v4q-2 -2 -2 -3t-2 -3l-4 -8q-2 -2 -4 -2v6l-2 -2q-2 0 -2 -2q-2 0 -2 -2h-5l-2 2v4q-2 2 -2 4v-2l-4 -4q-4 -4 -6 -4q0 -2 -4 -2q-2 0 -2 1t-2 1q0 2 -1 3t-1 3z M768 1018h4l2 2t2 3t2 3v8l-2 -2q-2 0 -2 -2q-4 0 -4 -4l-2 -4v-4zM786 346h5l2 2t2 3t2 3v8q0 -2 -2 -2t-4 -2t-3 -4q-2 -2 -2 -4v-4zM788 1014h3h2l2 2l2 2l2 2v2q0 4 2 4q0 4 2 6v6q-4 -2 -8 -6l-4 -4q0 -2 -1.5 -3t-1.5 -3v-4v-4zM815 330q-6 0 0 6q0 2 4 6h2q2 2 2 4 t2 4q0 6 2 10q0 8 1 14.5t1 10.5q0 2 -1 4t-1 4v2h9q4 -4 4 -6v-12q-2 -4 -4 -6t-5 -6v-5q-2 -2 -2 -6v-4q-2 -2 -2 -4l4 4l3 4l4 4q0 4 2 7q2 4 6 8q2 2 10 6h2v-2v-2v-2l2 -2q2 0 2 -4q0 -2 -1 -2t-1 -3v-2q2 0 4 2l2 3v2h-2v4l2 4q2 0 4 2l2 -4v-4h5q2 0 2 1t2 1l4 4l4 4 v2h2v-2v-4v-2q-2 -2 -2 -4h-2v-4q-2 -2 -2 -7q-2 -2 -2 -4t-1 -2t-1 -2v-2l4 4q0 2 4 6q2 2 2 4.5t2 6.5h2q-4 -10 -6 -13q-2 -4 -6 -8h-4v6v4l2 4v3h-7h-6q-2 0 -2 -1.5t-2 -1.5l-4 -4l-2 -4l-4 -4l-4 -4q-2 0 -3 -1t-3 -1l-4 4l-2 4v2q-2 0 -2 -1t-2 -1q0 -2 -1.5 -3 t-1.5 -3q-2 0 -4 -2v-2h-2v-2q-2 -2 -2 -4l-4 -4q-2 0 -4 -2zM815 332l4 2v4q0 2 2 2l-2 -2q-2 0 -2 -2q-2 -2 -2 -4zM815 1049l2 2h2l2 -2v-5l-2 5h-4zM834 369v2q0 2 1 2t1 2q2 2 2 6v6q0 2 -2 4l2 -2v-4l-2 -2v-2v-6q-2 -2 -2 -4v-2zM842 350q2 -2 2 -4q2 0 4 2q2 0 2 1 t2 1q0 2 1 2t1 2l2 2v2l-4 -2q0 2 -1 3t-1 3v7l-2 -2q-4 -4 -4 -7q-2 -2 -2 -6v-4zM850 1018l2 2q2 0 2 1t2 1q0 2 1 2t1 2q2 0 2 2v4v4q2 0 2 4v2q0 -2 -2 -2t-4 -2t-2 -3t-2 -3l-2 -4v-4v-4v-2zM852 360l2 -2h2h2q0 2 1 3.5t1 3.5q0 4 -2 4q0 2 -2 2l-2 -2v-2q-2 0 -2 -2 v-5zM874 240l3 -2q2 -2 4 -2t4 2l2 2l4 -2h4l4 4l2 4q2 2 2 3t2 3h2l2 2q2 0 2 2v-2v-6v-4q2 -2 2 -4h5h4q0 2 2 2l4 -2l4 2l4 2q0 2 1 2t1 2q2 2 2 3t2 3h2q2 0 4 2v2v-2v-6v-4q0 -2 1 -2t1 -2h4h2q2 0 5 2l4 -2h4l4 2q0 2 1 3t1 3l2 2l2 2q2 0 3 1t3 1q2 2 2 3t2 3v2 q-2 0 -2 -2v-2q-2 0 -2 -2q-2 0 -2 -2h-2v2q0 2 1 2t1 2t1 3t1 3v4l-4 4h-4q-4 0 -4 -4l-4 -4v-6v-4l4 -4h2l-2 -4q0 -2 -1 -2t-1 -2l-2 -2q-2 0 -4 -2l-2 2v2l2 2q0 4 2 4v4v2q2 2 0 6q0 2 -4 2l-5 -2q0 -2 -1 -3t-1 -3v-8q0 -2 1 -3t1 -3h-2l-2 -2q-2 0 -2 6t2 10q0 2 1 3 t1 3v6q0 4 -2 4l-2 2h-2v-4v-4q0 -4 -2 -6v-2v-2q-2 0 -2 -2h-2v2q0 2 2 4v6v4q0 2 -1 2t-1 2h-6l-4 -4q0 -2 -1 -3t-1 -3v-4v-6q2 -2 4 -2l2 -2l-2 -4l-2 -2q0 -2 -1 -2t-1 -2h-4h-2v2l2 4l2 2v4v2v6q-2 2 -4 2t-4 -2t-2 -6v-8q0 -2 2 -4l-2 -2l-2 -2q-2 0 -3 2v4q0 6 3 10 v8q2 2 2 6l-2 4h-7l2 -4v-4q-2 -2 -2 -6v-2q0 -2 -2 -2l-2 -2h-2q2 0 2 2t2 4v6v4l-4 4q-4 0 -4 -2q-2 0 -4 -2t-2 -6q-2 -2 -2 -6q0 -2 1 -2t1 -2l4 -4h2l-2 -4l-2 -4l-2 -2q-2 0 -2 -1t-2 -1v2q-2 0 -2 2l2 2q0 4 2 4v4v2q0 6 -2 6q0 2 -2 2t-4 -2t-2 -6v-8v-4q0 -2 2 -2 l-2 -2h-2l-2 4q0 8 2 12v6v6q0 4 -2 4h-5v-4v-4v-6v-4v-8v-4zM887 244v4v6q0 4 2 4l2 -2v-2v-2v-2q0 -2 -1 -2t-1 -2zM893 1044q0 6 2 9q0 4 1 5t1 5q4 4 6 8l6 6l6 6q2 0 3.5 1t5.5 1h6l4 -4v-6v-6q0 -4 -2 -6q0 -2 -2 -2h-2l2 2v6v4v6l-4 4h-4q-2 0 -7 -4l-6 -6 q-4 -8 -4 -10q-4 -8 -4 -10t-1 -4t-1 -7q0 -2 1 -4t1 -4t4 -6q2 0 3 -1t3 -1q2 2 7 2q4 0 4 4q4 0 4 4l4 4l2 4q0 2 2 5q-2 0 -3 -1t-3 -1t-3 -1.5t-3 -1.5h-7h-4v5l2 2h2q0 -2 5 -2l4 2h6q2 0 4 2h4v-2v-2q0 -2 -1 -3.5t-1 -3.5q-2 -2 -3 -4t-3 -4t-4 -3t-4 -3t-11 -2 q-10 -4 -14 2q-4 4 -4 16zM897 254v2v4l2 2v2h2h2v-4v-4l-2 -4h-2zM905 336v2q2 2 2 6q2 2 2 8q2 2 2 8q2 2 2 9q0 4 1 5t1 3v6h3h2q0 -2 1 -2t1 -2v-2q0 2 2 2t4 2q2 0 3 1t3 1q2 2 4 2l2 -2l2 -2v-4q0 -2 -1 -3t-1 -3t-2 -4h2l2 2q2 0 2 2v2q4 4 8 6q2 6 11 6h2v-2v-2 l-2 -2q0 -8 -2 -12q0 -2 -5 -7q-4 -4 -6 -4q0 -2 -2 0h-2v-2q0 -2 2 -2v-2q4 0 4 2q4 0 4 2q4 4 5 4q4 4 4 7q2 0 2 4q2 0 2 2q-2 0 -2 2v4l2 2l4 4v-2q0 -2 2 -4l-2 -4h6q0 2 4 2l4 4q2 2 2 3t2 3l2 2v-2v-2v-4l-2 -4v-2h-2q0 -4 -2 -6q0 -2 -2 -5q0 -2 -1 -3t-1 -3t-2 -4 v-2l4 4q0 2 4 6q0 2 1 2t1 3v2q0 2 1 2t1 2l2 2h2h2v2v4v2q0 2 1 2t1 2q2 0 5 2h4q4 0 6 -2q2 0 2 -1t2 -1v-4v-4q0 -2 -2 -4h-2h-4l2 2q2 0 2 4q4 0 0 4l-2 2h-4l-4 -4v-4l4 -4l4 -4q0 -2 1 -2t1 -3l2 -2v-4q2 0 2 2t2 4v3q0 4 4 8t6 8q4 2 6 2t6 2h3v-2v-2l-3 -2l3 -2 q2 -2 2 -6q0 -2 -1 -3t-1 -3v-3l4 3v2q2 4 2 8q2 2 2 6q0 2 2 2l2 -2q2 0 2 -2v-4l-2 -2q0 -4 -2 -6l-2 -5q0 -2 -2 -4v-2q4 8 6 11q0 4 4 8l6 6q2 2 6 2q0 2 1 2t1 -2q2 0 2 -2q0 -4 -2 -6q0 -4 -2 -6q0 -2 -1 -2t-1 -2t-1 -3.5t-1 -3.5q-2 -2 -2 -6q-2 -2 -2 -4v-2l2 4 l6 6v2q4 8 4 11q2 2 4 3t4 5l13 6q2 0 2 -2v-2v-4q-2 0 -4 -2l2 -4v-2q0 -2 -1 -3.5t-1 -3.5q-2 -2 -2 -3t-2 -3q0 -2 -2 -4q0 -2 -2 -4v-2q2 0 4 2q4 4 6 8q0 2 2 4v2q6 12 6 19q2 6 6 14q0 6 2 8q0 2 -1 3.5t-1 3.5q4 0 8 -5q2 -2 2 -10q0 -4 -4 -12t-10 -14 q-2 -2 -2 -4.5t-2 -4.5q0 -2 -1 -3t-1 -3t-1 -3t-1 -3l-2 -2v-2l4 4q2 2 2 3t4 3l6 13q2 0 0 -3q-6 -10 -8 -12q-4 -8 -6 -8q-4 -4 -4 0v8q2 0 2 2l-2 -2q-2 -4 -6 -8h-5v8l-2 -2q0 -2 -2 -2q-2 -2 -4 -2q0 -2 -2 -2t-2 4v4v4l-6 -6q0 -2 -2 -4h-4l-2 2q0 2 2 4v4l2 4 q0 2 1 2t1 2q0 4 2 7v4h-2l-4 -2q0 -2 -4 -6l-4 -5q0 -2 -1 -3t-1 -3q-2 -2 -2 -6q-2 -2 -2 -4l-2 4q0 4 2 6v6l2 2q-4 0 -7 -2q-2 0 -2 -2t-2 -4l-4 -4q-2 0 -2 -1t-2 -1q-2 -2 -6 -2l-2 4q-2 2 -2 6v4l-4 -4l-2 -2q0 -2 -1 -2t-1 -2q-2 0 -2 -1t-2 -1h-6l-5 2q-2 0 -2 1 t-2 1q-2 2 -2 6q-2 2 -2 4q0 -2 -2 -4q-2 -4 -6 -8q-2 -2 -4 0v6q0 2 2 6v7h-6q-4 0 -4 2q0 -2 -2 -2q0 -2 -2 -4t-2 -3.5t-2 -3.5q-4 -4 -5 -4l-4 -4q-2 0 -3 -1t-3 -1l-4 4l-2 4v9v2q-2 0 -2 -1t-2 -1h-2q-2 -2 -2 -3.5t-2 -3.5l-4 -4l-4 -4q-2 0 -3 -1t-3 -1l-3 2l-2 2 v-2q0 -2 -2 -4v-4q-2 -2 -2 -4v-2h-2h-2zM918 352l2 -2l4 2l2 2l4 4q0 2 2 4h-4q0 2 -2 3q0 2 -1 2t-1 2l2 4v2l-2 -2q-2 0 -2 -2l-4 -4v-7v-4v-4zM924 246v6v6q0 2 2 2q0 2 2 2v-2v-4v-2v-2l-2 -2q0 -2 -2 -4zM928 367q2 0 2 -2h4q0 2 1 4t1 4v4h-2h-2l-2 -2q0 -2 -1 -2 t-1 -2v-2v-2zM934 260v2q2 2 2 4h2q0 2 2 2v-2v-4v-4v-2q0 -2 -2 -2l-2 2q-2 2 -2 4zM944 1053v4l2 4q2 0 4 2l2 -4q0 -2 -2 -4h6l5 4l4 4q0 2 1 3t1 3l2 2v-2v-2v-4v-2q0 -2 -1 -2t-1 -2t-1 -3t-1 -3t-1 -2t-1 -2t-1 -3.5t-1 -3.5v-4q-2 -2 0 -2l2 4l4 9q2 2 2 4t2 4 q0 2 1 2t1 2q4 4 6 8q2 2 10 6q0 2 2 0v-4l-2 -2q0 -8 -2 -12q0 -4 -4 -8q0 -4 -4 -5h-4v-4l2 -2q2 0 2 1t2 1l4 4l4 5q0 2 2 4v2q0 2 1 4t1 4q2 2 3 4t5 4q2 4 11 8q2 0 2 -2q-2 -2 -2 -4t-2 -2q-4 -2 -9 -6q-4 -4 -4 -6q-2 -2 -2 -6q-2 -2 -2 -7v-4h4q0 2 1 2t1 2q2 0 2 5 q2 0 3 2q2 2 2 6v6h2h2h2v-2q0 -2 -1 -2t-1 -2v-4q-2 0 -2 -4q0 -2 -2 -5l4 5q2 2 2 3t2 3q0 2 1 3t1 3t1 2t1 2h2q-2 -2 -2 -6q-2 -2 -2 -3t-2 -3q0 -2 -4 -6t-4 -7q-2 0 -2 -2v-4l-5 -4q0 -2 -1 -2t-1 -2q-2 -2 -4 -2h-2v8q4 4 6 4q0 2 2 2l2 2v4q2 0 3 3l-3 -3l-2 -2 q-2 -2 -4 -2q0 -2 -2 -2l-2 2v4v5l-2 -2q0 -4 -4 -5q0 -4 -4 -4q-2 -2 -4 -2h-4q-2 2 -2 6v7q-2 -2 -2 -3.5t-2 -3.5q-2 -4 -6 -8q0 -2 -3 -2q-2 2 0 8v4v9q0 -2 -2 -2h-4h-6zM946 358q0 -2 4 -2l4 4v2l2 5l2 4v4q0 -2 -2 -2t-4 -2l-4 -4l-2 -5v-4zM961 248v4v8q2 0 2 2h2 v-4v-2v-2q0 -2 -2 -4zM971 260q0 2 1 2t1 2v2q2 0 2 2h2q2 0 2 -2v-2q0 -2 -1 -2t-1 -2v-4h-2q-2 0 -2 2zM975 1044q0 -2 1 -2t1 2q2 0 4 3l4 8v8q0 -2 -2 -2t-4 -2q0 -2 -1 -3t-1 -3q-2 0 -2 -4v-5zM993 1026q0 -2 4 2v4q0 2 2 4l-6 -6v-4zM995 242h2h2q2 0 2 2l-2 2l-2 -2 h-2v-2zM997 354q2 0 2 -1t2 -1q0 -2 5 -2h4l4 4q0 4 -2 6q0 2 -6 7q-4 4 -5 4l-2 2l-2 -4v-4v-5v-6zM1008 248q0 -4 2 -6l2 -2l2 2h2q0 2 2 2q0 2 2 2v-2v-4l4 2q0 2 4 6q2 2 2 4v-4q2 -2 2 -6q2 -2 4 -2h4l4 4q4 0 5 4q2 0 2 2v-2q0 -6 2 -6q0 -2 2 -4h4q2 2 3 2t3 2l4 4 l2 4q2 0 4 2v-6v-6q0 -2 1 -2t1 -2h4q2 0 4 2q0 2 2 4l3 -4q4 -4 4 -5h4l4 5l4 4l2 2q-4 -4 0 -6v-5l2 -2h2q2 0 4 2l2 3q2 0 2 2l-2 -5v-2q0 -2 -2 -2h-2q-2 -2 -3 -2t-3 -2q0 -2 -1 -4t-1 -4q2 0 3 1t3 1l4 2q0 2 2 4t2 4q2 2 3 2t3 2q4 0 4 5l5 4q2 2 2 3t2 3v2v-2 q-4 0 -4 -4q-4 -4 -5 -4l-4 -4q0 -2 -2 -3h-2l2 5l4 4q0 2 1 3t1 3t1.5 2t1.5 2q2 2 2 4l2 2v2l-2 2q0 2 -2 2l-3 -2q-2 -4 -2 -6t-2 -4q-6 -10 -4 -10v-2l-2 -2q-2 0 -2 -1t-2 -1q0 -2 -2 -3h-2q-2 0 -2 3v6q2 2 2 3t2 3q2 4 8 10v2v4v2q-2 0 -4 -2l-6 -6q-2 -2 -2 -4 t-2 -4v-2v-2l-4 -4l-4 -4l-2 -2h-4l-2 2v4v6q0 2 1 3t1 3l4 4h6q2 0 4 2q0 2 1 2t1 2v2q0 2 -2 2t-3 -1t-3 -1t-4 -2v2l-2 2q0 2 -4 2q-2 0 -7 -4l-6 -6v-2q-2 0 -2 -2v-2q-2 -2 -4 -2v2q0 2 1 2t1 2v6l-2 2v2v2v2h-2q-4 -2 -5 -2t-5 -2l-6 -6l-4 -8v-2q0 -2 -1 -2t-1 -2 l-5 -4q-2 0 -2 -1t-2 -1h-4q-2 2 -2 4v6q2 0 2 4l6 6h2q2 0 2.5 1t2.5 1l2 2q2 2 2 4v2v2q-4 -2 -6.5 -3t-6.5 -3l-6 -6q-2 -2 -2 -6l-4 -4q0 -4 -4 -8l-2 -2v2v2q2 2 2 6q2 2 2 3t2 3q0 2 1 4t1 4q2 2 2 6q2 2 2 7q4 8 2 10v4q-2 2 -4 2t-4 -2l2 -2l2 -4q0 -2 -1 -2t-1 -2 t-1 -2t-1 -2v-5q-6 0 -10 -4q-6 -4 -6 -8q-4 -4 -4 -8v-6zM1010 244v4l2 4q0 4 2 6q0 4 4 4q4 4 6 4t2 2l-2 -6q0 -2 -1 -3t-1 -3t-2 -4v-4l-2 -2l-2 -2q-2 0 -2 -2h-2zM1026 352q0 -4 2 -4l2 2q2 0 4 2l4 4l2 2v2h-4q-2 0 -2 2v5l2 4v2q-2 0 -4 -2t-2 -4q-4 -4 -4 -9v-6z M1038 362h2h2q2 1 2 7q2 2 0 6h-2h-2v-2q-2 -2 -2 -4v-4v-3zM1040 1047q0 2 2 2l2 2q0 2 1.5 3t1.5 5q0 6 2 10v10q0 4 1 6t1 7q0 2 4 10q0 2 4 6l4 2q2 0 2 2q-2 0 -2 -2t-2 -4q-2 -4 -2 -5t-2 -5q0 -6 -2 -11q0 -8 -2 -12q0 -6 -2 -10q0 -6 -2 -8q0 -2 -1 -3t-1 -3 q-2 0 -2.5 -1t-2.5 -1h-2zM1055 244v6q0 2 4 6l2 4q2 2 4 2q-2 0 -2 -2v-4q0 -6 2 -6h4l-4 -4q0 -2 -1 -2t-1 -2q-2 0 -4 -2h-2q-2 0 -2 4zM1065 254v4q2 0 2 2t2 2q0 2 2 2l2 -2v-4q-6 -6 -4 -6h-2q-2 0 -2 2zM1071 1061v6q2 2 2 3t2 3l4 2h4h2l-4 -2q-2 0 -2 -1t-2 -1 q0 -4 -2 -6v-4l2 -2q0 -2 2 -2q4 0 4 2q2 2 2 4t2 4q0 4 1.5 5t1.5 5q0 8 2 13q0 8 2 12q0 6 2 10q0 2 4 6h6l-4 -2q0 -4 -2 -8v-10q-2 -2 -2 -11q-2 -4 -2 -6t-2 -6q0 -4 -1 -5t-1 -5l-7 -6q0 -4 -6 -4q-4 0 -4 2zM1075 244q0 2 1 5t1 5h2v-2h2l2 2v4h-2q2 0 2 2t2 4h5 q2 0 2 -4v-2q0 -2 -1 -2t-1 -2t-3 -4q0 -2 -1 -3t-1 -3q-4 -8 -4 -6q-4 0 -4 2zM1077 344l4 2l2 2q2 0 2 1t2 1q0 2 1.5 2t1.5 2v4q2 0 2 4l2 5v4q0 -2 -2 -2t-5 -2l-6 -7q0 -2 -1 -3t-1 -3q-2 -2 -2 -4v-4v-2zM1077 1092v6q0 4 2 6q0 4 4 8q2 4 4.5 5t4.5 3q4 2 7 2t7 2 q8 0 10 -2q4 -2 8 -6q0 -4 1 -5t1 -5v-12q-2 -4 -2 -7.5t-2 -7.5t-4 -5t-4 -5q-4 -4 -12 -8q-2 -2 -8 -2q-4 0 -7 -2q2 2 5 2q6 0 8 2q4 2 5 4t5 4q2 4 3 5t3 5t2 6t2 7v12q0 2 -1 4t-1 4q-4 6 -6 6q-4 4 -6 2q-6 0 -8 -2q-4 0 -8 -4l-5 -8q-2 -2 -2 -3t-2 -3v-8v-5z M1100 586q0 23 9 61.5t24.5 73.5t35.5 57t43 10q12 -6 9.5 -32.5t-19 -59t-43 -63.5t-59.5 -47zM1108 219v2l2 2q4 4 6 4zM1112 369q0 2 2 4q0 2 1 2t1 2q4 4 4 8q0 2 1 4t1 4v6l-2 -4v-4v-4q-2 0 -2 -2t-1 -3t-1 -5q-2 -2 -2 -4t-2 -4zM1128 629q23 16 37.5 43t18.5 45 q-6 -4 -14.5 -14.5t-16.5 -23.5t-15.5 -27.5t-9.5 -22.5zM1128 1073v8q0 4 2 9q2 2 3.5 4t3.5 4q2 4 10 8h2v-2q0 -4 -2 -4q0 -2 -1 -2t-1 -2l-6 -6q-4 -4 -4 -7q-2 -2 -2 -6v-4v-4l2 -2q2 0 4 2l4 4q2 2 2 3t2 3l2 4v2q0 2 1 4.5t1 4.5q2 4 3 5t3 5q2 2 10 6q0 2 1 2t1 -2 v-2v-2q0 -2 2 -2q0 -2 1.5 -3t1.5 -3t-1.5 -2t-1.5 -2v-4l5 4v2v2l2 2q0 6 4 10l6 6h4q0 -2 1 -2t1 -2v-2l2 2q0 2 1 2t1 2q2 0 3 1t3 1q2 2 2 0v-4v-2l-4 -4q-2 0 -6 -4q0 -2 -4 -6v-6v-7v-4q2 -2 4 -2l2 2l4 4q0 2 1 2t1 3q2 2 2 3t2 3v2v2q0 4 1 5t1 5q2 4 3 5t4 5 q0 2 2 2t2 -2v-4v-2q-2 -4 -4.5 -6t-2.5 -6q-2 -4 -2 -10v-7q0 -2 2 -2l3 2l2 2l4 5q0 2 1 2t1 2q0 8 2 12q0 10 2 14q0 2 2 2h2l2 -2v-4v-2q-2 -2 -2 -4t-1 -3t-1 -3q0 -4 -2 -6q0 -4 -2 -6v-7l2 5q4 4 4 6t1 3t1 3q2 2 2 3t2 3v2v-2q0 -2 -1 -4t-1 -4q-2 -2 -2 -3t-2 -3 q0 -2 -4 -6q0 -2 -4 -7v-2l-2 -4l-2 -4l-4 -4l-5 -4v8q2 2 2 4t5 2v2q2 0 2 2l2 4v5l-2 -5l-2 -2q0 -2 -2 -2l-3 -2h-4q0 4 -2 4v7v2q-2 -2 -2 -4q-2 -2 -2 -3.5t-2 -3.5l-4 -4q0 -2 -4 -2l-2 2q-2 0 -2 4q0 2 -2 2v-2q0 -2 -2 -4l-4 -4h-4l-2 2t-2 6v9q0 -2 -1.5 -2 t-1.5 -3q-2 -2 -2 -3t-2 -3q0 -2 -4 -6l-4 -4q-2 0 -4 -2q-2 0 -4 2t-2 6v2l-2 -2q0 -4 -4 -4q0 -2 -4 -6q-2 0 -2 -1t-2 -1t-5 2q-2 2 -2 6zM1133 344v8q2 2 2 4t2 4q0 4 4 9q2 4 6 8h4v-2v-4q0 -4 -2 -4t-6 -5q0 -2 -4 -6q0 -4 -1 -5t-1 -3v-4v-6l2 -2l2 2q2 0 2 1t2 1 l4 4l2 2v2v2l2 4q0 2 1 3t1 3q2 2 2 9q2 2 2 4t2 2h2q2 -2 2 -4v-4l-2 -5l-2 -4q-2 -2 -2 -3t-2 -3q0 -2 -1 -3t-1 -3q-2 -2 -2 -6l-2 -2v-2l4 2q2 2 3 4t3 4l2 2v4q0 4 2 4q0 2 2 2l2 2q2 0 2 -2v2v5q0 4 3 4q0 2 1 2t1 2h4q4 4 4 0h6q0 -2 2 -4t2 -7q0 -2 -2 -4 q0 -2 -1 -2t-1 -2h-4l-2 2h2l4 4v7l-2 2q-4 4 -4 0q-4 0 -4 -2v-7q0 -4 2 -6q0 -2 1 -2t1 -2q2 -2 2 -4q2 -2 2 -4l-2 -4l6 6q0 2 2 2q0 4 4 8q2 6 8 8q2 2 5 3.5t8 3.5l2 -2v-2l-2 -3q0 -2 -2 -4q0 -4 -5 -12q-4 -8 -6 -10t-3 -2t-3 -2h-4q-2 0 -2 2v-4l2 -2q2 -2 4 0 q2 0 4 2q4 4 6 4q4 4 4 6l5 4q0 2 2 4h2l-2 -4l-4 -4t-5 -6q-4 -4 -6 -4q-4 -4 -6 -4h-4q-4 0 -4 4v6v6l-4 -4q0 -2 -1 -2t-1 -2q-2 0 -2 -1t-2 -1q-2 -2 -4 -2h-4q-2 0 -3.5 1t-3.5 1l-4 4q0 4 -2 8v2q0 -2 -2 -4q-2 -4 -6 -8h-4v8v2h2l-4 -4l-4 -2q0 -2 -4 -2h-2 q-2 0 -2 2q-2 2 -2 6zM1143 225h4l2 2q0 2 -2 2h-2q-2 0 -2 -2v-2zM1153 1075q0 -2 2 -4l4 2q0 2 1 2t1 2l4 4q0 2 2 4h-4q-2 0 -2 7v6q0 -2 -2 -4l-4 -4q-2 -2 -2 -9v-6zM1157 225q2 -2 4 -2q0 -4 4 0q4 0 4 2q2 0 7 4v-2v-6q2 0 2 -1t2 -1q0 -4 4 0q4 0 4 2q2 0 3 1t3 1 q0 4 4 4q0 2 4 2q0 -2 -2 -2q0 -4 -2 -6v-4q0 -2 2 -4v2v4l6 6q0 2 4 6q2 2 4 2q2 2 5 3h2v-5q-2 0 -2 -4q-2 0 -2 -1t-3 -1q0 -4 -2 -4q0 -2 -2 -4q0 -2 -1 -2t-1 -2t2 -2v2q2 0 2 1t2 1q0 2 1.5 2t1.5 2q2 2 2 4q4 2 8 6q2 2 4 2q2 2 2 0v-2q-2 -2 -2 -4q-2 -2 -2 -3 t-2 -3l-2 -4l-2 -2v-4v-2h4l2 2l6 6q6 2 8 8q-4 -2 -5 -4t-3 -4q-4 -4 -6 -4q0 -2 -2 -2v2l2 2l4 4q0 2 1 3t1 3q2 0 2 2q2 2 2 3t2 3v5q2 0 2 1t-2 1q0 2 -2 2q-4 0 -8 -4q-2 -2 -3 -2.5t-3 -2.5l-4 -4h2v2q4 4 4 7l2 4v2q-2 2 -4 0h-4l-4 -2q0 -2 -1.5 -2t-1.5 -2l-4 -5 l2 5v2q2 2 2 4l-2 2l-2 2l-2 -2l-2 -4q0 -2 -1 -3t-1 -6h-2q0 -2 -2 -2h-2q2 0 2 2t2 5v6l-2 2l2 2v2v2h-2q-4 0 -6 -1t-4 -1q-4 -2 -8 -6t-4 -6v-5q-2 0 -4 -2l-5 -4q-2 0 -4 -2h-4l-2 2v4q0 2 2 4q0 2 1 3.5t1 3.5q2 2 3 2t3 2t7 2q2 0 4 2l2 2v4h-2q-8 0 -11 -2 q-4 -2 -8 -6l-4 -8v-7v-6zM1163 1090l2 -3h2q2 2 2 9v4q0 2 -2 2l-2 -2l-2 -2v-4v-4zM1167 338q0 -2 1 -2t1 -2t5 -2h6q0 2 1 2t1 2q2 2 0 6q0 2 -4 10q-4 0 -4 4q0 2 -3 2l-2 -4q0 -2 -1 -2t-1 -2v-6v-6zM1176 1083q0 -6 2 -6h4l4 8q0 4 2 7v6q2 4 2 8q-2 2 -4 2l-2 -2 l-4 -4l-2 -2h2h2v-4l-2 -2h-2h-2v-11zM1180 219v4v6q2 2 2 3t2 4q2 2 5 4t3 0l-2 -4v-7q0 -2 2 -2h2l-4 -2q0 -2 -1 -2t-1 -2h-4q-2 -2 -4 -2zM1192 229v4v5q2 0 2 2l2 2h2l2 -2l-2 -4q0 -2 -1 -2.5t-1 -2.5v-2h-2h-2zM1196 336l2 -2l4 4l6 6q0 2 1 4t1 4t2 4q-4 0 -8 -4 l-4 -4q-2 -2 -2 -3t-2 -3v-6zM1212 1067l9 12l-7 -6q-2 -2 -2 -4v-2zM1235 322v6q0 6 2 10q0 2 4 10q2 2 10 6q4 4 13 4v-2v-2l-2 -2l2 -4v-8q0 -2 -1 -2t-1 -2q-2 -2 -2 -4l4 2q2 0 2 2q2 4 2 5t2 5q2 2 2 6l2 2q2 0 4 -2v-4v-4l-2 -2q-2 -2 -2 -3t-2 -3q0 -2 -1 -3t-1 -3 l-4 -4v-2l6 12q4 2 5 4t3 4l6 6q2 2 6 2h4v-4q0 -2 -1 -3t-1 -3q-2 -2 -2 -4t-2 -4l-2 -4q-4 -4 -4 -6q-2 -2 -2 -3.5t-2 -3.5q0 -2 -2 -4q-4 -4 0 -4l2 4q4 4 8 6q0 2 1 3.5t1 3.5q2 0 2 2q4 6 5 11t6 9q2 6 6 14q2 4 2 6.5t2 4.5v6q0 -2 2 -2t4 -2q2 -4 0 -13q0 -6 -6 -14 q-2 -4 -5 -8t-8 -8q-2 -2 -2 -4t-2 -4q-4 -4 -4 -7q-2 -2 -2 -3t-2 -3v-2l-2 -2q2 0 4 2q4 4 6 8q4 4 7 9q2 4 3 5t3 5t10 8q0 2 2 2t2 -4l-2 -4v-2l-6 -6l-6 -6q-4 -8 -4 -11q-2 -4 -2 -8v-4h2q2 2 4 2l4 4l4 4q2 2 6 15l4 8l4 8q0 2 2 2q0 -2 2 -2q0 -2 2 -4q0 -4 -2 -4 l-2 -2q0 -4 -2 -6t-2 -3t-2 -4q0 -2 -4 -6l-4 -8q0 -2 -2 -2t-2 -2h2q2 0 2 1t2 1l4 4l6 6q4 8 4 9h2q-2 -4 -6 -9q-4 -4 -4 -6q-4 -6 -8 -6q-4 -4 -6 -4v-2l-4 -4q0 -4 -4 -4q0 -4 -5 -4q-2 -2 -4 -2h-2q0 6 4 10t7 4l2 2h2l4 4v4q0 2 2 2l-4 -4l-2 -2q-2 0 -4 -2h-2 q-2 0 -3 2q-2 2 -2 6t1 5t1 3v4q-2 -2 -2 -3t-2 -3l-8 -8q-4 -4 -4 0t2 10l2 2v2l-8 -8l-4 -4h-2q-2 0 -2 4l2 4l2 4l2 5q0 2 1 3t1 3l4 4v6v2q-2 0 -3 -1t-3 -1q0 -2 -6 -8l-2 -4q-4 -4 -6 -9q0 -2 -1 -3t-1 -3q-2 0 -2 -2l-3 2q0 2 1.5 4t1.5 5q0 2 1 3t1 3q2 2 2 4l-4 -2 l-7 -6l-4 -5q-2 -2 -3 -2t-3 -2h-6q0 2 -1 3t-1 4zM1237 324q0 -6 2 -7l4 2l4 3l4 4l4 4h-4q-2 2 -2 10l2 4q0 2 2 2q-2 0 -4 -2l-4 -4q-4 -2 -4 -4t-2 -4q0 -4 -1 -5t-1 -3zM1251 336l2 -4h2h2q2 2 3 4q0 2 2 4v6q0 2 -2 2h-3q0 -2 -1 -2t-1 -2l-2 -2q0 -4 -2 -6z M1257 1098v4q0 2 1.5 3t1.5 3l4 4h6l-4 -2l-2 -4l-2 -4v-4l2 -2q0 -2 2 -2q4 0 4 2q2 2 2 3t2 3q0 2 1 3t1 5q0 2 1 5t1 5q0 -2 -2 -2h-4q-2 0 -2 -2t-2 -2q2 0 2 2t2 4h4q2 0 2 2q2 2 2 6.5v8.5v10q0 2 2 4q0 -2 -2 -2h-4q-6 0 -6 -2q-2 0 -3 -1t-3 -1q0 -2 -1 -2t-1 -2v-2 v4q0 2 2 4l4 4l8 4q6 0 8 2q2 0 2 2t2 2h4l-2 -4h2q2 0 2 1t2 1q6 2 7 4q2 0 3 1t3 1v4q0 2 2 2v-6q0 -4 -2 -6l-2 -2q-2 -2 -7 -2q-2 -2 -6 -2q-6 0 -6 -2q-2 0 -2 -12q0 -2 -1 -4t-1 -5v-6l4 2h2q2 2 4 2v2l2 -4l-4 -4l-4 -2h-6q0 -8 -2 -10q0 -4 -1 -5t-1 -5l-6 -6 q-2 0 -3 -1t-3 -1q-4 0 -4 2zM1290 891q4 -4 8.5 -13.5t4.5 -13.5l32 -35q51 63 129 99q-41 -6 -75 -13q-29 -4 -59 -11t-40 -13zM1296 283l11 10q-2 0 -7 -4q-2 -2 -2 -4t-2 -2zM1296 1108v8q2 2 2 4t2 4q0 4 7 11q2 2 10 6h2v-2q0 -2 -1 -2t-1 -2l4 -2v-7v-6l2 2l2 2v9 q0 4 1 5t1 3v2q2 0 4 -2l2 -2v-4l-2 -2q0 -4 -2 -7v-6q-2 -2 -2 -4v-2v2q0 2 4 10q0 4 4 9q0 4 4 8l4 4t5 0l2 -2q0 -2 -1 -3t-1 -3v-6q-2 -2 -2 -7q0 -2 -1.5 -3t-1.5 -3t-1 -3t-1 -3v-4v-2l2 4l5 8q0 2 1 3t1 3v2q2 2 2 7q0 4 2 6v8l2 4v2h-2h-4h-2h-2q0 2 -3 2v2h3h2h4h2 q2 0 2 2v6l-2 2h-2l4 2q2 2 4 0q2 0 2 -2v-4v-4q4 0 4 2h6l4 2q2 0 4 2l-2 -4q0 -2 -1 -2t-1 -2q-4 0 -6 -2h-8q0 -4 -2 -8q0 -6 -2 -8q0 -4 -1 -5t-1 -6q0 -2 -1 -4t-1 -4q0 -4 -1 -5t-1 -3v-2q-2 -2 0 -2l2 4l4 8l4 13h2q-4 -12 -6 -17q-4 -8 -6 -10t-4 0v6v2q2 2 2 4v2 q0 -2 -2 -2q0 -6 -5 -10q0 -2 -2 -4q-2 0 -2 -1t-2 -1q0 2 -2 2v4q2 2 2 4v4q2 2 2 6v6q2 2 0 5l-4 -5q2 0 -4 -6q0 -2 -1 -3t-1 -3t-1 -3t-1 -3q-2 -2 -2 -6v-4l-2 2v8v4v4l-4 -4q-2 0 -2 -2v-4q-2 -2 -2 -3t-2 -3q-4 0 -4 -4q-2 0 -3 -1t-3 -1l-5 4v2zM1300 1112 q0 -6 3 -8v-4q2 0 4 2l4 4q0 2 1 2t1 2l2 4v2l-2 -2q-4 4 -4 8v4q0 2 2 2l-4 -4q-2 -2 -2 -4q-4 -8 -5 -8zM1303 336q0 2 2 4l4 4q2 4 3 5t3 5q0 2 1 4t1 4l2 5v2l-2 -2q0 -4 -2 -7l-2 -4v-2q-2 -2 -2 -4t-2 -4t-2 -3t-2 -3t-2 -4zM1313 1116l2 2h2q2 0 2 8v4l-2 3 q-2 0 -2 -3l-2 -2v-4q-2 -2 0 -4v-4zM1382 1120v6q0 2 1 3t1 4l5 4h8l-4 -2q-4 -4 -4 -5q-2 -2 -3 -4v-6v-4h5q2 0 4 2q0 2 1 4t1 4q2 4 2 13q2 4 2 12q2 6 2 14q0 4 1 6.5t1 4.5t1 2t1 2l2 2l4 2h2l-2 -4q-2 -2 -2 -9q0 -2 -1 -4t-1 -6q0 -8 -2 -12q0 -4 -1 -6t-1 -6 t-4 -13q0 -4 -4 -8q-2 -2 -6 -2h-7q0 2 -1 3t-1 3zM1386 1161q0 2 1.5 4t1.5 4l6 9q2 2 3 4t5 4q4 0 6 1t6 1q8 0 12 -2q5 -4 7 -8l4 -13q0 -8 -2 -12q0 -6 -4 -14t-9 -13q-2 -4 -12 -8q-2 -2 -8 -2q-4 0 -6 -2q4 2 6 2q4 0 6 2q4 4 6 5t4 5q2 2 6 11q4 8 5 12v12q0 8 -3 13 q0 4 -4 8q-2 0 -3 1t-5 1q-6 0 -8 -2l-6 -6l-6 -7q0 -2 -1 -4t-1 -4q-2 -2 -2 -8v-4q0 -2 2 -2l-2 2q-2 0 -2 2q-2 2 -3 8zM1423 199q16 -8 35 -21q57 -33 119 -92q41 -37 85 -83t87 -101q29 182 -86 309q-29 31 -64.5 56.5t-58.5 35.5q-76 -47 -117 -104zM1438 1128v11 q0 2 1 4t1 6q2 2 3 4t3 4q6 6 10 8h2v-2v-4v-2q0 -4 -1 -7t-1 -5q-2 -4 -2 -6t-2 -4q-4 -4 -4 -7h-6l2 -4q0 -2 2 -2l2 2q4 0 4 4q4 4 4 7l4 4q-2 2 0 4v4q0 2 2 4h2h2v2q-2 2 -2 4t2 4q0 2 2 4l2 2q4 0 5 2q4 0 4 -2q4 0 4 -2q2 -2 2 -4v-4q0 -4 -2 -4q0 -2 -2 -2h-4l4 2v4 v6l-2 2q-4 0 -4 -2q-2 0 -2 -4v-4q0 -2 2 -4l4 -4l4 -4v-2q2 -2 0 -4q-2 0 4 6q0 2 1 3t1 3q0 4 1 5t1 5v8l2 2l2 -2q2 0 2 -2q2 -2 0 -4v-4l-2 -4q0 -4 -2 -8v-6q-2 -2 -2 -4v-5q-2 -2 0 -2q0 2 1 2t1 3q2 2 2 4t2 6h2v2q0 6 2 8q4 8 6 10q2 4 4 5t7 6q2 0 2 -3v-2v-6 q-2 0 -2 -1t-2 -1l-7 -6q-4 -4 -4 -6q-2 -2 -2 -4t-2 -4v-6v-5v-2l2 2q2 0 2 1.5t2 1.5q0 2 2 4q0 2 2 4v6q2 2 2 6v2h3q2 0 2 -2v-2v-2q0 -2 -1 -3t-1 -3q0 -4 -3 -6v-4l5 4q0 2 1 3t1 3q2 2 2 6q2 2 2 4v8q2 4 2 8l2 2l2 -2l2 -2v-4l-2 -4v-4q-2 -2 -2 -6q0 -2 -1 -3 t-1 -3q2 4 2 6t2 4q0 6 4 10q2 2 2 4t2 4q4 4 4 5h4q0 -2 1 -2t1 -3q0 -4 -2 -6v-8l-2 -4q0 -4 -2 -6q0 -4 -2 -6v-4v-2l2 2t2 4t2 4q0 2 1 3t1 3q0 4 1 5t1 3q4 8 6 10q4 2 6.5 4.5t6.5 4.5v-2v-2v-3v-4q0 -4 -1 -6t-1 -6q-2 -4 -2 -6t-2 -4q-4 -4 -4 -6h-7l2 -4l2 -2l5 2 l2 4q4 4 4 6l4 4q0 2 1 3t1 3v2v2l-2 2v4q2 2 2 4l4 5v-3q0 -2 2 -4v-6l4 2l4 2l4 4q0 2 1 3.5t1 3.5t2 2v-4v-5v-4q0 -2 -2 -4q-2 0 -2 -2v-4q0 -2 -1 -3t-1 -3q0 -6 -2 -8v-4v-2l2 4q2 2 2 4t2 4l6 12v2v-2q-2 -6 -6 -14q-2 -6 -6 -10q0 -2 -2 -2q-4 4 0 10v6v4q0 2 2 4 h-8h-4v-2l-4 -4q0 -2 -1 -3t-1 -5q-2 -2 -2 -3t-2 -3q-4 0 -4 -4q-2 0 -3.5 -1.5t-3.5 -1.5l-2 5q-2 2 -2 3t-2 3v6v-2q-4 -8 -6 -10q0 -2 -1 -2t-1 -3h-2q-2 0 -2 3q-2 2 0 4v4v4q2 2 2 6t2 6v4l-2 2l-4 -4l-4 -8l-2 -4q0 -4 -1 -5t-1 -3t-1 -3t-1 -3v-5l-2 5v6v4 q-2 -2 -2 -4t-2 -4l-7 -7v-2l-2 -4q0 -2 -1 -3t-1 -3l-4 -4q0 -2 -2 -2h-2v8q2 2 2 3t4 3q0 2 2 2l2 2v5q0 2 2 4l-2 -4q-2 0 -2 -1.5t-2 -1.5q0 -2 -2 -2l-2 -2l-2 2q0 2 -1 3.5t-1 3.5v4v-2q-4 -8 -6 -9q-2 -2 -4 -2v9q0 4 2 6v4v-2q-2 -2 -2 -3t-2 -3q0 -4 -2 -4 q0 -2 -1 -2.5t-1 -2.5q-2 -2 -4 -2q0 -2 -4 -2h-5q-2 2 -3 2t-3 2q0 2 -1 3.5t-1 3.5v2q-2 0 -2 -2q-4 -6 -4 -7q-4 -4 -4 -6q-2 0 -3 -1t-3 -1l-2 2q-2 2 -2 3t-2 3zM1442 1130h4l4 5q0 2 1 3t1 5v6q0 2 2 4q-2 0 -3 -2t-3 -2q-2 -2 -2 -3t-2 -3q0 -4 -2 -6v-7zM1464 1137 q0 -4 2 -7l2 -2q2 -2 5 -2q4 0 4 2l4 5q0 4 -2 6q0 4 -6 8q-2 0 -5 2q0 2 -2 2l-2 -4v-6v-4zM1493 1171l2 5l2 -2l2 -3v-6q-2 0 -2 2t-1 2t-1 2h-2zM1499 1112q0 2 2 2l2 2l2 4q0 2 2 4q-4 -2 -4 -3t-2 -3t-2 -4v-2zM1512 503.5q-1 -16.5 6 -28.5q18 14 31.5 38t19.5 50v2 q-14 0 -26.5 -9t-21 -22.5t-9.5 -30zM1552 1143q0 -2 4 -2l5 4q0 2 1 3t1 5v2q0 2 1 2t1 2v4q0 -2 -2 -2t-4 -2t-2.5 -3t-2.5 -3q0 -4 -2 -4v-6zM1571 309q12 -6 25.5 -16t29.5 -21q10 23 17.5 44.5t13.5 45.5l-2 -2q-23 -10 -44.5 -20t-35.5 -18q-4 -9 -4 -13zM1608 1135v2 l2 2h2h4v-2l-2 -2q-2 0 -2 -1t-2 -1t-2 2zM1634 944q29 -10 47.5 -27.5t26.5 -35.5l49 -50l32.5 -32.5t16.5 -14.5q-4 68 -32 127q-56 23 -140 33z" />
<glyph unicode="&#xab;" horiz-adv-x="864" d="M57 345q2 26 15.5 49.5t33.5 33.5q68 25 115 58.5t78 64.5t48.5 53.5t23.5 22.5q12 0 24.5 -28t9 -70t-28 -92t-83.5 -97q55 -47 78.5 -99.5t27.5 -96.5t-6 -73.5t-22 -31.5q-8 0 -28.5 28.5t-53.5 66.5t-79 76t-104 56q-29 8 -40 30.5t-9 48.5zM389 345q2 26 15.5 49.5 t33.5 33.5q68 25 115 58.5t78 64.5t48 53.5t23 22.5q12 0 24.5 -28t9.5 -70t-27.5 -92t-83.5 -97q53 -47 76.5 -99.5t27.5 -96.5t-5 -73.5t-22 -31.5q-8 0 -28.5 28.5t-53 66.5t-78.5 76t-104 56q-29 8 -40 30.5t-9 48.5z" />
<glyph unicode="&#xad;" horiz-adv-x="829" d="M96 287q-2 39 18.5 69.5t73.5 26.5t100.5 -7t94.5 -4t96.5 2t108.5 11q31 2 35 -32t-10.5 -75.5t-43 -75.5t-61.5 -28q-66 12 -109 16.5t-76.5 4.5t-66.5 -3.5t-78 -5.5q-35 -2 -57.5 30t-24.5 71z" />
<glyph unicode="&#xb4;" horiz-adv-x="628" d="M193 939.5q4 18.5 14 16.5q53 -4 79.5 9.5t41.5 38.5q10 14 28.5 14t34 -9.5t23.5 -25.5t2 -35q-10 -25 -38 -37t-61.5 -15t-66.5 1t-51 12q-10 12 -6 30.5z" />
<glyph unicode="&#xb6;" horiz-adv-x="1433" d="M215 1055q-14 109 15.5 170t90 87.5t143.5 27.5t175 -9t185.5 -24.5t173 -19.5t140 8.5t87.5 58.5q0 -80 -20.5 -135.5t-56.5 -89t-85 -51t-107 -21.5q-6 -59 -13 -149.5t-12 -193t-10.5 -209t-6.5 -196.5t0 -156.5t8 -91.5q6 -29 -25 -45t-68.5 -16t-69.5 16.5t-28 53.5 q4 35 8 109.5t7.5 168.5t5.5 200.5t3 206t0 181.5t-3 129l-36 4t-36 6q-6 -55 -13.5 -145t-13.5 -194.5t-11 -213t-6 -203t0 -164t7 -94.5q6 -29 -23.5 -45t-68.5 -16t-70.5 16.5t-27.5 53.5t8 119.5t7 186t6 218.5t3 217t-1 179t-5 108v6q-90 10 -157.5 2t-98.5 -51z" />
<glyph unicode="&#xbb;" horiz-adv-x="864" d="M79 529q-3 42 9 70t25 28q6 0 23.5 -22.5t48 -53.5t77.5 -64.5t115 -58.5q20 -10 33.5 -33.5t15.5 -49.5t-9 -48.5t-40 -30.5q-59 -18 -104.5 -56t-78 -76t-53 -66.5t-28.5 -28.5q-12 2 -21.5 31.5t-5.5 73.5t27.5 96.5t76.5 99.5q-59 47 -83.5 97t-27.5 92zM411 529 q-3 42 9 70t24 28q6 0 23.5 -22.5t48.5 -53.5t78 -64.5t115 -58.5q20 -10 33.5 -33.5t15.5 -49.5t-9.5 -48.5t-39.5 -30.5q-59 -18 -104.5 -56t-78 -76t-53 -66.5t-29.5 -28.5q-12 2 -22 31.5t-6 73.5t27.5 96.5t78.5 99.5q-59 47 -83.5 97t-27.5 92z" />
<glyph unicode="&#xbf;" horiz-adv-x="944" d="M56 -517.5q-15 103.5 5.5 219.5t73.5 218t136 180t189 105q0 12 1.5 34.5t1.5 47t1 48t3 38.5q8 18 40.5 28t69.5 11t68 -6t33 -23t1 -59.5t-2 -92.5t-5.5 -94t-8.5 -66q-92 6 -164.5 -32.5t-124 -104t-79 -144.5t-27.5 -151.5t27.5 -126t85.5 -67.5q57 -14 105 13.5 t82 80.5t49.5 125t4.5 147q-8 43 28 66.5t85 21.5t95 -30.5t54 -89.5q8 -152 -43 -276t-138 -203.5t-197.5 -111.5t-225.5 1q-98 31 -153.5 110.5t-70.5 183zM474 481q1 21 3 43.5t6 43t6 30.5q10 6 40 7t61.5 1t60.5 -2t35 -6q0 -18 2 -62t2 -73q-4 -6 -35 -10.5 t-67.5 -7.5t-69.5 -2t-43 7q-2 10 -1 31z" />
<glyph unicode="&#xc0;" d="M-13 533.5q3 33.5 33 31.5q39 -8 91 -12q2 74 2 143.5v129t-1 106.5t-3 72q-2 23 16 47t47 43.5t61.5 30t59 3t42 -34t7.5 -79.5q-4 -35 -9 -86t-11.5 -113.5t-11.5 -132.5t-9 -139q92 -2 182 2t168 10q2 78 5 152.5t4.5 136t1.5 106.5t-3 66q-6 63 -43.5 97t-93 48.5 t-121 13.5t-127 -10.5t-112.5 -20.5t-76 -18q-25 -6 -42 27t-19 78t13 88t56 57q33 12 101.5 23.5t152.5 13.5t173 -11t161 -52t117 -108.5t43 -178.5q-2 -59 -5 -148.5t-7.5 -194t-6.5 -212t-3 -201.5t1 -165.5t8 -102.5t-27.5 -48.5t-75.5 -19.5t-76 16.5t-29 59.5 q6 47 12 133t10 191q-86 4 -175 2t-175 -11q-4 -111 -4 -197.5t8 -121.5q8 -33 -25.5 -51.5t-75.5 -18.5t-77 19.5t-31 60.5t8 118t8 169q-33 2 -61.5 39t-43.5 79t-12 75.5zM367 1480q-6 18 2 34.5t23.5 26t34 9.5t28.5 -14q14 -25 41 -38.5t80 -9.5q10 2 14 -16t-6 -31 q-18 -8 -51 -12t-67 -1t-62.5 15.5t-36.5 36.5z" />
<glyph unicode="&#xc1;" d="M-13 533.5q3 33.5 33 31.5q39 -8 91 -12q2 74 2 143.5v129t-1 106.5t-3 72q-2 23 16 47t47 43.5t61.5 30t59 3t42 -34t7.5 -79.5q-4 -35 -9 -86t-11.5 -113.5t-11.5 -132.5t-9 -139q92 -2 182 2t168 10q2 78 5 152.5t4.5 136t1.5 106.5t-3 66q-6 63 -43.5 97t-93 48.5 t-121 13.5t-127 -10.5t-112.5 -20.5t-76 -18q-25 -6 -42 27t-19 78t13 88t56 57q33 12 101.5 23.5t152.5 13.5t173 -11t161 -52t117 -108.5t43 -178.5q-2 -59 -5 -148.5t-7.5 -194t-6.5 -212t-3 -201.5t1 -165.5t8 -102.5t-27.5 -48.5t-75.5 -19.5t-76 16.5t-29 59.5 q6 47 12 133t10 191q-86 4 -175 2t-175 -11q-4 -111 -4 -197.5t8 -121.5q8 -33 -25.5 -51.5t-75.5 -18.5t-77 19.5t-31 60.5t8 118t8 169q-33 2 -61.5 39t-43.5 79t-12 75.5zM357 1471.5q4 18.5 14 16.5q53 -4 79.5 9.5t41.5 38.5q10 14 28.5 14t34 -9.5t23.5 -25.5t2 -35 q-10 -25 -38 -37t-61.5 -15t-66.5 1t-51 12q-10 12 -6 30.5z" />
<glyph unicode="&#xc2;" d="M-13 533.5q3 33.5 33 31.5q39 -8 91 -12q2 74 2 143.5v129t-1 106.5t-3 72q-2 23 16 47t47 43.5t61.5 30t59 3t42 -34t7.5 -79.5q-4 -35 -9 -86t-11.5 -113.5t-11.5 -132.5t-9 -139q92 -2 182 2t168 10q2 78 5 152.5t4.5 136t1.5 106.5t-3 66q-6 63 -43.5 97t-93 48.5 t-121 13.5t-127 -10.5t-112.5 -20.5t-76 -18q-25 -6 -42 27t-19 78t13 88t56 57q33 12 101.5 23.5t152.5 13.5t173 -11t161 -52t117 -108.5t43 -178.5q-2 -59 -5 -148.5t-7.5 -194t-6.5 -212t-3 -201.5t1 -165.5t8 -102.5t-27.5 -48.5t-75.5 -19.5t-76 16.5t-29 59.5 q6 47 12 133t10 191q-86 4 -175 2t-175 -11q-4 -111 -4 -197.5t8 -121.5q8 -33 -25.5 -51.5t-75.5 -18.5t-77 19.5t-31 60.5t8 118t8 169q-33 2 -61.5 39t-43.5 79t-12 75.5zM352 1456.5q-4 20.5 8 26.5q35 16 42 32.5t11 51.5q4 18 20.5 27.5t35.5 11.5h4h4q20 -2 35.5 -11 t19.5 -30q4 -33 11 -49.5t42 -32.5q12 -8 7 -27.5t-23 -25.5q-23 -2 -48.5 10.5t-47.5 30.5q-23 -18 -49.5 -30.5t-49.5 -10.5q-18 6 -22 26.5z" />
<glyph unicode="&#xc3;" d="M-13 533.5q3 33.5 33 31.5q39 -8 91 -12q2 74 2 143.5v129t-1 106.5t-3 72q-2 23 16 47t47 43.5t61.5 30t59 3t42 -34t7.5 -79.5q-4 -35 -9 -86t-11.5 -113.5t-11.5 -132.5t-9 -139q92 -2 182 2t168 10q2 78 5 152.5t4.5 136t1.5 106.5t-3 66q-6 63 -43.5 97t-93 48.5 t-121 13.5t-127 -10.5t-112.5 -20.5t-76 -18q-25 -6 -42 27t-19 78t13 88t56 57q33 12 101.5 23.5t152.5 13.5t173 -11t161 -52t117 -108.5t43 -178.5q-2 -59 -5 -148.5t-7.5 -194t-6.5 -212t-3 -201.5t1 -165.5t8 -102.5t-27.5 -48.5t-75.5 -19.5t-76 16.5t-29 59.5 q6 47 12 133t10 191q-86 4 -175 2t-175 -11q-4 -111 -4 -197.5t8 -121.5q8 -33 -25.5 -51.5t-75.5 -18.5t-77 19.5t-31 60.5t8 118t8 169q-33 2 -61.5 39t-43.5 79t-12 75.5zM366 1467.5q-3 19.5 4 38t25 22.5q27 12 43.5 10t31.5 -6t34.5 -6t54.5 8q12 4 19.5 -7t8.5 -26.5 t-4 -33t-18 -25.5q-31 -14 -47 -12t-28.5 7t-27.5 7t-46 -10q-23 -10 -35 2t-15 31.5z" />
<glyph unicode="&#xc4;" d="M-13 533.5q3 33.5 33 31.5q39 -8 91 -12q2 74 2 143.5v129t-1 106.5t-3 72q-2 23 16 47t47 43.5t61.5 30t59 3t42 -34t7.5 -79.5q-4 -35 -9 -86t-11.5 -113.5t-11.5 -132.5t-9 -139q92 -2 182 2t168 10q2 78 5 152.5t4.5 136t1.5 106.5t-3 66q-6 63 -43.5 97t-93 48.5 t-121 13.5t-127 -10.5t-112.5 -20.5t-76 -18q-25 -6 -42 27t-19 78t13 88t56 57q33 12 101.5 23.5t152.5 13.5t173 -11t161 -52t117 -108.5t43 -178.5q-2 -59 -5 -148.5t-7.5 -194t-6.5 -212t-3 -201.5t1 -165.5t8 -102.5t-27.5 -48.5t-75.5 -19.5t-76 16.5t-29 59.5 q6 47 12 133t10 191q-86 4 -175 2t-175 -11q-4 -111 -4 -197.5t8 -121.5q8 -33 -25.5 -51.5t-75.5 -18.5t-77 19.5t-31 60.5t8 118t8 169q-33 2 -61.5 39t-43.5 79t-12 75.5zM340 1483q0 23 17 37t44 14q25 0 43.5 -14t18.5 -37t-18.5 -37t-43.5 -14q-27 0 -44 14.5 t-17 36.5zM485 1483q0 23 18.5 37t43.5 14q27 0 44 -14t17 -37t-17 -37t-44 -14q-25 0 -43.5 14.5t-18.5 36.5z" />
<glyph unicode="&#xc5;" d="M-13 533.5q3 33.5 33 31.5q39 -8 91 -12q2 74 2 143.5v129t-1 106.5t-3 72q-2 23 16 47t47 43.5t61.5 30t59 3t42 -34t7.5 -79.5q-4 -35 -9 -86t-11.5 -113.5t-11.5 -132.5t-9 -139q92 -2 182 2t168 10q2 78 5 152.5t4.5 136t1.5 106.5t-3 66q-6 63 -43.5 97t-93 48.5 t-121 13.5t-127 -10.5t-112.5 -20.5t-76 -18q-25 -6 -42 27t-19 78t13 88t56 57q33 12 101.5 23.5t152.5 13.5t173 -11t161 -52t117 -108.5t43 -178.5q-2 -59 -5 -148.5t-7.5 -194t-6.5 -212t-3 -201.5t1 -165.5t8 -102.5t-27.5 -48.5t-75.5 -19.5t-76 16.5t-29 59.5 q6 47 12 133t10 191q-86 4 -175 2t-175 -11q-4 -111 -4 -197.5t8 -121.5q8 -33 -25.5 -51.5t-75.5 -18.5t-77 19.5t-31 60.5t8 118t8 169q-33 2 -61.5 39t-43.5 79t-12 75.5zM371 1528q0 41 30.5 69t71.5 28q43 0 73.5 -28t30.5 -69t-30.5 -68.5t-73.5 -27.5 q-41 0 -71.5 27.5t-30.5 68.5zM436 1528q0 -16 10.5 -25.5t26.5 -9.5q39 0 39 35q0 14 -11.5 24.5t-27.5 10.5t-26.5 -10t-10.5 -25z" />
<glyph unicode="&#xc6;" horiz-adv-x="1507" d="M-7 528.5q3 32.5 34 30.5q20 -4 42.5 -6t47.5 -4q2 74 2 143.5v129t-2 106.5t-4 71q-2 23 17.5 47.5t48 44t61 29.5t59.5 3t41 -33.5t8 -79.5q-6 -35 -11 -86.5t-10 -113.5t-10.5 -132t-9.5 -139q90 -2 180.5 1t169.5 11q2 78 5.5 152.5t4.5 136t0 106.5t-3 66 q-6 61 -43 96t-92.5 49t-121 13t-128 -10t-113.5 -20.5t-76 -17.5t-41 27t-19 78t12 88t56 57q27 8 77 18.5t112.5 15.5t133.5 2t138 -17q16 12 51 8q74 -10 172.5 -15.5t201.5 -7.5t200.5 3t169.5 18q20 2 27.5 -14.5t4 -43t-15.5 -57.5t-29.5 -56.5t-39 -42t-44.5 -12.5 q-84 14 -176 22.5t-190 10.5q-10 -82 -18.5 -221t-16.5 -293q66 0 125 4t131 15q31 2 35 -32t-10.5 -75t-44 -74.5t-62.5 -27.5q-66 10 -105.5 15t-76.5 7q-4 -117 -6 -216t2 -165q109 0 212 8.5t201 24.5q23 4 44.5 -10t39 -39t29.5 -52.5t15.5 -52t-4 -40t-27.5 -13.5 q-59 8 -132 12.5t-151 5.5t-155.5 -3.5t-145.5 -10.5q-25 -6 -51.5 -5t-48 9.5t-34.5 24.5t-9 43q4 47 10 133t12 191q-88 4 -177 2t-175 -11q-4 -111 -4 -197.5t8 -121.5q8 -33 -25.5 -51.5t-75.5 -19.5t-77 18.5t-29 60.5q4 43 8 119t9 170q-33 2 -62 39t-44 79t-12 74.5z " />
<glyph unicode="&#xc7;" horiz-adv-x="919" d="M2 582q0 240 59.5 412.5t148.5 274t191.5 130t187.5 -19.5t136 -175t39 -336q-10 -61 -55 -89.5t-94.5 -29.5t-85 22.5t-27.5 64.5q18 162 -21 234.5t-96 47t-110.5 -153.5t-63.5 -366q-6 -145 17.5 -241.5t63.5 -144.5t89 -52t92 36t75 119.5t36 198.5q8 41 46 66.5 t79 30.5t73.5 -12t34.5 -60q-6 -123 -43 -222.5t-92 -172t-125 -115.5t-141 -54q-4 -10 -6 -18t-2 -14q49 -12 64 -46t1 -67t-53 -53.5t-96 -3.5q-18 4 -24.5 20.5t-4.5 31.5t12 26.5t25 7.5q25 -8 38 -5t13 9t-13.5 13t-41.5 9q-8 0 -10.5 7.5t-1.5 15.5t3.5 17t4.5 14 q2 6 3 15t5 21q-66 10 -125.5 51.5t-105.5 115t-72.5 183t-26.5 257.5z" />
<glyph unicode="&#xc8;" horiz-adv-x="962" d="M-14 1358.5q2 23.5 18 37t53 9.5q74 -10 173.5 -15.5t203 -6.5t200.5 3.5t169 16.5q31 2 33 -34t-15.5 -81t-49.5 -79.5t-64 -28.5q-86 14 -178.5 21t-190.5 9q-8 -82 -17.5 -220t-17.5 -292q66 -2 125 3.5t131 15.5q33 2 37 -32t-11.5 -76t-45 -75.5t-62.5 -27.5 q-66 10 -105.5 15t-74.5 7q-4 -117 -6 -216t2 -162q106 -2 211 7t203 25q23 4 44 -10t38.5 -38.5t29.5 -52.5t15.5 -52.5t-4 -40t-27.5 -13.5q-61 8 -156.5 11.5t-200 2.5t-204 -5t-166.5 -13q-49 -4 -63.5 19.5t-6.5 55.5t34 63.5t56 42.5q4 66 7 162t8 206q-6 0 -12.5 -1 t-12.5 -1q-35 -4 -58.5 30t-25.5 72.5t19.5 69.5t74.5 25q4 0 8.5 -1t8.5 -1q4 154 4 287t-4 204h-7q-23 -2 -46 13.5t-40.5 39t-26.5 51t-7 51zM375 1470q-6 18 2 34.5t23.5 26t34 9.5t28.5 -14q14 -25 41 -38.5t80 -9.5q10 2 14 -16t-6 -31q-18 -8 -51 -12t-67 -1 t-62.5 15.5t-36.5 36.5z" />
<glyph unicode="&#xc9;" horiz-adv-x="962" d="M-14 1358.5q2 23.5 18 37t53 9.5q74 -10 173.5 -15.5t203 -6.5t200.5 3.5t169 16.5q31 2 33 -34t-15.5 -81t-49.5 -79.5t-64 -28.5q-86 14 -178.5 21t-190.5 9q-8 -82 -17.5 -220t-17.5 -292q66 -2 125 3.5t131 15.5q33 2 37 -32t-11.5 -76t-45 -75.5t-62.5 -27.5 q-66 10 -105.5 15t-74.5 7q-4 -117 -6 -216t2 -162q106 -2 211 7t203 25q23 4 44 -10t38.5 -38.5t29.5 -52.5t15.5 -52.5t-4 -40t-27.5 -13.5q-61 8 -156.5 11.5t-200 2.5t-204 -5t-166.5 -13q-49 -4 -63.5 19.5t-6.5 55.5t34 63.5t56 42.5q4 66 7 162t8 206q-6 0 -12.5 -1 t-12.5 -1q-35 -4 -58.5 30t-25.5 72.5t19.5 69.5t74.5 25q4 0 8.5 -1t8.5 -1q4 154 4 287t-4 204h-7q-23 -2 -46 13.5t-40.5 39t-26.5 51t-7 51zM365 1461.5q4 18.5 14 16.5q53 -4 79.5 9.5t41.5 38.5q10 14 28.5 14t34 -9.5t23.5 -25.5t2 -35q-10 -25 -38 -37t-61.5 -15 t-66.5 1t-51 12q-10 12 -6 30.5z" />
<glyph unicode="&#xca;" horiz-adv-x="962" d="M-14 1358.5q2 23.5 18 37t53 9.5q74 -10 173.5 -15.5t203 -6.5t200.5 3.5t169 16.5q31 2 33 -34t-15.5 -81t-49.5 -79.5t-64 -28.5q-86 14 -178.5 21t-190.5 9q-8 -82 -17.5 -220t-17.5 -292q66 -2 125 3.5t131 15.5q33 2 37 -32t-11.5 -76t-45 -75.5t-62.5 -27.5 q-66 10 -105.5 15t-74.5 7q-4 -117 -6 -216t2 -162q106 -2 211 7t203 25q23 4 44 -10t38.5 -38.5t29.5 -52.5t15.5 -52.5t-4 -40t-27.5 -13.5q-61 8 -156.5 11.5t-200 2.5t-204 -5t-166.5 -13q-49 -4 -63.5 19.5t-6.5 55.5t34 63.5t56 42.5q4 66 7 162t8 206q-6 0 -12.5 -1 t-12.5 -1q-35 -4 -58.5 30t-25.5 72.5t19.5 69.5t74.5 25q4 0 8.5 -1t8.5 -1q4 154 4 287t-4 204h-7q-23 -2 -46 13.5t-40.5 39t-26.5 51t-7 51zM361 1443.5q-4 20.5 8 26.5q35 16 42 32.5t11 51.5q4 18 20.5 27.5t35.5 11.5h4h4q20 -2 35.5 -11t19.5 -30q4 -33 11 -49.5 t42 -32.5q12 -8 7 -27.5t-23 -25.5q-23 -2 -48.5 10.5t-47.5 30.5q-23 -18 -49.5 -30.5t-49.5 -10.5q-18 6 -22 26.5z" />
<glyph unicode="&#xcb;" horiz-adv-x="962" d="M-14 1358.5q2 23.5 18 37t53 9.5q74 -10 173.5 -15.5t203 -6.5t200.5 3.5t169 16.5q31 2 33 -34t-15.5 -81t-49.5 -79.5t-64 -28.5q-86 14 -178.5 21t-190.5 9q-8 -82 -17.5 -220t-17.5 -292q66 -2 125 3.5t131 15.5q33 2 37 -32t-11.5 -76t-45 -75.5t-62.5 -27.5 q-66 10 -105.5 15t-74.5 7q-4 -117 -6 -216t2 -162q106 -2 211 7t203 25q23 4 44 -10t38.5 -38.5t29.5 -52.5t15.5 -52.5t-4 -40t-27.5 -13.5q-61 8 -156.5 11.5t-200 2.5t-204 -5t-166.5 -13q-49 -4 -63.5 19.5t-6.5 55.5t34 63.5t56 42.5q4 66 7 162t8 206q-6 0 -12.5 -1 t-12.5 -1q-35 -4 -58.5 30t-25.5 72.5t19.5 69.5t74.5 25q4 0 8.5 -1t8.5 -1q4 154 4 287t-4 204h-7q-23 -2 -46 13.5t-40.5 39t-26.5 51t-7 51zM346 1470q0 23 17 37t44 14q25 0 43.5 -14t18.5 -37t-18.5 -37t-43.5 -14q-27 0 -44 14.5t-17 36.5zM491 1470q0 23 18.5 37 t43.5 14q27 0 44 -14t17 -37t-17 -37t-44 -14q-25 0 -43.5 14.5t-18.5 36.5z" />
<glyph unicode="&#xcc;" horiz-adv-x="966" d="M-12 1356.5q2 23.5 18.5 37t52.5 9.5q74 -10 173.5 -15.5t203 -6.5t200.5 3.5t169 16.5q31 2 33 -34t-15.5 -81t-49.5 -80t-64 -28q-41 6 -83 11t-85 9q-6 -57 -12.5 -142t-12.5 -182.5t-11 -201t-8 -199.5t-3 -180t2 -139q53 4 106.5 10t106.5 16q23 4 44 -10t38.5 -39 t30 -52.5t15.5 -52t-4.5 -40t-27.5 -13.5q-61 8 -156.5 11.5t-200 2.5t-204 -5.5t-166.5 -12.5q-55 -6 -67.5 24t2 66.5t47 66.5t67.5 28q86 -6 172 -7q4 59 7 147.5t6 191t4 211t2 206.5t0 179t-3 128q-53 0 -104 -2t-102 -6q-23 -2 -46.5 13.5t-41 39t-26.5 51t-7 51z M318 1470q-6 18 2 34.5t23.5 26t34 9.5t28.5 -14q14 -25 41 -38.5t80 -9.5q10 2 14 -16t-6 -31q-18 -8 -51 -12t-67 -1t-62.5 15.5t-36.5 36.5z" />
<glyph unicode="&#xcd;" horiz-adv-x="966" d="M-12 1356.5q2 23.5 18.5 37t52.5 9.5q74 -10 173.5 -15.5t203 -6.5t200.5 3.5t169 16.5q31 2 33 -34t-15.5 -81t-49.5 -80t-64 -28q-41 6 -83 11t-85 9q-6 -57 -12.5 -142t-12.5 -182.5t-11 -201t-8 -199.5t-3 -180t2 -139q53 4 106.5 10t106.5 16q23 4 44 -10t38.5 -39 t30 -52.5t15.5 -52t-4.5 -40t-27.5 -13.5q-61 8 -156.5 11.5t-200 2.5t-204 -5.5t-166.5 -12.5q-55 -6 -67.5 24t2 66.5t47 66.5t67.5 28q86 -6 172 -7q4 59 7 147.5t6 191t4 211t2 206.5t0 179t-3 128q-53 0 -104 -2t-102 -6q-23 -2 -46.5 13.5t-41 39t-26.5 51t-7 51z M308 1461.5q4 18.5 14 16.5q53 -4 79.5 9.5t41.5 38.5q10 14 28.5 14t34 -9.5t23.5 -25.5t2 -35q-10 -25 -38 -37t-61.5 -15t-66.5 1t-51 12q-10 12 -6 30.5z" />
<glyph unicode="&#xce;" horiz-adv-x="966" d="M-12 1356.5q2 23.5 18.5 37t52.5 9.5q74 -10 173.5 -15.5t203 -6.5t200.5 3.5t169 16.5q31 2 33 -34t-15.5 -81t-49.5 -80t-64 -28q-41 6 -83 11t-85 9q-6 -57 -12.5 -142t-12.5 -182.5t-11 -201t-8 -199.5t-3 -180t2 -139q53 4 106.5 10t106.5 16q23 4 44 -10t38.5 -39 t30 -52.5t15.5 -52t-4.5 -40t-27.5 -13.5q-61 8 -156.5 11.5t-200 2.5t-204 -5.5t-166.5 -12.5q-55 -6 -67.5 24t2 66.5t47 66.5t67.5 28q86 -6 172 -7q4 59 7 147.5t6 191t4 211t2 206.5t0 179t-3 128q-53 0 -104 -2t-102 -6q-23 -2 -46.5 13.5t-41 39t-26.5 51t-7 51z M307 1443.5q-4 20.5 8 26.5q35 16 42 32.5t11 51.5q4 18 20.5 27.5t35.5 11.5h4h4q20 -2 35.5 -11t19.5 -30q4 -33 11 -49.5t42 -32.5q12 -8 7 -27.5t-23 -25.5q-23 -2 -48.5 10.5t-47.5 30.5q-23 -18 -49.5 -30.5t-49.5 -10.5q-18 6 -22 26.5z" />
<glyph unicode="&#xcf;" horiz-adv-x="966" d="M-12 1356.5q2 23.5 18.5 37t52.5 9.5q74 -10 173.5 -15.5t203 -6.5t200.5 3.5t169 16.5q31 2 33 -34t-15.5 -81t-49.5 -80t-64 -28q-41 6 -83 11t-85 9q-6 -57 -12.5 -142t-12.5 -182.5t-11 -201t-8 -199.5t-3 -180t2 -139q53 4 106.5 10t106.5 16q23 4 44 -10t38.5 -39 t30 -52.5t15.5 -52t-4.5 -40t-27.5 -13.5q-61 8 -156.5 11.5t-200 2.5t-204 -5.5t-166.5 -12.5q-55 -6 -67.5 24t2 66.5t47 66.5t67.5 28q86 -6 172 -7q4 59 7 147.5t6 191t4 211t2 206.5t0 179t-3 128q-53 0 -104 -2t-102 -6q-23 -2 -46.5 13.5t-41 39t-26.5 51t-7 51z M291 1470q0 23 17 37t44 14q25 0 43.5 -14t18.5 -37t-18.5 -37t-43.5 -14q-27 0 -44 14.5t-17 36.5zM436 1470q0 23 18.5 37t43.5 14q27 0 44 -14t17 -37t-17 -37t-44 -14q-25 0 -43.5 14.5t-18.5 36.5z" />
<glyph unicode="&#xd0;" horiz-adv-x="1007" d="M-12 620.5q-2 38.5 18.5 69.5t73.5 27q14 -2 27.5 -3t27.5 -1q0 76 1 149.5t1 138t-1 115.5t-3 86q-8 -2 -18 -2q-23 -2 -46.5 13.5t-41 39t-26.5 51t-7 51t18.5 37t53.5 9.5q16 -2 66 -2t107.5 1t109.5 2t75 -1q129 0 225 -61.5t157.5 -162t87.5 -228.5t13.5 -262 t-62.5 -262t-141.5 -228.5t-221.5 -162t-304 -61.5q-59 0 -92 -3t-72 -1q-18 2 -22 25.5t8 53.5t41 57.5t76 35.5q4 66 7 166.5t7 216.5q-14 -2 -29.5 -3t-31.5 -1q-35 -2 -57.5 30t-24.5 70.5zM310 323.5q-1 -92.5 1 -157.5q113 29 192 88t129 137t73.5 168t22.5 180 t-23.5 173t-64.5 147.5t-100.5 104.5t-129.5 42h-50q-10 -80 -19 -215t-17 -286q35 2 73.5 5t81.5 9q31 2 35 -32t-10.5 -76t-43 -75.5t-61.5 -27.5q-25 4 -45 6t-39 6q-4 -104 -5 -196.5z" />
<glyph unicode="&#xd1;" horiz-adv-x="935" d="M0 53q4 43 9 140.5t8 222.5t5.5 261t3.5 258t0 214t-6 127q-4 31 30 64.5t77 50t81 9.5t46 -59q2 -2 19.5 -48t46 -118.5t65.5 -166t77 -190.5t81 -192.5t75 -170.5q2 123 5.5 254t3.5 245.5t-1 201.5t-5 120q-2 23 16 47.5t47 43.5t61.5 29.5t59 3.5t42 -34t7.5 -80 q-6 -49 -14.5 -152.5t-15.5 -231.5t-13 -267t-8 -261t-1 -212t7 -119q6 -27 -14.5 -43t-51 -22.5t-65.5 -2t-55 22.5q-23 12 -29 41q-8 41 -46 133t-90 210t-114.5 249t-120.5 248q-6 -127 -12 -262.5t-9 -253t-1 -204.5t8 -116q8 -33 -25.5 -51.5t-75.5 -18.5t-77 19.5 t-31 60.5zM348 1448.5q-3 19.5 4 38t25 22.5q27 12 43.5 10t31.5 -6t34.5 -6t54.5 8q12 4 19.5 -7t8.5 -26.5t-4 -33t-18 -25.5q-31 -14 -47 -12t-28.5 7t-27.5 7t-46 -10q-23 -10 -35 2t-15 31.5z" />
<glyph unicode="&#xd2;" d="M9 1007.5q-7 49.5 4 105t44 104.5q51 80 139.5 132t185.5 64t192.5 -21.5t163 -125.5t96 -248t-6.5 -389q-35 -229 -115.5 -379t-180 -218.5t-204 -56t-183 106.5t-119.5 272t-15 443q4 35 34 55t67 25q-43 10 -69 45.5t-33 85zM123 879q37 4 67.5 -10.5t40.5 -43.5 q-31 -229 -19.5 -379.5t48.5 -228.5t91.5 -86t108.5 47t99.5 170t65.5 285q18 184 -4.5 300t-68.5 174t-109.5 64.5t-125 -28.5t-113.5 -103.5t-79 -158.5zM328 1497q-6 18 2 34.5t23.5 26t34 9.5t28.5 -14q14 -25 41 -38.5t80 -9.5q10 2 14 -16t-6 -31q-18 -8 -51 -12 t-67 -1t-62.5 15.5t-36.5 36.5z" />
<glyph unicode="&#xd3;" d="M9 1007.5q-7 49.5 4 105t44 104.5q51 80 139.5 132t185.5 64t192.5 -21.5t163 -125.5t96 -248t-6.5 -389q-35 -229 -115.5 -379t-180 -218.5t-204 -56t-183 106.5t-119.5 272t-15 443q4 35 34 55t67 25q-43 10 -69 45.5t-33 85zM123 879q37 4 67.5 -10.5t40.5 -43.5 q-31 -229 -19.5 -379.5t48.5 -228.5t91.5 -86t108.5 47t99.5 170t65.5 285q18 184 -4.5 300t-68.5 174t-109.5 64.5t-125 -28.5t-113.5 -103.5t-79 -158.5zM326 1488.5q4 18.5 14 16.5q53 -4 79.5 9.5t41.5 38.5q10 14 28.5 14t34 -9.5t23.5 -25.5t2 -35q-10 -25 -38 -37 t-61.5 -15t-66.5 1t-51 12q-10 12 -6 30.5z" />
<glyph unicode="&#xd4;" d="M9 1007.5q-7 49.5 4 105t44 104.5q51 80 139.5 132t185.5 64t192.5 -21.5t163 -125.5t96 -248t-6.5 -389q-35 -229 -115.5 -379t-180 -218.5t-204 -56t-183 106.5t-119.5 272t-15 443q4 35 34 55t67 25q-43 10 -69 45.5t-33 85zM123 879q37 4 67.5 -10.5t40.5 -43.5 q-31 -229 -19.5 -379.5t48.5 -228.5t91.5 -86t108.5 47t99.5 170t65.5 285q18 184 -4.5 300t-68.5 174t-109.5 64.5t-125 -28.5t-113.5 -103.5t-79 -158.5zM305 1464.5q-4 20.5 8 26.5q35 16 42 32.5t11 51.5q4 18 20.5 27.5t35.5 11.5h4h4q20 -2 35.5 -11t19.5 -30 q4 -33 11 -49.5t42 -32.5q12 -8 7 -27.5t-23 -25.5q-23 -2 -48.5 10.5t-47.5 30.5q-23 -18 -49.5 -30.5t-49.5 -10.5q-18 6 -22 26.5z" />
<glyph unicode="&#xd5;" d="M9 1007.5q-7 49.5 4 105t44 104.5q51 80 139.5 132t185.5 64t192.5 -21.5t163 -125.5t96 -248t-6.5 -389q-35 -229 -115.5 -379t-180 -218.5t-204 -56t-183 106.5t-119.5 272t-15 443q4 35 34 55t67 25q-43 10 -69 45.5t-33 85zM123 879q37 4 67.5 -10.5t40.5 -43.5 q-31 -229 -19.5 -379.5t48.5 -228.5t91.5 -86t108.5 47t99.5 170t65.5 285q18 184 -4.5 300t-68.5 174t-109.5 64.5t-125 -28.5t-113.5 -103.5t-79 -158.5zM323 1475.5q-3 19.5 4 38t25 22.5q27 12 43.5 10t31.5 -6t34.5 -6t54.5 8q12 4 19.5 -7t8.5 -26.5t-4 -33t-18 -25.5 q-31 -14 -47 -12t-28.5 7t-27.5 7t-46 -10q-23 -10 -35 2t-15 31.5z" />
<glyph unicode="&#xd6;" d="M9 1007.5q-7 49.5 4 105t44 104.5q51 80 139.5 132t185.5 64t192.5 -21.5t163 -125.5t96 -248t-6.5 -389q-35 -229 -115.5 -379t-180 -218.5t-204 -56t-183 106.5t-119.5 272t-15 443q4 35 34 55t67 25q-43 10 -69 45.5t-33 85zM123 879q37 4 67.5 -10.5t40.5 -43.5 q-31 -229 -19.5 -379.5t48.5 -228.5t91.5 -86t108.5 47t99.5 170t65.5 285q18 184 -4.5 300t-68.5 174t-109.5 64.5t-125 -28.5t-113.5 -103.5t-79 -158.5zM291 1487q0 23 17 37t44 14q25 0 43.5 -14t18.5 -37t-18.5 -37t-43.5 -14q-27 0 -44 14.5t-17 36.5zM436 1487 q0 23 18.5 37t43.5 14q27 0 44 -14t17 -37t-17 -37t-44 -14q-25 0 -43.5 14.5t-18.5 36.5z" />
<glyph unicode="&#xd7;" horiz-adv-x="708" d="M89 98q-7 39 36 76q18 16 35.5 31.5t34.5 30.5q-16 14 -33 29.5t-37 33.5q-29 25 -21.5 66t33 70.5t65.5 36.5t77 -36q16 -16 29.5 -32.5t27.5 -32.5q23 25 46.5 51.5t45.5 58.5q20 25 49 2.5t49.5 -63.5t23.5 -88t-26 -68q-16 -10 -28.5 -19t-24.5 -18q47 -45 113 -94 q27 -23 4 -50.5t-65 -47t-88 -22.5t-66 26q-12 16 -21.5 29.5t-19.5 25.5q-16 -16 -30.5 -33.5t-35.5 -37.5q-25 -29 -65.5 -22t-70.5 32.5t-37 64.5z" />
<glyph unicode="&#xd8;" d="M9 1007.5q-7 49.5 4 105t44 104.5q43 66 111 113.5t146.5 69t161.5 14.5t155 -50q33 12 70.5 13t62 -12t31 -45t-20.5 -87q-2 -4 -4 -7t-4 -7q53 -94 72.5 -238.5t-11.5 -351.5q-29 -197 -93 -334t-146 -216t-172 -99.5t-170 20.5q-27 -4 -57.5 3t-53 23.5t-33 41 t3.5 53.5l5 8q-66 100 -94.5 266t-6.5 402q4 35 34 55t67 25q-43 10 -69 45.5t-33 85zM123 879q37 4 67.5 -10.5t40.5 -43.5q-20 -141 -22 -250.5t8 -191.5q35 88 75 191.5t79 206t73.5 198.5t59.5 170q-49 29 -105.5 20.5t-109.5 -45.5t-97.5 -100t-66.5 -143zM322 141 q41 -23 87 -1t89 85.5t77 166t50 241.5q14 162 0 270q-41 -98 -86 -204.5t-86 -209t-76 -193.5t-55 -155z" />
<glyph unicode="&#xd9;" horiz-adv-x="935" d="M0 719q4 250 72 604q10 53 49 67.5t82 6.5t77.5 -29.5t34.5 -40.5q-78 -299 -106.5 -512t-22 -353t40 -214t80.5 -97.5t101.5 -3t100.5 69.5t77.5 121t36.5 151q2 119 4 246t2 236.5t-1 191.5t-5 113q-2 23 16 47.5t47 43.5t61.5 29.5t59.5 3.5t42 -34t7 -80 q-6 -49 -14 -152.5t-15.5 -231.5t-13.5 -267t-8 -261t-1 -212t7 -119q8 -33 -25.5 -51.5t-75.5 -18.5t-77 19.5t-29 60.5q2 16 3 40t3 52q-66 -90 -149.5 -136t-165.5 -33.5t-152.5 92t-108.5 240.5t-34 411zM361 1470q-6 18 2 34.5t23.5 26t34 9.5t28.5 -14 q14 -25 41 -38.5t80 -9.5q10 2 14 -16t-6 -31q-18 -8 -51 -12t-67 -1t-62.5 15.5t-36.5 36.5z" />
<glyph unicode="&#xda;" horiz-adv-x="935" d="M0 719q4 250 72 604q10 53 49 67.5t82 6.5t77.5 -29.5t34.5 -40.5q-78 -299 -106.5 -512t-22 -353t40 -214t80.5 -97.5t101.5 -3t100.5 69.5t77.5 121t36.5 151q2 119 4 246t2 236.5t-1 191.5t-5 113q-2 23 16 47.5t47 43.5t61.5 29.5t59.5 3.5t42 -34t7 -80 q-6 -49 -14 -152.5t-15.5 -231.5t-13.5 -267t-8 -261t-1 -212t7 -119q8 -33 -25.5 -51.5t-75.5 -18.5t-77 19.5t-29 60.5q2 16 3 40t3 52q-66 -90 -149.5 -136t-165.5 -33.5t-152.5 92t-108.5 240.5t-34 411zM363 1461.5q4 18.5 14 16.5q53 -4 79.5 9.5t41.5 38.5 q10 14 28.5 14t34 -9.5t23.5 -25.5t2 -35q-10 -25 -38 -37t-61.5 -15t-66.5 1t-51 12q-10 12 -6 30.5z" />
<glyph unicode="&#xdb;" horiz-adv-x="935" d="M0 719q4 250 72 604q10 53 49 67.5t82 6.5t77.5 -29.5t34.5 -40.5q-78 -299 -106.5 -512t-22 -353t40 -214t80.5 -97.5t101.5 -3t100.5 69.5t77.5 121t36.5 151q2 119 4 246t2 236.5t-1 191.5t-5 113q-2 23 16 47.5t47 43.5t61.5 29.5t59.5 3.5t42 -34t7 -80 q-6 -49 -14 -152.5t-15.5 -231.5t-13.5 -267t-8 -261t-1 -212t7 -119q8 -33 -25.5 -51.5t-75.5 -18.5t-77 19.5t-29 60.5q2 16 3 40t3 52q-66 -90 -149.5 -136t-165.5 -33.5t-152.5 92t-108.5 240.5t-34 411zM352 1443.5q-4 20.5 8 26.5q35 16 42 32.5t11 51.5 q4 18 20.5 27.5t35.5 11.5h4h4q20 -2 35.5 -11t19.5 -30q4 -33 11 -49.5t42 -32.5q12 -8 7 -27.5t-23 -25.5q-23 -2 -48.5 10.5t-47.5 30.5q-23 -18 -49.5 -30.5t-49.5 -10.5q-18 6 -22 26.5z" />
<glyph unicode="&#xdc;" horiz-adv-x="935" d="M0 719q4 250 72 604q10 53 49 67.5t82 6.5t77.5 -29.5t34.5 -40.5q-78 -299 -106.5 -512t-22 -353t40 -214t80.5 -97.5t101.5 -3t100.5 69.5t77.5 121t36.5 151q2 119 4 246t2 236.5t-1 191.5t-5 113q-2 23 16 47.5t47 43.5t61.5 29.5t59.5 3.5t42 -34t7 -80 q-6 -49 -14 -152.5t-15.5 -231.5t-13.5 -267t-8 -261t-1 -212t7 -119q8 -33 -25.5 -51.5t-75.5 -18.5t-77 19.5t-29 60.5q2 16 3 40t3 52q-66 -90 -149.5 -136t-165.5 -33.5t-152.5 92t-108.5 240.5t-34 411zM334 1470q0 23 17 37t44 14q25 0 43.5 -14t18.5 -37t-18.5 -37 t-43.5 -14q-27 0 -44 14.5t-17 36.5zM479 1470q0 23 18.5 37t43.5 14q27 0 44 -14t17 -37t-17 -37t-44 -14q-25 0 -43.5 14.5t-18.5 36.5z" />
<glyph unicode="&#xdd;" horiz-adv-x="886" d="M4 968.5q10 151.5 51 354.5q12 53 53.5 67.5t86.5 6.5t81.5 -29.5t36.5 -40.5q-66 -207 -82 -364.5t2.5 -264t60.5 -162t92 -59.5t99.5 46t81 152.5t36.5 260.5t-34 371q-2 23 32 49t77 39.5t81 3t44 -59.5q31 -246 15.5 -428t-61.5 -307t-117 -195.5t-153 -93.5 q-2 -100 0 -172.5t9 -99.5q8 -33 -28 -51.5t-80 -18.5t-81 19.5t-33 60.5q4 33 7.5 99.5t7.5 156.5q-41 8 -86 29.5t-85 67t-70 118t-42 183t-2 262zM326 1461.5q4 18.5 14 16.5q53 -4 79.5 9.5t41.5 38.5q10 14 28.5 14t34 -9.5t23.5 -25.5t2 -35q-10 -25 -38 -37 t-61.5 -15t-66.5 1t-51 12q-10 12 -6 30.5z" />
<glyph unicode="&#xe0;" horiz-adv-x="704" d="M-18 274q0 109 46 176.5t111.5 97.5t137 24.5t122.5 -40.5v23q-2 39 -37.5 54.5t-85 15.5t-103.5 -10.5t-93 -20.5q-25 -6 -42.5 26.5t-19.5 77.5t13.5 89t56.5 59q33 10 82 17t103.5 3t108.5 -19.5t98 -49t72 -86t30 -129.5q2 -88 0 -162t-4.5 -137.5t-2 -116.5 t10.5 -98q6 -29 -26 -47.5t-71.5 -20.5t-74.5 13.5t-37 52.5q-49 -49 -118 -61.5t-130 13t-104 89t-43 167.5zM143 270q0 -59 30 -95t70 -47t82 5.5t64 61.5q4 43 6 86t4 84q-18 51 -59 69.5t-84 5t-77 -56.5t-36 -113zM187 948q-6 18 2 34.5t23.5 26t34 9.5t28.5 -14 q14 -25 41 -38.5t80 -9.5q10 2 14 -16t-6 -31q-18 -8 -51 -12t-67 -1t-62.5 15.5t-36.5 36.5z" />
<glyph unicode="&#xe1;" horiz-adv-x="704" d="M-18 274q0 109 46 176.5t111.5 97.5t137 24.5t122.5 -40.5v23q-2 39 -37.5 54.5t-85 15.5t-103.5 -10.5t-93 -20.5q-25 -6 -42.5 26.5t-19.5 77.5t13.5 89t56.5 59q33 10 82 17t103.5 3t108.5 -19.5t98 -49t72 -86t30 -129.5q2 -88 0 -162t-4.5 -137.5t-2 -116.5 t10.5 -98q6 -29 -26 -47.5t-71.5 -20.5t-74.5 13.5t-37 52.5q-49 -49 -118 -61.5t-130 13t-104 89t-43 167.5zM143 270q0 -59 30 -95t70 -47t82 5.5t64 61.5q4 43 6 86t4 84q-18 51 -59 69.5t-84 5t-77 -56.5t-36 -113zM173 939.5q4 18.5 14 16.5q53 -4 79.5 9.5t41.5 38.5 q10 14 28.5 14t34 -9.5t23.5 -25.5t2 -35q-10 -25 -38 -37t-61.5 -15t-66.5 1t-51 12q-10 12 -6 30.5z" />
<glyph unicode="&#xe2;" horiz-adv-x="704" d="M-18 274q0 109 46 176.5t111.5 97.5t137 24.5t122.5 -40.5v23q-2 39 -37.5 54.5t-85 15.5t-103.5 -10.5t-93 -20.5q-25 -6 -42.5 26.5t-19.5 77.5t13.5 89t56.5 59q33 10 82 17t103.5 3t108.5 -19.5t98 -49t72 -86t30 -129.5q2 -88 0 -162t-4.5 -137.5t-2 -116.5 t10.5 -98q6 -29 -26 -47.5t-71.5 -20.5t-74.5 13.5t-37 52.5q-49 -49 -118 -61.5t-130 13t-104 89t-43 167.5zM143 270q0 -59 30 -95t70 -47t82 5.5t64 61.5q4 43 6 86t4 84q-18 51 -59 69.5t-84 5t-77 -56.5t-36 -113zM178 921.5q-4 20.5 8 26.5q35 16 42 32.5t11 51.5 q4 18 20.5 27.5t35.5 11.5h4h4q20 -2 35.5 -11t19.5 -30q4 -33 11 -49.5t42 -32.5q12 -8 7 -27.5t-23 -25.5q-23 -2 -48.5 10.5t-47.5 30.5q-23 -18 -49.5 -30.5t-49.5 -10.5q-18 6 -22 26.5z" />
<glyph unicode="&#xe3;" horiz-adv-x="704" d="M-18 274q0 109 46 176.5t111.5 97.5t137 24.5t122.5 -40.5v23q-2 39 -37.5 54.5t-85 15.5t-103.5 -10.5t-93 -20.5q-25 -6 -42.5 26.5t-19.5 77.5t13.5 89t56.5 59q33 10 82 17t103.5 3t108.5 -19.5t98 -49t72 -86t30 -129.5q2 -88 0 -162t-4.5 -137.5t-2 -116.5 t10.5 -98q6 -29 -26 -47.5t-71.5 -20.5t-74.5 13.5t-37 52.5q-49 -49 -118 -61.5t-130 13t-104 89t-43 167.5zM143 270q0 -59 30 -95t70 -47t82 5.5t64 61.5q4 43 6 86t4 84q-18 51 -59 69.5t-84 5t-77 -56.5t-36 -113zM178 926.5q-3 19.5 4 38t25 22.5q27 12 43.5 10 t31.5 -6t34.5 -6t54.5 8q12 4 19.5 -7t8.5 -26.5t-4 -33t-18 -25.5q-31 -14 -47 -12t-28.5 7t-27.5 7t-46 -10q-23 -10 -35 2t-15 31.5z" />
<glyph unicode="&#xe4;" horiz-adv-x="704" d="M-18 274q0 109 46 176.5t111.5 97.5t137 24.5t122.5 -40.5v23q-2 39 -37.5 54.5t-85 15.5t-103.5 -10.5t-93 -20.5q-25 -6 -42.5 26.5t-19.5 77.5t13.5 89t56.5 59q33 10 82 17t103.5 3t108.5 -19.5t98 -49t72 -86t30 -129.5q2 -88 0 -162t-4.5 -137.5t-2 -116.5 t10.5 -98q6 -29 -26 -47.5t-71.5 -20.5t-74.5 13.5t-37 52.5q-49 -49 -118 -61.5t-130 13t-104 89t-43 167.5zM143 270q0 -59 30 -95t70 -47t82 5.5t64 61.5q4 43 6 86t4 84q-18 51 -59 69.5t-84 5t-77 -56.5t-36 -113zM147 948q0 23 17 37t44 14q25 0 43.5 -14t18.5 -37 t-18.5 -37t-43.5 -14q-27 0 -44 14.5t-17 36.5zM292 948q0 23 18.5 37t43.5 14q27 0 44 -14t17 -37t-17 -37t-44 -14q-25 0 -43.5 14.5t-18.5 36.5z" />
<glyph unicode="&#xe5;" horiz-adv-x="704" d="M-18 274q0 109 46 176.5t111.5 97.5t137 24.5t122.5 -40.5v23q-2 39 -37.5 54.5t-85 15.5t-103.5 -10.5t-93 -20.5q-25 -6 -42.5 26.5t-19.5 77.5t13.5 89t56.5 59q33 10 82 17t103.5 3t108.5 -19.5t98 -49t72 -86t30 -129.5q2 -88 0 -162t-4.5 -137.5t-2 -116.5 t10.5 -98q6 -29 -26 -47.5t-71.5 -20.5t-74.5 13.5t-37 52.5q-49 -49 -118 -61.5t-130 13t-104 89t-43 167.5zM143 270q0 -59 30 -95t70 -47t82 5.5t64 61.5q4 43 6 86t4 84q-18 51 -59 69.5t-84 5t-77 -56.5t-36 -113zM187 993q0 41 30.5 69t71.5 28q43 0 73.5 -28 t30.5 -69t-30.5 -68.5t-73.5 -27.5q-41 0 -71.5 27.5t-30.5 68.5zM252 993q0 -16 10.5 -25.5t26.5 -9.5q39 0 39 35q0 14 -11.5 24.5t-27.5 10.5t-26.5 -10t-10.5 -25z" />
<glyph unicode="&#xe6;" horiz-adv-x="1173" d="M0 270q0 109 46 175.5t111.5 96t137.5 24.5t123 -40q0 6 -1 12.5t-1 12.5q-2 39 -38 53t-85 14t-103.5 -10t-91.5 -20q-25 -6 -42 26.5t-19 77.5t13.5 89t55.5 59q37 12 95.5 18t121 -1t121 -32.5t99.5 -76.5q51 57 118.5 88.5t153.5 23.5t135 -62.5t63.5 -130t-6 -157.5 t-72.5 -142.5t-137 -88t-200 7.5q8 -90 57.5 -130t105.5 -34t104.5 58.5t56.5 146.5q6 25 30.5 39t51 17t48 -8t21.5 -38q2 -76 -28.5 -138.5t-80 -107.5t-110.5 -69.5t-119 -22.5q-76 0 -137 33q-14 -20 -47 -30.5t-67.5 -8.5t-61.5 18.5t-27 46.5q-49 -49 -117.5 -61 t-130 13.5t-104.5 90t-43 168.5zM162 266q-2 -59 27.5 -96t70.5 -48t82 5t64 61q4 43 6 86t4 84q-16 51 -58.5 69.5t-85.5 5.5t-75.5 -55t-34.5 -112zM612 430q84 -39 142.5 -16.5t86 66.5t20.5 90.5t-54 58.5q-37 8 -68.5 -7.5t-56.5 -45t-42 -68.5t-28 -78z" />
<glyph unicode="&#xe7;" horiz-adv-x="722" d="M0 369q0 145 44 249.5t108.5 165t139.5 77t138.5 -13.5t103 -105.5t35.5 -198.5q0 -35 -36.5 -52.5t-79.5 -18.5t-77 12.5t-28 37.5q4 61 -18.5 94t-53 24t-60.5 -71.5t-36 -191.5q-4 -86 11.5 -142.5t41 -84t56 -28.5t59.5 22.5t49.5 69.5t24.5 114q6 25 35.5 40 t63.5 18t60.5 -7t26.5 -37q-4 -74 -30.5 -134.5t-67.5 -104.5t-92 -70.5t-105 -32.5q-4 -16 -4 -20q49 -12 64.5 -46t1 -67t-53 -53.5t-98.5 -6.5q-18 4 -24 20.5t-3 33t12 28t25 5.5q23 -6 36.5 -4.5t14.5 8t-12.5 13.5t-42.5 11q-8 0 -10 7.5t-1 15.5t3 17t2 13 q2 4 3 10.5t5 16.5q-47 8 -89 33.5t-73.5 71t-50 111t-18.5 151.5z" />
<glyph unicode="&#xe8;" horiz-adv-x="745" d="M-17.5 448.5q11.5 114.5 60.5 209t133 153.5t201 49q86 -8 135 -62.5t62.5 -130t-6 -157.5t-73 -142.5t-137.5 -88t-198 7.5q8 -82 57 -117t105.5 -26.5t104.5 55.5t56 129q6 25 34 39t56.5 17t52 -8t23.5 -38q2 -74 -31.5 -137.5t-86 -108.5t-115 -69.5t-119.5 -22.5 q-121 2 -193.5 69.5t-102.5 166t-18.5 213zM172 430q84 -37 143.5 -15.5t87 66.5t20.5 91.5t-54 58.5q-37 8 -69 -7.5t-56.5 -45t-43 -69.5t-28.5 -79zM266 948q-6 18 2 34.5t23.5 26t34 9.5t28.5 -14q14 -25 41 -38.5t80 -9.5q10 2 14 -16t-6 -31q-18 -8 -51 -12t-67 -1 t-62.5 15.5t-36.5 36.5z" />
<glyph unicode="&#xe9;" horiz-adv-x="745" d="M-17.5 448.5q11.5 114.5 60.5 209t133 153.5t201 49q86 -8 135 -62.5t62.5 -130t-6 -157.5t-73 -142.5t-137.5 -88t-198 7.5q8 -82 57 -117t105.5 -26.5t104.5 55.5t56 129q6 25 34 39t56.5 17t52 -8t23.5 -38q2 -74 -31.5 -137.5t-86 -108.5t-115 -69.5t-119.5 -22.5 q-121 2 -193.5 69.5t-102.5 166t-18.5 213zM172 430q84 -37 143.5 -15.5t87 66.5t20.5 91.5t-54 58.5q-37 8 -69 -7.5t-56.5 -45t-43 -69.5t-28.5 -79zM256 939.5q4 18.5 14 16.5q53 -4 79.5 9.5t41.5 38.5q10 14 28.5 14t34 -9.5t23.5 -25.5t2 -35q-10 -25 -38 -37 t-61.5 -15t-66.5 1t-51 12q-10 12 -6 30.5z" />
<glyph unicode="&#xea;" horiz-adv-x="745" d="M-17.5 448.5q11.5 114.5 60.5 209t133 153.5t201 49q86 -8 135 -62.5t62.5 -130t-6 -157.5t-73 -142.5t-137.5 -88t-198 7.5q8 -82 57 -117t105.5 -26.5t104.5 55.5t56 129q6 25 34 39t56.5 17t52 -8t23.5 -38q2 -74 -31.5 -137.5t-86 -108.5t-115 -69.5t-119.5 -22.5 q-121 2 -193.5 69.5t-102.5 166t-18.5 213zM172 430q84 -37 143.5 -15.5t87 66.5t20.5 91.5t-54 58.5q-37 8 -69 -7.5t-56.5 -45t-43 -69.5t-28.5 -79zM234 921.5q-4 20.5 8 26.5q35 16 42 32.5t11 51.5q4 18 20.5 27.5t35.5 11.5h4h4q20 -2 35.5 -11t19.5 -30 q4 -33 11 -49.5t42 -32.5q12 -8 7 -27.5t-23 -25.5q-23 -2 -48.5 10.5t-47.5 30.5q-23 -18 -49.5 -30.5t-49.5 -10.5q-18 6 -22 26.5z" />
<glyph unicode="&#xeb;" horiz-adv-x="745" d="M-17.5 448.5q11.5 114.5 60.5 209t133 153.5t201 49q86 -8 135 -62.5t62.5 -130t-6 -157.5t-73 -142.5t-137.5 -88t-198 7.5q8 -82 57 -117t105.5 -26.5t104.5 55.5t56 129q6 25 34 39t56.5 17t52 -8t23.5 -38q2 -74 -31.5 -137.5t-86 -108.5t-115 -69.5t-119.5 -22.5 q-121 2 -193.5 69.5t-102.5 166t-18.5 213zM172 430q84 -37 143.5 -15.5t87 66.5t20.5 91.5t-54 58.5q-37 8 -69 -7.5t-56.5 -45t-43 -69.5t-28.5 -79zM219 948q0 23 17 37t44 14q25 0 43.5 -14t18.5 -37t-18.5 -37t-43.5 -14q-27 0 -44 14.5t-17 36.5zM364 948 q0 23 18.5 37t43.5 14q27 0 44 -14t17 -37t-17 -37t-44 -14q-25 0 -43.5 14.5t-18.5 36.5z" />
<glyph unicode="&#xec;" horiz-adv-x="339" d="M-4 950q-6 18 2 34.5t23.5 26t34 9.5t28.5 -14q14 -25 41 -38.5t80 -9.5q10 2 14 -16t-6 -31q-18 -8 -51 -12t-67 -1t-62.5 15.5t-36.5 36.5zM0 741q-4 37 34 62.5t83 30t79.5 -19t26.5 -81.5q-8 -59 -17 -141t-13.5 -173t-4.5 -182.5t11 -164.5q4 -31 -29 -50.5 t-73 -21.5t-70.5 15.5t-24.5 64.5q8 63 12 155.5t2 187.5t-6 181t-10 137z" />
<glyph unicode="&#xed;" horiz-adv-x="339" d="M-2 939.5q4 18.5 14 16.5q53 -4 80 9.5t41 38.5q10 14 28.5 14t34 -9.5t23.5 -25.5t2 -35q-10 -25 -37.5 -37t-61.5 -15t-66.5 1t-51.5 12q-10 12 -6 30.5zM0 748q6 -51 10 -138.5t6 -183.5t-2 -189.5t-12 -156.5q-6 -47 24.5 -64.5t70.5 -15.5t73 21.5t29 50.5 q-10 74 -10.5 166t4 184t13.5 175t17 142q8 57 -26.5 81t-79.5 20t-83 -29.5t-34 -62.5z" />
<glyph unicode="&#xee;" horiz-adv-x="339" d="M0 748q-4 37 34 62.5t83 29.5t79.5 -19.5t26.5 -81.5q-8 -59 -17 -142t-13.5 -175t-4.5 -184.5t11 -165.5q4 -31 -29 -50.5t-73 -21.5t-70.5 15.5t-24.5 64.5q8 63 12 156.5t2 189.5t-6 183.5t-10 138.5zM0.5 921.5q-4.5 20.5 7.5 26.5q35 16 42 32.5t11 51.5 q4 18 20.5 27.5t35.5 11.5h8q20 -2 35.5 -11t19.5 -30q4 -33 11 -49.5t42 -32.5q12 -8 7.5 -27.5t-23.5 -25.5q-23 -2 -48.5 10.5t-47.5 30.5q-23 -18 -49.5 -30.5t-48.5 -10.5q-18 6 -22.5 26.5z" />
<glyph unicode="&#xef;" horiz-adv-x="339" d="M-16 948q0 23 17 37t44 14q25 0 43 -14t18 -37t-18 -37t-43 -14q-27 0 -44 14.5t-17 36.5zM0 754q-4 37 34 62.5t83 29.5t79.5 -19.5t26.5 -81.5q-8 -59 -17 -143t-13.5 -177t-4.5 -186.5t11 -166.5q4 -31 -29 -50.5t-73 -21.5t-70.5 15.5t-24.5 64.5q8 63 12 157.5 t2 191.5t-6 185.5t-10 139.5zM129 948q0 23 18 37t43 14q27 0 44.5 -14t17.5 -37t-17.5 -37t-44.5 -14q-25 0 -43 14.5t-18 36.5z" />
<glyph unicode="&#xf1;" horiz-adv-x="753" d="M-2 784q-4 25 13.5 44.5t44 31.5t58 15.5t57.5 -6t41 -33t9 -62.5q-4 -33 -10 -77t-10 -97q29 59 61.5 110.5t72.5 88.5t86 55t99 12q51 -12 78 -57t35 -138t0 -239.5t-23 -357.5q-2 -31 -34.5 -50.5t-71.5 -22.5t-67.5 15.5t-22.5 65.5q10 63 17 135t10 139.5t2 125 t-7 93.5q-6 37 -36.5 40t-69.5 -34.5t-79 -119.5t-65 -215h-2q2 -47 4 -91t9 -81q4 -31 -29 -50.5t-73 -21.5t-70.5 15.5t-24.5 64.5q8 63 11 160.5t2 201t-5 195.5t-10 145zM270 926.5q-3 19.5 4 38t25 22.5q27 12 43.5 10t31.5 -6t34.5 -6t54.5 8q12 4 19.5 -7t8.5 -26.5 t-4 -33t-18 -25.5q-31 -14 -47 -12t-28.5 7t-27.5 7t-46 -10q-23 -10 -35 2t-15 31.5z" />
<glyph unicode="&#xf2;" horiz-adv-x="708" d="M-12.5 463.5q12.5 111.5 57.5 204t121 148.5t180 48q82 -6 135.5 -49t84 -107.5t37.5 -145.5t-6 -163t-45 -157.5t-79 -132t-108.5 -87t-135.5 -20.5q-96 12 -153.5 83t-79 169t-9 209.5zM163 396.5q-7 -64.5 1 -122t30.5 -97.5t61.5 -46q41 -6 75 29t57.5 89t33.5 119.5 t5 124t-29.5 97.5t-71.5 43t-81 -31t-54.5 -88t-27.5 -117.5zM219 948q-6 18 2 34.5t23.5 26t34 9.5t28.5 -14q14 -25 41 -38.5t80 -9.5q10 2 14 -16t-6 -31q-18 -8 -51 -12t-67 -1t-62.5 15.5t-36.5 36.5z" />
<glyph unicode="&#xf3;" horiz-adv-x="708" d="M-12.5 463.5q12.5 111.5 57.5 204t121 148.5t180 48q82 -6 135.5 -49t84 -107.5t37.5 -145.5t-6 -163t-45 -157.5t-79 -132t-108.5 -87t-135.5 -20.5q-96 12 -153.5 83t-79 169t-9 209.5zM163 396.5q-7 -64.5 1 -122t30.5 -97.5t61.5 -46q41 -6 75 29t57.5 89t33.5 119.5 t5 124t-29.5 97.5t-71.5 43t-81 -31t-54.5 -88t-27.5 -117.5zM205 939.5q4 18.5 14 16.5q53 -4 79.5 9.5t41.5 38.5q10 14 28.5 14t34 -9.5t23.5 -25.5t2 -35q-10 -25 -38 -37t-61.5 -15t-66.5 1t-51 12q-10 12 -6 30.5z" />
<glyph unicode="&#xf4;" horiz-adv-x="708" d="M-12.5 463.5q12.5 111.5 57.5 204t121 148.5t180 48q82 -6 135.5 -49t84 -107.5t37.5 -145.5t-6 -163t-45 -157.5t-79 -132t-108.5 -87t-135.5 -20.5q-96 12 -153.5 83t-79 169t-9 209.5zM163 396.5q-7 -64.5 1 -122t30.5 -97.5t61.5 -46q41 -6 75 29t57.5 89t33.5 119.5 t5 124t-29.5 97.5t-71.5 43t-81 -31t-54.5 -88t-27.5 -117.5zM199 921.5q-4 20.5 8 26.5q35 16 42 32.5t11 51.5q4 18 20.5 27.5t35.5 11.5h4h4q20 -2 35.5 -11t19.5 -30q4 -33 11 -49.5t42 -32.5q12 -8 7 -27.5t-23 -25.5q-23 -2 -48.5 10.5t-47.5 30.5 q-23 -18 -49.5 -30.5t-49.5 -10.5q-18 6 -22 26.5z" />
<glyph unicode="&#xf5;" horiz-adv-x="708" d="M-12.5 463.5q12.5 111.5 57.5 204t121 148.5t180 48q82 -6 135.5 -49t84 -107.5t37.5 -145.5t-6 -163t-45 -157.5t-79 -132t-108.5 -87t-135.5 -20.5q-96 12 -153.5 83t-79 169t-9 209.5zM163 396.5q-7 -64.5 1 -122t30.5 -97.5t61.5 -46q41 -6 75 29t57.5 89t33.5 119.5 t5 124t-29.5 97.5t-71.5 43t-81 -31t-54.5 -88t-27.5 -117.5zM218 926.5q-3 19.5 4 38t25 22.5q27 12 43.5 10t31.5 -6t34.5 -6t54.5 8q12 4 19.5 -7t8.5 -26.5t-4 -33t-18 -25.5q-31 -14 -47 -12t-28.5 7t-27.5 7t-46 -10q-23 -10 -35 2t-15 31.5z" />
<glyph unicode="&#xf6;" horiz-adv-x="708" d="M-12.5 463.5q12.5 111.5 57.5 204t121 148.5t180 48q82 -6 135.5 -49t84 -107.5t37.5 -145.5t-6 -163t-45 -157.5t-79 -132t-108.5 -87t-135.5 -20.5q-96 12 -153.5 83t-79 169t-9 209.5zM163 396.5q-7 -64.5 1 -122t30.5 -97.5t61.5 -46q41 -6 75 29t57.5 89t33.5 119.5 t5 124t-29.5 97.5t-71.5 43t-81 -31t-54.5 -88t-27.5 -117.5zM184 948q0 23 17 37t44 14q25 0 43.5 -14t18.5 -37t-18.5 -37t-43.5 -14q-27 0 -44 14.5t-17 36.5zM329 948q0 23 18.5 37t43.5 14q27 0 44 -14t17 -37t-17 -37t-44 -14q-25 0 -43.5 14.5t-18.5 36.5z" />
<glyph unicode="&#xf7;" horiz-adv-x="512" d="M136 143q4 6 34.5 10.5t66.5 7.5t69.5 2t44.5 -7q2 -10 1 -31t-3.5 -43.5t-6.5 -43t-8 -30.5q-10 -6 -38.5 -7t-61.5 -1t-60.5 2t-35.5 6q0 18 -1 62t-1 73zM136 444q4 6 34.5 10.5t66.5 6.5t69.5 2t44.5 -6q2 -10 1 -32t-3.5 -44.5t-6.5 -43t-8 -28.5q-10 -6 -38.5 -8 t-61.5 -1t-60.5 3t-35.5 6q0 18 -1 62.5t-1 72.5z" />
<glyph unicode="&#xf8;" horiz-adv-x="708" d="M-14.5 453q8.5 82 36 158.5t72.5 135t108.5 91t143.5 26.5q14 -2 27.5 -4t25.5 -6q11 21 13 29q6 16 31.5 29.5t57 20.5t64.5 6t54.5 -11t25.5 -33t-20 -57q-12 -18 -31 -47t-41 -64q35 -63 45 -144t0 -165t-41 -164t-79 -139.5t-110.5 -91t-138.5 -21.5q-29 2 -63 16v-4 q-4 -25 -40 -29.5t-74 4.5t-61.5 30.5t-4.5 50.5q20 27 47 77q-31 63 -43.5 143.5t-4 162.5zM160 381q35 61 67.5 125t61.5 123q-29 -8 -51.5 -33t-38 -58.5t-25.5 -73.5t-14 -83zM223 143q13 -8 33 -12q43 -6 78 31t57.5 95t31.5 127t1 126q-55 -98 -109.5 -194.5 t-91.5 -172.5z" />
<glyph unicode="&#xf9;" horiz-adv-x="714" d="M-8 449.5q2 146.5 43 343.5q6 29 42 48t74.5 21t65.5 -16.5t14 -63.5q-55 -209 -64 -344t10.5 -207.5t58 -90t77.5 8t69 90t32 156.5q0 61 -1 122t-4 112t-8.5 90.5t-9.5 62.5q-4 25 13.5 45.5t44 32.5t58.5 14.5t57.5 -7t41 -32t8.5 -61.5q-8 -59 -17 -148t-14 -187.5 t-5 -196t10 -170.5q4 -29 -27 -48.5t-69.5 -22.5t-70.5 12.5t-30 56.5q-29 -35 -70.5 -54.5t-97.5 -15.5q-74 4 -127 55t-79.5 149.5t-24.5 245zM205 948q-6 18 2 34.5t23.5 26t34 9.5t28.5 -14q14 -25 41 -38.5t80 -9.5q10 2 14 -16t-6 -31q-18 -8 -51 -12t-67 -1 t-62.5 15.5t-36.5 36.5z" />
<glyph unicode="&#xfa;" horiz-adv-x="714" d="M-8 449.5q2 146.5 43 343.5q6 29 42 48t74.5 21t65.5 -16.5t14 -63.5q-55 -209 -64 -344t10.5 -207.5t58 -90t77.5 8t69 90t32 156.5q0 61 -1 122t-4 112t-8.5 90.5t-9.5 62.5q-4 25 13.5 45.5t44 32.5t58.5 14.5t57.5 -7t41 -32t8.5 -61.5q-8 -59 -17 -148t-14 -187.5 t-5 -196t10 -170.5q4 -29 -27 -48.5t-69.5 -22.5t-70.5 12.5t-30 56.5q-29 -35 -70.5 -54.5t-97.5 -15.5q-74 4 -127 55t-79.5 149.5t-24.5 245zM197 939.5q4 18.5 14 16.5q53 -4 79.5 9.5t41.5 38.5q10 14 28.5 14t34 -9.5t23.5 -25.5t2 -35q-10 -25 -38 -37t-61.5 -15 t-66.5 1t-51 12q-10 12 -6 30.5z" />
<glyph unicode="&#xfb;" horiz-adv-x="714" d="M-8 449.5q2 146.5 43 343.5q6 29 42 48t74.5 21t65.5 -16.5t14 -63.5q-55 -209 -64 -344t10.5 -207.5t58 -90t77.5 8t69 90t32 156.5q0 61 -1 122t-4 112t-8.5 90.5t-9.5 62.5q-4 25 13.5 45.5t44 32.5t58.5 14.5t57.5 -7t41 -32t8.5 -61.5q-8 -59 -17 -148t-14 -187.5 t-5 -196t10 -170.5q4 -29 -27 -48.5t-69.5 -22.5t-70.5 12.5t-30 56.5q-29 -35 -70.5 -54.5t-97.5 -15.5q-74 4 -127 55t-79.5 149.5t-24.5 245zM195 921.5q-4 20.5 8 26.5q35 16 42 32.5t11 51.5q4 18 20.5 27.5t35.5 11.5h4h4q20 -2 35.5 -11t19.5 -30q4 -33 11 -49.5 t42 -32.5q12 -8 7 -27.5t-23 -25.5q-23 -2 -48.5 10.5t-47.5 30.5q-23 -18 -49.5 -30.5t-49.5 -10.5q-18 6 -22 26.5z" />
<glyph unicode="&#xfc;" horiz-adv-x="714" d="M-8 449.5q2 146.5 43 343.5q6 29 42 48t74.5 21t65.5 -16.5t14 -63.5q-55 -209 -64 -344t10.5 -207.5t58 -90t77.5 8t69 90t32 156.5q0 61 -1 122t-4 112t-8.5 90.5t-9.5 62.5q-4 25 13.5 45.5t44 32.5t58.5 14.5t57.5 -7t41 -32t8.5 -61.5q-8 -59 -17 -148t-14 -187.5 t-5 -196t10 -170.5q4 -29 -27 -48.5t-69.5 -22.5t-70.5 12.5t-30 56.5q-29 -35 -70.5 -54.5t-97.5 -15.5q-74 4 -127 55t-79.5 149.5t-24.5 245zM178 948q0 23 17 37t44 14q25 0 43.5 -14t18.5 -37t-18.5 -37t-43.5 -14q-27 0 -44 14.5t-17 36.5zM323 948q0 23 18.5 37 t43.5 14q27 0 44 -14t17 -37t-17 -37t-44 -14q-25 0 -43.5 14.5t-18.5 36.5z" />
<glyph unicode="&#xfd;" horiz-adv-x="698" d="M-11 449.5q3 146.5 42 343.5q6 31 43 50t76.5 20t68.5 -18.5t17 -68.5q-53 -207 -61.5 -342t9 -208.5t52 -93t71.5 4t66.5 81.5t36.5 140q2 70 2 139.5v130v108.5t-2 77q-4 41 31.5 57.5t76.5 12.5t74 -23.5t24 -50.5q-6 -20 -10 -69.5t-8 -116t-7 -141t-5 -147.5 t-4 -136.5t-2 -104.5q-4 -143 -51.5 -234t-116 -137.5t-145.5 -51.5t-139 26t-100 92t-26 148q4 25 35 31.5t63.5 0.5t57 -25.5t18.5 -47.5q-8 -53 26 -79t79 -12.5t82.5 74t35.5 178.5q2 8 2 15.5v13.5q-29 -41 -73.5 -65.5t-108.5 -20.5q-72 4 -125 55t-80.5 149.5 t-24.5 245zM205 939.5q4 18.5 14 16.5q53 -4 79.5 9.5t41.5 38.5q10 14 28.5 14t34 -9.5t23.5 -25.5t2 -35q-10 -25 -38 -37t-61.5 -15t-66.5 1t-51 12q-10 12 -6 30.5z" />
<glyph unicode="&#xff;" horiz-adv-x="698" d="M-11 449.5q3 146.5 42 343.5q6 31 43 50t76.5 20t68.5 -18.5t17 -68.5q-53 -207 -61.5 -342t9 -208.5t52 -93t71.5 4t66.5 81.5t36.5 140q2 70 2 139.5v130v108.5t-2 77q-4 41 31.5 57.5t76.5 12.5t74 -23.5t24 -50.5q-6 -20 -10 -69.5t-8 -116t-7 -141t-5 -147.5 t-4 -136.5t-2 -104.5q-4 -143 -51.5 -234t-116 -137.5t-145.5 -51.5t-139 26t-100 92t-26 148q4 25 35 31.5t63.5 0.5t57 -25.5t18.5 -47.5q-8 -53 26 -79t79 -12.5t82.5 74t35.5 178.5q2 8 2 15.5v13.5q-29 -41 -73.5 -65.5t-108.5 -20.5q-72 4 -125 55t-80.5 149.5 t-24.5 245zM184 948q0 23 17 37t44 14q25 0 43.5 -14t18.5 -37t-18.5 -37t-43.5 -14q-27 0 -44 14.5t-17 36.5zM329 948q0 23 18.5 37t43.5 14q27 0 44 -14t17 -37t-17 -37t-44 -14q-25 0 -43.5 14.5t-18.5 36.5z" />
<glyph unicode="&#x152;" horiz-adv-x="1476" d="M9 1003.5q-7 49.5 4.5 105.5t43.5 105q39 57 95.5 101.5t122 71t135 31.5t135.5 -15q14 2 35 0q74 -10 173 -15.5t202.5 -6.5t199.5 3.5t168 16.5q33 2 34 -34t-16.5 -81t-48 -80t-63.5 -28q-86 14 -178.5 21t-190.5 9q-10 -82 -18 -220t-17 -292q66 -2 125.5 3.5 t130.5 15.5q31 2 35 -32t-10 -76t-44 -75.5t-63 -27.5q-66 10 -105.5 15t-74.5 7q-4 -117 -6 -216t0 -163q109 -2 213.5 7.5t202.5 25.5q33 6 63.5 -26.5t48 -73.5t16.5 -76t-34 -31q-61 8 -156.5 11.5t-200 2.5t-203.5 -5.5t-167 -12.5q-53 -4 -65.5 25t1.5 65 q-98 -84 -201.5 -80.5t-184 93.5t-122.5 270t-14 453q4 35 34 54t67 25q-43 8 -69 44t-33 85.5zM123 874q37 4 67.5 -9t40.5 -44q-31 -229 -19.5 -378.5t48.5 -227.5t91.5 -86t108.5 46t99.5 169t65.5 285q18 184 -4.5 299.5t-68.5 174t-109.5 65t-125 -27.5t-113.5 -102.5 t-79 -158.5q0 -2 -2 -5z" />
<glyph unicode="&#x153;" horiz-adv-x="1230" d="M3 463q9 80 38 155.5t74 132t107.5 88t139.5 25.5q72 -4 121 -37.5t82 -87.5q51 61 121 96t160 27q86 -8 134 -62.5t62.5 -130t-6 -157.5t-73 -142.5t-136.5 -88t-198 7.5q8 -90 57 -129t105.5 -33t104.5 57.5t54 145.5q8 25 33 39t51.5 17t48 -8t21.5 -38 q0 -74 -31 -137.5t-80 -108.5t-109.5 -69.5t-117.5 -22.5q-90 2 -151.5 40t-102.5 99q-47 -72 -114.5 -110.5t-151.5 -28.5q-72 8 -122 51t-80 107.5t-40 143.5t-1 159zM179 396.5q-7 -64.5 1 -122t30.5 -97.5t61.5 -46q41 -6 75 29t57.5 89t34 119.5t5 124t-30 97.5 t-71.5 43t-81 -31t-54.5 -88t-27.5 -117.5zM641 432q84 -37 143.5 -15.5t87 66.5t20.5 91.5t-54 58.5q-37 8 -69 -7.5t-56.5 -45t-43 -69.5t-28.5 -79z" />
<glyph unicode="&#x178;" horiz-adv-x="886" d="M4 968.5q10 151.5 51 354.5q12 53 53.5 67.5t86.5 6.5t81.5 -29.5t36.5 -40.5q-66 -207 -82 -364.5t2.5 -264t60.5 -162t92 -59.5t99.5 46t81 152.5t36.5 260.5t-34 371q-2 23 32 49t77 39.5t81 3t44 -59.5q31 -246 15.5 -428t-61.5 -307t-117 -195.5t-153 -93.5 q-2 -100 0 -172.5t9 -99.5q8 -33 -28 -51.5t-80 -18.5t-81 19.5t-33 60.5q4 33 7.5 99.5t7.5 156.5q-41 8 -86 29.5t-85 67t-70 118t-42 183t-2 262zM309 1470q0 23 17 37t44 14q25 0 43.5 -14t18.5 -37t-18.5 -37t-43.5 -14q-27 0 -44 14.5t-17 36.5zM454 1470 q0 23 18.5 37t43.5 14q27 0 44 -14t17 -37t-17 -37t-44 -14q-25 0 -43.5 14.5t-18.5 36.5z" />
<glyph unicode="&#x2c6;" horiz-adv-x="669" d="M209 921.5q-4 20.5 8 26.5q35 16 42 32.5t11 51.5q4 18 20.5 27.5t35.5 11.5h4h4q20 -2 35.5 -11t19.5 -30q4 -33 11 -49.5t42 -32.5q12 -8 7 -27.5t-23 -25.5q-23 -2 -48.5 10.5t-47.5 30.5q-23 -18 -49.5 -30.5t-49.5 -10.5q-18 6 -22 26.5z" />
<glyph unicode="&#x2dc;" horiz-adv-x="608" d="M198 926.5q-3 19.5 4 38t25 22.5q27 12 43.5 10t31.5 -6t34.5 -6t54.5 8q12 4 19.5 -7t8.5 -26.5t-4 -33t-18 -25.5q-31 -14 -47 -12t-28.5 7t-27.5 7t-46 -10q-23 -10 -35 2t-15 31.5z" />
<glyph unicode="&#x2000;" horiz-adv-x="812" />
<glyph unicode="&#x2001;" horiz-adv-x="1625" />
<glyph unicode="&#x2002;" horiz-adv-x="812" />
<glyph unicode="&#x2003;" horiz-adv-x="1625" />
<glyph unicode="&#x2004;" horiz-adv-x="541" />
<glyph unicode="&#x2005;" horiz-adv-x="406" />
<glyph unicode="&#x2006;" horiz-adv-x="270" />
<glyph unicode="&#x2007;" horiz-adv-x="270" />
<glyph unicode="&#x2008;" horiz-adv-x="203" />
<glyph unicode="&#x2009;" horiz-adv-x="325" />
<glyph unicode="&#x200a;" horiz-adv-x="90" />
<glyph unicode="&#x2010;" horiz-adv-x="829" d="M96 287q-2 39 18.5 69.5t73.5 26.5t100.5 -7t94.5 -4t96.5 2t108.5 11q31 2 35 -32t-10.5 -75.5t-43 -75.5t-61.5 -28q-66 12 -109 16.5t-76.5 4.5t-66.5 -3.5t-78 -5.5q-35 -2 -57.5 30t-24.5 71z" />
<glyph unicode="&#x2011;" horiz-adv-x="829" d="M96 287q-2 39 18.5 69.5t73.5 26.5t100.5 -7t94.5 -4t96.5 2t108.5 11q31 2 35 -32t-10.5 -75.5t-43 -75.5t-61.5 -28q-66 12 -109 16.5t-76.5 4.5t-66.5 -3.5t-78 -5.5q-35 -2 -57.5 30t-24.5 71z" />
<glyph unicode="&#x2012;" horiz-adv-x="829" d="M96 287q-2 39 18.5 69.5t73.5 26.5t100.5 -7t94.5 -4t96.5 2t108.5 11q31 2 35 -32t-10.5 -75.5t-43 -75.5t-61.5 -28q-66 12 -109 16.5t-76.5 4.5t-66.5 -3.5t-78 -5.5q-35 -2 -57.5 30t-24.5 71z" />
<glyph unicode="&#x2013;" horiz-adv-x="1214" d="M96 287q-2 39 18.5 69.5t73.5 26.5q35 -2 98.5 -5t140.5 -4t161 -2t161.5 0t143 4t104.5 9q31 2 35 -32t-10 -75.5t-43 -75.5t-61 -28q-43 8 -106.5 12t-135.5 6.5t-147.5 2.5t-143.5 -1t-122 -3.5t-85 -4.5q-35 -2 -57.5 30t-24.5 71z" />
<glyph unicode="&#x2014;" horiz-adv-x="1478" d="M96 287q-2 39 18.5 69.5t73.5 26.5q37 -2 120 -5t191.5 -4t229.5 -2t229.5 0t194.5 4t125 9q31 2 35 -32t-10.5 -75.5t-43 -75.5t-61.5 -28q-43 8 -127 12t-187.5 6.5t-215 2.5t-211 -1t-174 -3.5t-105.5 -4.5q-35 -2 -57.5 30t-24.5 71z" />
<glyph unicode="&#x2018;" horiz-adv-x="370" d="M53 1128q-2 25 7.5 59t27.5 70.5t45 70.5t57 58q16 12 34 8.5t30 -14t17 -26t-3 -25.5q-33 -39 -47 -89t-20 -122q-2 -37 -25.5 -49t-50.5 -7t-49.5 23.5t-22.5 42.5z" />
<glyph unicode="&#x2019;" horiz-adv-x="333" d="M50 1082.5q-5 15.5 3 25.5q33 39 47.5 89t20.5 122q2 37 25.5 49t50 7t49 -23.5t22.5 -42.5q2 -25 -7 -58.5t-27.5 -70.5t-45 -71t-57.5 -58q-16 -12 -33.5 -8t-30 14t-17.5 25.5z" />
<glyph unicode="&#x201c;" horiz-adv-x="643" d="M94.5 1151q-4.5 39 0.5 83t18.5 90t36.5 83q10 18 29.5 21.5t35.5 -4t27.5 -20.5t7.5 -28q-16 -53 -12 -109.5t26 -136.5q12 -41 -7 -61t-48 -25.5t-59.5 6.5t-40.5 37t-14.5 64zM321.5 1151q-4.5 39 1 83t18.5 90t36 83q10 18 29.5 21.5t36 -4t27.5 -20.5t5 -28 q-16 -53 -11 -109.5t28 -136.5q12 -41 -7.5 -61t-49 -25.5t-59.5 7t-40 36.5q-10 25 -14.5 64z" />
<glyph unicode="&#x201d;" horiz-adv-x="643" d="M111 1346q-12 39 7 60t49 26.5t59.5 -7t39.5 -36.5q10 -25 14.5 -64t-1 -83t-18.5 -90t-36 -83q-10 -18 -29.5 -21.5t-36 4t-27.5 20.5t-5 28q16 53 11.5 109.5t-27.5 136.5zM338 1346q-12 39 7.5 60t48 26.5t59.5 -6.5t41 -37t14 -64t-1 -83t-18.5 -90t-35.5 -83 q-10 -18 -30 -21.5t-36 4t-27.5 20.5t-7.5 28q16 53 12 109.5t-26 136.5z" />
<glyph unicode="&#x2022;" horiz-adv-x="874" d="M213 748q0 45 17.5 84.5t48 68.5t71.5 46.5t88 17.5q45 0 86 -17.5t72 -46.5t49.5 -68.5t18.5 -84.5t-18.5 -84t-49.5 -69t-72 -46.5t-86 -16.5q-47 0 -88 16.5t-71.5 46.5t-48 68.5t-17.5 84.5z" />
<glyph unicode="&#x202f;" horiz-adv-x="325" />
<glyph unicode="&#x2039;" horiz-adv-x="573" d="M68 345q2 26 15 49.5t34 33.5q68 25 115 58.5t77.5 64.5t48 53.5t23.5 22.5q12 0 24.5 -28t9.5 -70t-28 -92t-84 -97q53 -47 76.5 -99.5t28 -96.5t-5 -73.5t-21.5 -31.5q-8 0 -28.5 28.5t-53.5 66.5t-79 76t-103 56q-29 8 -40 30.5t-9 48.5z" />
<glyph unicode="&#x203a;" horiz-adv-x="573" d="M79 529q-3 42 9 70t25 28q6 0 23.5 -22.5t48 -53.5t77.5 -64.5t115 -58.5q20 -10 33.5 -33.5t15.5 -49.5t-9 -48.5t-40 -30.5q-59 -18 -104.5 -56t-78 -76t-53 -66.5t-28.5 -28.5q-12 2 -21.5 31.5t-5.5 73.5t27.5 96.5t76.5 99.5q-59 47 -83.5 97t-27.5 92z" />
<glyph unicode="&#x205f;" horiz-adv-x="406" />
<glyph unicode="&#x20ac;" horiz-adv-x="745" d="M92 659.5q-2 18.5 9.5 34t37.5 13.5h25q0 4 -1 7t-1 7q0 10 1 18.5t1 18.5q-6 0 -13.5 -1t-17.5 -1q-16 0 -27.5 15t-13.5 34.5t9.5 35t37.5 13.5q10 -2 17.5 -2h17.5q16 90 51 151.5t77 94t87 35t81 -26.5t56.5 -89.5t14.5 -152.5q-4 -31 -26.5 -45t-47.5 -15t-42 11 t-13 33q8 68 -6.5 104.5t-37 37.5t-48 -33.5t-39.5 -108.5q16 2 31.5 3t31.5 3t18.5 -15.5t-6 -38t-23 -36.5t-30.5 -14q-10 2 -18.5 3t-16.5 3q-2 -6 -2 -13.5v-13.5v-27q35 0 78 7q16 2 18.5 -15.5t-6 -38t-23 -38t-30.5 -13.5q-8 2 -15 2t-14 2q14 -59 42 -81.5 t57.5 -11.5t52.5 55t25 118q4 20 22.5 32.5t38.5 14.5t37.5 -6t17.5 -31q-6 -115 -59 -186.5t-121 -88.5t-130 27t-85 162q-10 -2 -39 -2q-16 0 -27.5 15.5t-13.5 34z" />
<glyph unicode="&#x2122;" horiz-adv-x="614" d="M97 1374q1 6 12 4q27 -4 66.5 -4t64.5 4q6 0 6 -6t-3 -13t-8.5 -13.5t-11.5 -6.5q-8 2 -14 2t-14 2q-2 -18 -4.5 -49.5t-4.5 -63.5t-2 -57.5t2 -31.5t-4 -9.5t-13 -3.5t-13 3.5t-6 11.5q2 10 3 37.5t1 59.5v61.5v44.5q-10 0 -18.5 -1.5t-16.5 -1.5q-6 0 -12.5 5.5 t-8.5 12.5t-1 13zM254 1143q0 10 1 42t2 66.5t1 65.5t-2 39q0 6 6 11t13.5 8t14.5 2t7 -9l4 -12q4 -13 8 -29t9.5 -33.5t9.5 -29.5q10 23 19 50.5t15 43.5q0 6 7.5 12t15.5 8t14.5 -2t3.5 -18q-2 -12 -4 -45t-4 -69t-2 -65.5t2 -37.5q2 -6 -4 -9.5t-13 -3.5t-13.5 3.5 t-6.5 11.5q2 12 3 53t1 82q-6 -18 -11 -33.5t-7 -23.5q0 -10 -16.5 -11.5t-20.5 11.5q-4 20 -16 53q-2 -43 -3 -83t3 -50q0 -6 -5 -9.5t-13.5 -3.5t-13.5 3.5t-5 11.5z" />
<glyph unicode="&#x25fc;" horiz-adv-x="870" d="M0 0v870h870v-870h-870z" />
</font>
</defs>
</svg>
